<ttFont>
    <TTGlyph name="A" xMin="-4" yMin="-8" xMax="652" yMax="674">
      <contour>
        <pt x="134" y="65" on="1"/>
        <pt x="134" y="45" on="0"/>
        <pt x="159" y="38" on="1"/>
        <pt x="218" y="25" on="1"/>
        <pt x="212" y="-8" on="1"/>
        <pt x="157" y="0" on="0"/>
        <pt x="59" y="0" on="0"/>
        <pt x="3" y="-8" on="1"/>
        <pt x="-4" y="25" on="1"/>
        <pt x="38" y="34" on="0"/>
        <pt x="62" y="57" on="0"/>
        <pt x="78" y="101" on="1"/>
        <pt x="277" y="645" on="1"/>
        <pt x="321" y="655" on="0"/>
        <pt x="353" y="674" on="1"/>
        <pt x="568" y="101" on="1"/>
        <pt x="584" y="58" on="0"/>
        <pt x="610" y="34" on="0"/>
        <pt x="652" y="25" on="1"/>
        <pt x="645" y="-8" on="1"/>
        <pt x="589" y="0" on="0"/>
        <pt x="462" y="0" on="0"/>
        <pt x="406" y="-8" on="1"/>
        <pt x="400" y="25" on="1"/>
        <pt x="435" y="31" on="0"/>
        <pt x="483" y="46" on="0"/>
        <pt x="483" y="65" on="1"/>
        <pt x="483" y="72" on="0"/>
        <pt x="480" y="79" on="1"/>
        <pt x="423" y="237" on="1"/>
        <pt x="190" y="237" on="1"/>
        <pt x="136" y="79" on="1"/>
        <pt x="134" y="74" on="0"/>
      </contour>
      <contour>
        <pt x="294" y="537" on="1"/>
        <pt x="207" y="287" on="1"/>
        <pt x="405" y="287" on="1"/>
        <pt x="317" y="530" on="1"/>
        <pt x="306" y="572" on="1"/>
        <pt x="299" y="575" on="1"/>
      </contour>
    </TTGlyph>
    <TTGlyph name="AE" xMin="-12" yMin="-8" xMax="809" yMax="656">
      <contour>
        <pt x="459" y="650" on="1"/>
        <pt x="695" y="650" on="1"/>
        <pt x="741" y="650" on="0"/>
        <pt x="777" y="656" on="1"/>
        <pt x="777" y="501" on="1"/>
        <pt x="740" y="495" on="1"/>
        <pt x="726" y="580" on="0"/>
        <pt x="708" y="603" on="1"/>
        <pt x="503" y="603" on="1"/>
        <pt x="503" y="360" on="1"/>
        <pt x="638" y="360" on="1"/>
        <pt x="666" y="360" on="0"/>
        <pt x="671" y="375" on="1"/>
        <pt x="677" y="389" on="0"/>
        <pt x="682" y="422" on="1"/>
        <pt x="683" y="434" on="1"/>
        <pt x="721" y="430" on="1"/>
        <pt x="713" y="380" on="0"/>
        <pt x="713" y="292" on="0"/>
        <pt x="721" y="242" on="1"/>
        <pt x="683" y="238" on="1"/>
        <pt x="678" y="281" on="0"/>
        <pt x="665" y="312" on="0"/>
        <pt x="638" y="312" on="1"/>
        <pt x="503" y="312" on="1"/>
        <pt x="503" y="48" on="1"/>
        <pt x="718" y="48" on="1"/>
        <pt x="731" y="60" on="0"/>
        <pt x="766" y="147" on="0"/>
        <pt x="773" y="173" on="1"/>
        <pt x="809" y="167" on="1"/>
        <pt x="808" y="139" on="0"/>
        <pt x="794" y="20" on="0"/>
        <pt x="788" y="0" on="1"/>
        <pt x="459" y="0" on="1"/>
        <pt x="413" y="0" on="0"/>
        <pt x="346" y="-8" on="1"/>
        <pt x="339" y="25" on="1"/>
        <pt x="379" y="30" on="0"/>
        <pt x="414" y="45" on="0"/>
        <pt x="414" y="69" on="1"/>
        <pt x="414" y="312" on="1"/>
        <pt x="259" y="312" on="1"/>
        <pt x="153" y="79" on="1"/>
        <pt x="144" y="60" on="0"/>
        <pt x="144" y="41" on="0"/>
        <pt x="152" y="37" on="1"/>
        <pt x="165" y="31" on="0"/>
        <pt x="199" y="26" on="1"/>
        <pt x="210" y="25" on="1"/>
        <pt x="204" y="-8" on="1"/>
        <pt x="144" y="0" on="0"/>
        <pt x="46" y="0" on="0"/>
        <pt x="-5" y="-8" on="1"/>
        <pt x="-12" y="25" on="1"/>
        <pt x="31" y="33" on="0"/>
        <pt x="45" y="42" on="1"/>
        <pt x="62" y="51" on="0"/>
        <pt x="85" y="101" on="1"/>
        <pt x="346" y="656" on="1"/>
        <pt x="393" y="650" on="0"/>
      </contour>
      <contour>
        <pt x="414" y="603" on="1"/>
        <pt x="392" y="603" on="1"/>
        <pt x="281" y="360" on="1"/>
        <pt x="414" y="360" on="1"/>
      </contour>
    </TTGlyph>
    <TTGlyph name="AEacute" xMin="-12" yMin="-8" xMax="809" yMax="833">
      <contour>
        <pt x="459" y="650" on="1"/>
        <pt x="695" y="650" on="1"/>
        <pt x="741" y="650" on="0"/>
        <pt x="777" y="656" on="1"/>
        <pt x="777" y="501" on="1"/>
        <pt x="740" y="495" on="1"/>
        <pt x="726" y="580" on="0"/>
        <pt x="708" y="603" on="1"/>
        <pt x="503" y="603" on="1"/>
        <pt x="503" y="360" on="1"/>
        <pt x="638" y="360" on="1"/>
        <pt x="666" y="360" on="0"/>
        <pt x="671" y="375" on="1"/>
        <pt x="677" y="389" on="0"/>
        <pt x="682" y="422" on="1"/>
        <pt x="683" y="434" on="1"/>
        <pt x="721" y="430" on="1"/>
        <pt x="713" y="380" on="0"/>
        <pt x="713" y="292" on="0"/>
        <pt x="721" y="242" on="1"/>
        <pt x="683" y="238" on="1"/>
        <pt x="678" y="281" on="0"/>
        <pt x="665" y="312" on="0"/>
        <pt x="638" y="312" on="1"/>
        <pt x="503" y="312" on="1"/>
        <pt x="503" y="48" on="1"/>
        <pt x="718" y="48" on="1"/>
        <pt x="731" y="60" on="0"/>
        <pt x="766" y="147" on="0"/>
        <pt x="773" y="173" on="1"/>
        <pt x="809" y="167" on="1"/>
        <pt x="808" y="139" on="0"/>
        <pt x="794" y="20" on="0"/>
        <pt x="788" y="0" on="1"/>
        <pt x="459" y="0" on="1"/>
        <pt x="413" y="0" on="0"/>
        <pt x="346" y="-8" on="1"/>
        <pt x="339" y="25" on="1"/>
        <pt x="379" y="30" on="0"/>
        <pt x="414" y="45" on="0"/>
        <pt x="414" y="69" on="1"/>
        <pt x="414" y="312" on="1"/>
        <pt x="259" y="312" on="1"/>
        <pt x="153" y="79" on="1"/>
        <pt x="144" y="60" on="0"/>
        <pt x="144" y="41" on="0"/>
        <pt x="152" y="37" on="1"/>
        <pt x="165" y="31" on="0"/>
        <pt x="199" y="26" on="1"/>
        <pt x="210" y="25" on="1"/>
        <pt x="204" y="-8" on="1"/>
        <pt x="144" y="0" on="0"/>
        <pt x="46" y="0" on="0"/>
        <pt x="-5" y="-8" on="1"/>
        <pt x="-12" y="25" on="1"/>
        <pt x="31" y="33" on="0"/>
        <pt x="45" y="42" on="1"/>
        <pt x="62" y="51" on="0"/>
        <pt x="85" y="101" on="1"/>
        <pt x="346" y="656" on="1"/>
        <pt x="393" y="650" on="0"/>
      </contour>
      <contour>
        <pt x="414" y="603" on="1"/>
        <pt x="392" y="603" on="1"/>
        <pt x="281" y="360" on="1"/>
        <pt x="414" y="360" on="1"/>
      </contour>
      <contour>
        <pt x="655" y="817" on="1"/>
        <pt x="661" y="799" on="1"/>
        <pt x="473" y="681" on="1"/>
        <pt x="447" y="708" on="1"/>
        <pt x="458" y="721" on="0"/>
        <pt x="560" y="826" on="0"/>
        <pt x="571" y="833" on="1"/>
        <pt x="584" y="833" on="0"/>
        <pt x="643" y="822" on="0"/>
      </contour>
    </TTGlyph>
    <TTGlyph name="Aacute" xMin="-4" yMin="-8" xMax="652" yMax="833">
      <contour>
        <pt x="134" y="65" on="1"/>
        <pt x="134" y="45" on="0"/>
        <pt x="159" y="38" on="1"/>
        <pt x="218" y="25" on="1"/>
        <pt x="212" y="-8" on="1"/>
        <pt x="157" y="0" on="0"/>
        <pt x="59" y="0" on="0"/>
        <pt x="3" y="-8" on="1"/>
        <pt x="-4" y="25" on="1"/>
        <pt x="38" y="34" on="0"/>
        <pt x="62" y="57" on="0"/>
        <pt x="78" y="101" on="1"/>
        <pt x="277" y="645" on="1"/>
        <pt x="321" y="655" on="0"/>
        <pt x="353" y="674" on="1"/>
        <pt x="568" y="101" on="1"/>
        <pt x="584" y="58" on="0"/>
        <pt x="610" y="34" on="0"/>
        <pt x="652" y="25" on="1"/>
        <pt x="645" y="-8" on="1"/>
        <pt x="589" y="0" on="0"/>
        <pt x="462" y="0" on="0"/>
        <pt x="406" y="-8" on="1"/>
        <pt x="400" y="25" on="1"/>
        <pt x="435" y="31" on="0"/>
        <pt x="483" y="46" on="0"/>
        <pt x="483" y="65" on="1"/>
        <pt x="483" y="72" on="0"/>
        <pt x="480" y="79" on="1"/>
        <pt x="423" y="237" on="1"/>
        <pt x="190" y="237" on="1"/>
        <pt x="136" y="79" on="1"/>
        <pt x="134" y="74" on="0"/>
      </contour>
      <contour>
        <pt x="294" y="537" on="1"/>
        <pt x="207" y="287" on="1"/>
        <pt x="405" y="287" on="1"/>
        <pt x="317" y="530" on="1"/>
        <pt x="306" y="572" on="1"/>
        <pt x="299" y="575" on="1"/>
      </contour>
      <contour>
        <pt x="429" y="817" on="1"/>
        <pt x="435" y="799" on="1"/>
        <pt x="247" y="681" on="1"/>
        <pt x="221" y="708" on="1"/>
        <pt x="232" y="721" on="0"/>
        <pt x="334" y="826" on="0"/>
        <pt x="345" y="833" on="1"/>
        <pt x="358" y="833" on="0"/>
        <pt x="417" y="822" on="0"/>
      </contour>
    </TTGlyph>
    <TTGlyph name="Abreve" xMin="-4" yMin="-8" xMax="652" yMax="832">
      <contour>
        <pt x="134" y="65" on="1"/>
        <pt x="134" y="45" on="0"/>
        <pt x="159" y="38" on="1"/>
        <pt x="218" y="25" on="1"/>
        <pt x="212" y="-8" on="1"/>
        <pt x="157" y="0" on="0"/>
        <pt x="59" y="0" on="0"/>
        <pt x="3" y="-8" on="1"/>
        <pt x="-4" y="25" on="1"/>
        <pt x="38" y="34" on="0"/>
        <pt x="62" y="57" on="0"/>
        <pt x="78" y="101" on="1"/>
        <pt x="277" y="645" on="1"/>
        <pt x="321" y="655" on="0"/>
        <pt x="353" y="674" on="1"/>
        <pt x="568" y="101" on="1"/>
        <pt x="584" y="58" on="0"/>
        <pt x="610" y="34" on="0"/>
        <pt x="652" y="25" on="1"/>
        <pt x="645" y="-8" on="1"/>
        <pt x="589" y="0" on="0"/>
        <pt x="462" y="0" on="0"/>
        <pt x="406" y="-8" on="1"/>
        <pt x="400" y="25" on="1"/>
        <pt x="435" y="31" on="0"/>
        <pt x="483" y="46" on="0"/>
        <pt x="483" y="65" on="1"/>
        <pt x="483" y="72" on="0"/>
        <pt x="480" y="79" on="1"/>
        <pt x="423" y="237" on="1"/>
        <pt x="190" y="237" on="1"/>
        <pt x="136" y="79" on="1"/>
        <pt x="134" y="74" on="0"/>
      </contour>
      <contour>
        <pt x="294" y="537" on="1"/>
        <pt x="207" y="287" on="1"/>
        <pt x="405" y="287" on="1"/>
        <pt x="317" y="530" on="1"/>
        <pt x="306" y="572" on="1"/>
        <pt x="299" y="575" on="1"/>
      </contour>
      <contour>
        <pt x="436" y="764" on="0"/>
        <pt x="365" y="688" on="0"/>
        <pt x="248" y="688" on="0"/>
        <pt x="182" y="762" on="0"/>
        <pt x="182" y="823" on="1"/>
        <pt x="213" y="832" on="1"/>
        <pt x="228" y="753" on="0"/>
        <pt x="390" y="753" on="0"/>
        <pt x="405" y="832" on="1"/>
        <pt x="436" y="823" on="1"/>
      </contour>
    </TTGlyph>
    <TTGlyph name="Acircumflex" xMin="-4" yMin="-8" xMax="652" yMax="831">
      <contour>
        <pt x="134" y="65" on="1"/>
        <pt x="134" y="45" on="0"/>
        <pt x="159" y="38" on="1"/>
        <pt x="218" y="25" on="1"/>
        <pt x="212" y="-8" on="1"/>
        <pt x="157" y="0" on="0"/>
        <pt x="59" y="0" on="0"/>
        <pt x="3" y="-8" on="1"/>
        <pt x="-4" y="25" on="1"/>
        <pt x="38" y="34" on="0"/>
        <pt x="62" y="57" on="0"/>
        <pt x="78" y="101" on="1"/>
        <pt x="277" y="645" on="1"/>
        <pt x="321" y="655" on="0"/>
        <pt x="353" y="674" on="1"/>
        <pt x="568" y="101" on="1"/>
        <pt x="584" y="58" on="0"/>
        <pt x="610" y="34" on="0"/>
        <pt x="652" y="25" on="1"/>
        <pt x="645" y="-8" on="1"/>
        <pt x="589" y="0" on="0"/>
        <pt x="462" y="0" on="0"/>
        <pt x="406" y="-8" on="1"/>
        <pt x="400" y="25" on="1"/>
        <pt x="435" y="31" on="0"/>
        <pt x="483" y="46" on="0"/>
        <pt x="483" y="65" on="1"/>
        <pt x="483" y="72" on="0"/>
        <pt x="480" y="79" on="1"/>
        <pt x="423" y="237" on="1"/>
        <pt x="190" y="237" on="1"/>
        <pt x="136" y="79" on="1"/>
        <pt x="134" y="74" on="0"/>
      </contour>
      <contour>
        <pt x="294" y="537" on="1"/>
        <pt x="207" y="287" on="1"/>
        <pt x="405" y="287" on="1"/>
        <pt x="317" y="530" on="1"/>
        <pt x="306" y="572" on="1"/>
        <pt x="299" y="575" on="1"/>
      </contour>
      <contour>
        <pt x="278" y="831" on="0"/>
        <pt x="328" y="831" on="0"/>
        <pt x="344" y="829" on="1"/>
        <pt x="356" y="820" on="0"/>
        <pt x="440" y="713" on="0"/>
        <pt x="446" y="702" on="1"/>
        <pt x="418" y="681" on="1"/>
        <pt x="303" y="771" on="1"/>
        <pt x="188" y="681" on="1"/>
        <pt x="160" y="702" on="1"/>
        <pt x="166" y="713" on="0"/>
        <pt x="250" y="820" on="0"/>
        <pt x="262" y="829" on="1"/>
      </contour>
    </TTGlyph>
    <TTGlyph name="Adieresis" xMin="-4" yMin="-8" xMax="652" yMax="792">
      <contour>
        <pt x="134" y="65" on="1"/>
        <pt x="134" y="45" on="0"/>
        <pt x="159" y="38" on="1"/>
        <pt x="218" y="25" on="1"/>
        <pt x="212" y="-8" on="1"/>
        <pt x="157" y="0" on="0"/>
        <pt x="59" y="0" on="0"/>
        <pt x="3" y="-8" on="1"/>
        <pt x="-4" y="25" on="1"/>
        <pt x="38" y="34" on="0"/>
        <pt x="62" y="57" on="0"/>
        <pt x="78" y="101" on="1"/>
        <pt x="277" y="645" on="1"/>
        <pt x="321" y="655" on="0"/>
        <pt x="353" y="674" on="1"/>
        <pt x="568" y="101" on="1"/>
        <pt x="584" y="58" on="0"/>
        <pt x="610" y="34" on="0"/>
        <pt x="652" y="25" on="1"/>
        <pt x="645" y="-8" on="1"/>
        <pt x="589" y="0" on="0"/>
        <pt x="462" y="0" on="0"/>
        <pt x="406" y="-8" on="1"/>
        <pt x="400" y="25" on="1"/>
        <pt x="435" y="31" on="0"/>
        <pt x="483" y="46" on="0"/>
        <pt x="483" y="65" on="1"/>
        <pt x="483" y="72" on="0"/>
        <pt x="480" y="79" on="1"/>
        <pt x="423" y="237" on="1"/>
        <pt x="190" y="237" on="1"/>
        <pt x="136" y="79" on="1"/>
        <pt x="134" y="74" on="0"/>
      </contour>
      <contour>
        <pt x="294" y="537" on="1"/>
        <pt x="207" y="287" on="1"/>
        <pt x="405" y="287" on="1"/>
        <pt x="317" y="530" on="1"/>
        <pt x="306" y="572" on="1"/>
        <pt x="299" y="575" on="1"/>
      </contour>
      <contour>
        <pt x="151" y="716" on="0"/>
        <pt x="151" y="762" on="0"/>
        <pt x="182" y="792" on="0"/>
        <pt x="231" y="792" on="0"/>
        <pt x="262" y="762" on="0"/>
        <pt x="262" y="716" on="0"/>
        <pt x="231" y="687" on="0"/>
        <pt x="182" y="687" on="0"/>
      </contour>
      <contour>
        <pt x="343" y="716" on="0"/>
        <pt x="343" y="762" on="0"/>
        <pt x="374" y="792" on="0"/>
        <pt x="423" y="792" on="0"/>
        <pt x="454" y="762" on="0"/>
        <pt x="454" y="716" on="0"/>
        <pt x="423" y="687" on="0"/>
        <pt x="374" y="687" on="0"/>
      </contour>
    </TTGlyph>
    <TTGlyph name="Agrave" xMin="-4" yMin="-8" xMax="652" yMax="833">
      <contour>
        <pt x="134" y="65" on="1"/>
        <pt x="134" y="45" on="0"/>
        <pt x="159" y="38" on="1"/>
        <pt x="218" y="25" on="1"/>
        <pt x="212" y="-8" on="1"/>
        <pt x="157" y="0" on="0"/>
        <pt x="59" y="0" on="0"/>
        <pt x="3" y="-8" on="1"/>
        <pt x="-4" y="25" on="1"/>
        <pt x="38" y="34" on="0"/>
        <pt x="62" y="57" on="0"/>
        <pt x="78" y="101" on="1"/>
        <pt x="277" y="645" on="1"/>
        <pt x="321" y="655" on="0"/>
        <pt x="353" y="674" on="1"/>
        <pt x="568" y="101" on="1"/>
        <pt x="584" y="58" on="0"/>
        <pt x="610" y="34" on="0"/>
        <pt x="652" y="25" on="1"/>
        <pt x="645" y="-8" on="1"/>
        <pt x="589" y="0" on="0"/>
        <pt x="462" y="0" on="0"/>
        <pt x="406" y="-8" on="1"/>
        <pt x="400" y="25" on="1"/>
        <pt x="435" y="31" on="0"/>
        <pt x="483" y="46" on="0"/>
        <pt x="483" y="65" on="1"/>
        <pt x="483" y="72" on="0"/>
        <pt x="480" y="79" on="1"/>
        <pt x="423" y="237" on="1"/>
        <pt x="190" y="237" on="1"/>
        <pt x="136" y="79" on="1"/>
        <pt x="134" y="74" on="0"/>
      </contour>
      <contour>
        <pt x="294" y="537" on="1"/>
        <pt x="207" y="287" on="1"/>
        <pt x="405" y="287" on="1"/>
        <pt x="317" y="530" on="1"/>
        <pt x="306" y="572" on="1"/>
        <pt x="299" y="575" on="1"/>
      </contour>
      <contour>
        <pt x="156" y="799" on="1"/>
        <pt x="162" y="817" on="1"/>
        <pt x="174" y="822" on="0"/>
        <pt x="233" y="833" on="0"/>
        <pt x="246" y="833" on="1"/>
        <pt x="257" y="826" on="0"/>
        <pt x="359" y="721" on="0"/>
        <pt x="370" y="708" on="1"/>
        <pt x="344" y="681" on="1"/>
      </contour>
    </TTGlyph>
    <TTGlyph name="Amacron" xMin="-4" yMin="-8" xMax="652" yMax="764">
      <contour>
        <pt x="134" y="65" on="1"/>
        <pt x="134" y="45" on="0"/>
        <pt x="159" y="38" on="1"/>
        <pt x="218" y="25" on="1"/>
        <pt x="212" y="-8" on="1"/>
        <pt x="157" y="0" on="0"/>
        <pt x="59" y="0" on="0"/>
        <pt x="3" y="-8" on="1"/>
        <pt x="-4" y="25" on="1"/>
        <pt x="38" y="34" on="0"/>
        <pt x="62" y="57" on="0"/>
        <pt x="78" y="101" on="1"/>
        <pt x="277" y="645" on="1"/>
        <pt x="321" y="655" on="0"/>
        <pt x="353" y="674" on="1"/>
        <pt x="568" y="101" on="1"/>
        <pt x="584" y="58" on="0"/>
        <pt x="610" y="34" on="0"/>
        <pt x="652" y="25" on="1"/>
        <pt x="645" y="-8" on="1"/>
        <pt x="589" y="0" on="0"/>
        <pt x="462" y="0" on="0"/>
        <pt x="406" y="-8" on="1"/>
        <pt x="400" y="25" on="1"/>
        <pt x="435" y="31" on="0"/>
        <pt x="483" y="46" on="0"/>
        <pt x="483" y="65" on="1"/>
        <pt x="483" y="72" on="0"/>
        <pt x="480" y="79" on="1"/>
        <pt x="423" y="237" on="1"/>
        <pt x="190" y="237" on="1"/>
        <pt x="136" y="79" on="1"/>
        <pt x="134" y="74" on="0"/>
      </contour>
      <contour>
        <pt x="294" y="537" on="1"/>
        <pt x="207" y="287" on="1"/>
        <pt x="405" y="287" on="1"/>
        <pt x="317" y="530" on="1"/>
        <pt x="306" y="572" on="1"/>
        <pt x="299" y="575" on="1"/>
      </contour>
      <contour>
        <pt x="172" y="703" on="1"/>
        <pt x="183" y="764" on="1"/>
        <pt x="433" y="764" on="1"/>
        <pt x="422" y="703" on="1"/>
      </contour>
    </TTGlyph>
    <TTGlyph name="Aogonek" xMin="-4" yMin="-240" xMax="652" yMax="674">
      <contour>
        <pt x="510" y="-143" on="1"/>
        <pt x="510" y="-162" on="0"/>
        <pt x="533" y="-190" on="0"/>
        <pt x="582" y="-190" on="0"/>
        <pt x="614" y="-176" on="1"/>
        <pt x="629" y="-206" on="1"/>
        <pt x="579" y="-240" on="0"/>
        <pt x="492" y="-240" on="0"/>
        <pt x="440" y="-193" on="0"/>
        <pt x="440" y="-151" on="1"/>
        <pt x="440" y="-129" on="0"/>
        <pt x="455" y="-93" on="0"/>
        <pt x="478" y="-71" on="1"/>
        <pt x="504" y="-45" on="0"/>
        <pt x="561" y="0" on="1"/>
        <pt x="536" y="0" on="1"/>
        <pt x="462" y="0" on="0"/>
        <pt x="406" y="-8" on="1"/>
        <pt x="400" y="25" on="1"/>
        <pt x="435" y="31" on="0"/>
        <pt x="483" y="46" on="0"/>
        <pt x="483" y="65" on="1"/>
        <pt x="483" y="72" on="0"/>
        <pt x="480" y="79" on="1"/>
        <pt x="423" y="237" on="1"/>
        <pt x="190" y="237" on="1"/>
        <pt x="136" y="79" on="1"/>
        <pt x="134" y="74" on="0"/>
        <pt x="134" y="65" on="1"/>
        <pt x="134" y="45" on="0"/>
        <pt x="159" y="38" on="1"/>
        <pt x="218" y="25" on="1"/>
        <pt x="212" y="-8" on="1"/>
        <pt x="157" y="0" on="0"/>
        <pt x="59" y="0" on="0"/>
        <pt x="3" y="-8" on="1"/>
        <pt x="-4" y="25" on="1"/>
        <pt x="38" y="34" on="0"/>
        <pt x="62" y="57" on="0"/>
        <pt x="78" y="101" on="1"/>
        <pt x="277" y="645" on="1"/>
        <pt x="321" y="655" on="0"/>
        <pt x="353" y="674" on="1"/>
        <pt x="568" y="101" on="1"/>
        <pt x="584" y="58" on="0"/>
        <pt x="610" y="34" on="0"/>
        <pt x="652" y="25" on="1"/>
        <pt x="645" y="-8" on="1"/>
        <pt x="612" y="-4" on="0"/>
        <pt x="599" y="-3" on="1"/>
        <pt x="510" y="-83" on="0"/>
      </contour>
      <contour>
        <pt x="294" y="537" on="1"/>
        <pt x="207" y="287" on="1"/>
        <pt x="405" y="287" on="1"/>
        <pt x="317" y="530" on="1"/>
        <pt x="306" y="572" on="1"/>
        <pt x="299" y="575" on="1"/>
      </contour>
    </TTGlyph>
    <TTGlyph name="Aring" xMin="-4" yMin="-8" xMax="652" yMax="851">
      <contour>
        <pt x="134" y="65" on="1"/>
        <pt x="134" y="45" on="0"/>
        <pt x="159" y="38" on="1"/>
        <pt x="218" y="25" on="1"/>
        <pt x="212" y="-8" on="1"/>
        <pt x="157" y="0" on="0"/>
        <pt x="59" y="0" on="0"/>
        <pt x="3" y="-8" on="1"/>
        <pt x="-4" y="25" on="1"/>
        <pt x="38" y="34" on="0"/>
        <pt x="62" y="57" on="0"/>
        <pt x="78" y="101" on="1"/>
        <pt x="277" y="645" on="1"/>
        <pt x="321" y="655" on="0"/>
        <pt x="353" y="674" on="1"/>
        <pt x="568" y="101" on="1"/>
        <pt x="584" y="58" on="0"/>
        <pt x="610" y="34" on="0"/>
        <pt x="652" y="25" on="1"/>
        <pt x="645" y="-8" on="1"/>
        <pt x="589" y="0" on="0"/>
        <pt x="462" y="0" on="0"/>
        <pt x="406" y="-8" on="1"/>
        <pt x="400" y="25" on="1"/>
        <pt x="435" y="31" on="0"/>
        <pt x="483" y="46" on="0"/>
        <pt x="483" y="65" on="1"/>
        <pt x="483" y="72" on="0"/>
        <pt x="480" y="79" on="1"/>
        <pt x="423" y="237" on="1"/>
        <pt x="190" y="237" on="1"/>
        <pt x="136" y="79" on="1"/>
        <pt x="134" y="74" on="0"/>
      </contour>
      <contour>
        <pt x="294" y="537" on="1"/>
        <pt x="207" y="287" on="1"/>
        <pt x="405" y="287" on="1"/>
        <pt x="317" y="530" on="1"/>
        <pt x="306" y="572" on="1"/>
        <pt x="299" y="575" on="1"/>
      </contour>
      <contour>
        <pt x="262" y="788" on="0"/>
        <pt x="262" y="744" on="0"/>
        <pt x="290" y="714" on="0"/>
        <pt x="330" y="714" on="0"/>
        <pt x="358" y="744" on="0"/>
        <pt x="358" y="788" on="0"/>
        <pt x="330" y="818" on="0"/>
        <pt x="290" y="818" on="0"/>
      </contour>
      <contour>
        <pt x="224" y="732" on="0"/>
        <pt x="224" y="800" on="0"/>
        <pt x="275" y="851" on="0"/>
        <pt x="345" y="851" on="0"/>
        <pt x="396" y="800" on="0"/>
        <pt x="396" y="732" on="0"/>
        <pt x="345" y="681" on="0"/>
        <pt x="275" y="681" on="0"/>
      </contour>
    </TTGlyph>
    <TTGlyph name="Aringacute" xMin="-4" yMin="-8" xMax="652" yMax="1009">
      <contour>
        <pt x="134" y="65" on="1"/>
        <pt x="134" y="45" on="0"/>
        <pt x="159" y="38" on="1"/>
        <pt x="218" y="25" on="1"/>
        <pt x="212" y="-8" on="1"/>
        <pt x="157" y="0" on="0"/>
        <pt x="59" y="0" on="0"/>
        <pt x="3" y="-8" on="1"/>
        <pt x="-4" y="25" on="1"/>
        <pt x="38" y="34" on="0"/>
        <pt x="62" y="57" on="0"/>
        <pt x="78" y="101" on="1"/>
        <pt x="277" y="645" on="1"/>
        <pt x="321" y="655" on="0"/>
        <pt x="353" y="674" on="1"/>
        <pt x="568" y="101" on="1"/>
        <pt x="584" y="58" on="0"/>
        <pt x="610" y="34" on="0"/>
        <pt x="652" y="25" on="1"/>
        <pt x="645" y="-8" on="1"/>
        <pt x="589" y="0" on="0"/>
        <pt x="462" y="0" on="0"/>
        <pt x="406" y="-8" on="1"/>
        <pt x="400" y="25" on="1"/>
        <pt x="435" y="31" on="0"/>
        <pt x="483" y="46" on="0"/>
        <pt x="483" y="65" on="1"/>
        <pt x="483" y="72" on="0"/>
        <pt x="480" y="79" on="1"/>
        <pt x="423" y="237" on="1"/>
        <pt x="190" y="237" on="1"/>
        <pt x="136" y="79" on="1"/>
        <pt x="134" y="74" on="0"/>
      </contour>
      <contour>
        <pt x="294" y="537" on="1"/>
        <pt x="207" y="287" on="1"/>
        <pt x="405" y="287" on="1"/>
        <pt x="317" y="530" on="1"/>
        <pt x="306" y="572" on="1"/>
        <pt x="299" y="575" on="1"/>
      </contour>
      <contour>
        <pt x="262" y="788" on="0"/>
        <pt x="262" y="744" on="0"/>
        <pt x="290" y="714" on="0"/>
        <pt x="330" y="714" on="0"/>
        <pt x="358" y="744" on="0"/>
        <pt x="358" y="788" on="0"/>
        <pt x="330" y="818" on="0"/>
        <pt x="290" y="818" on="0"/>
      </contour>
      <contour>
        <pt x="224" y="732" on="0"/>
        <pt x="224" y="800" on="0"/>
        <pt x="275" y="851" on="0"/>
        <pt x="345" y="851" on="0"/>
        <pt x="396" y="800" on="0"/>
        <pt x="396" y="732" on="0"/>
        <pt x="345" y="681" on="0"/>
        <pt x="275" y="681" on="0"/>
      </contour>
      <contour>
        <pt x="433" y="993" on="1"/>
        <pt x="439" y="975" on="1"/>
        <pt x="251" y="857" on="1"/>
        <pt x="225" y="884" on="1"/>
        <pt x="236" y="897" on="0"/>
        <pt x="338" y="1002" on="0"/>
        <pt x="349" y="1009" on="1"/>
        <pt x="362" y="1009" on="0"/>
        <pt x="421" y="998" on="0"/>
      </contour>
    </TTGlyph>
    <TTGlyph name="Atilde" xMin="-4" yMin="-8" xMax="652" yMax="800">
      <contour>
        <pt x="134" y="65" on="1"/>
        <pt x="134" y="45" on="0"/>
        <pt x="159" y="38" on="1"/>
        <pt x="218" y="25" on="1"/>
        <pt x="212" y="-8" on="1"/>
        <pt x="157" y="0" on="0"/>
        <pt x="59" y="0" on="0"/>
        <pt x="3" y="-8" on="1"/>
        <pt x="-4" y="25" on="1"/>
        <pt x="38" y="34" on="0"/>
        <pt x="62" y="57" on="0"/>
        <pt x="78" y="101" on="1"/>
        <pt x="277" y="645" on="1"/>
        <pt x="321" y="655" on="0"/>
        <pt x="353" y="674" on="1"/>
        <pt x="568" y="101" on="1"/>
        <pt x="584" y="58" on="0"/>
        <pt x="610" y="34" on="0"/>
        <pt x="652" y="25" on="1"/>
        <pt x="645" y="-8" on="1"/>
        <pt x="589" y="0" on="0"/>
        <pt x="462" y="0" on="0"/>
        <pt x="406" y="-8" on="1"/>
        <pt x="400" y="25" on="1"/>
        <pt x="435" y="31" on="0"/>
        <pt x="483" y="46" on="0"/>
        <pt x="483" y="65" on="1"/>
        <pt x="483" y="72" on="0"/>
        <pt x="480" y="79" on="1"/>
        <pt x="423" y="237" on="1"/>
        <pt x="190" y="237" on="1"/>
        <pt x="136" y="79" on="1"/>
        <pt x="134" y="74" on="0"/>
      </contour>
      <contour>
        <pt x="294" y="537" on="1"/>
        <pt x="207" y="287" on="1"/>
        <pt x="405" y="287" on="1"/>
        <pt x="317" y="530" on="1"/>
        <pt x="306" y="572" on="1"/>
        <pt x="299" y="575" on="1"/>
      </contour>
      <contour>
        <pt x="258" y="733" on="0"/>
        <pt x="210" y="733" on="0"/>
        <pt x="176" y="691" on="1"/>
        <pt x="149" y="707" on="1"/>
        <pt x="159" y="725" on="0"/>
        <pt x="210" y="783" on="0"/>
        <pt x="224" y="794" on="1"/>
        <pt x="247" y="798" on="1"/>
        <pt x="259" y="796" on="0"/>
        <pt x="349" y="757" on="0"/>
        <pt x="396" y="757" on="0"/>
        <pt x="431" y="800" on="1"/>
        <pt x="458" y="783" on="1"/>
        <pt x="447" y="765" on="0"/>
        <pt x="396" y="705" on="0"/>
        <pt x="383" y="695" on="1"/>
        <pt x="360" y="691" on="1"/>
        <pt x="348" y="693" on="0"/>
      </contour>
    </TTGlyph>
    <TTGlyph name="B" xMin="50" yMin="-8" xMax="557" yMax="658">
      <contour>
        <pt x="93" y="650" on="1"/>
        <pt x="279" y="658" on="1"/>
        <pt x="511" y="658" on="0"/>
        <pt x="511" y="510" on="1"/>
        <pt x="511" y="445" on="0"/>
        <pt x="435" y="380" on="0"/>
        <pt x="384" y="369" on="1"/>
        <pt x="384" y="362" on="1"/>
        <pt x="453" y="358" on="0"/>
        <pt x="557" y="273" on="0"/>
        <pt x="557" y="95" on="0"/>
        <pt x="415" y="-8" on="0"/>
        <pt x="309" y="-8" on="1"/>
        <pt x="170" y="0" on="1"/>
        <pt x="124" y="0" on="0"/>
        <pt x="57" y="-8" on="1"/>
        <pt x="50" y="25" on="1"/>
        <pt x="90" y="30" on="0"/>
        <pt x="125" y="45" on="0"/>
        <pt x="125" y="69" on="1"/>
        <pt x="125" y="578" on="1"/>
        <pt x="125" y="602" on="0"/>
        <pt x="109" y="609" on="1"/>
        <pt x="96" y="615" on="0"/>
        <pt x="60" y="620" on="1"/>
        <pt x="50" y="622" on="1"/>
        <pt x="57" y="653" on="1"/>
        <pt x="66" y="650" on="0"/>
      </contour>
      <contour>
        <pt x="214" y="324" on="1"/>
        <pt x="214" y="81" on="1"/>
        <pt x="214" y="55" on="0"/>
        <pt x="272" y="32" on="0"/>
        <pt x="306" y="32" on="1"/>
        <pt x="370" y="32" on="0"/>
        <pt x="456" y="107" on="0"/>
        <pt x="456" y="180" on="1"/>
        <pt x="456" y="324" on="0"/>
        <pt x="301" y="324" on="1"/>
      </contour>
      <contour>
        <pt x="214" y="366" on="1"/>
        <pt x="277" y="366" on="1"/>
        <pt x="341" y="366" on="0"/>
        <pt x="416" y="436" on="0"/>
        <pt x="416" y="559" on="0"/>
        <pt x="343" y="619" on="0"/>
        <pt x="279" y="619" on="1"/>
        <pt x="242" y="619" on="0"/>
        <pt x="214" y="612" on="1"/>
      </contour>
    </TTGlyph>
    <TTGlyph name="C" xMin="47" yMin="-16" xMax="620" yMax="666">
      <contour>
        <pt x="385" y="-16" on="1"/>
        <pt x="236" y="-16" on="0"/>
        <pt x="47" y="155" on="0"/>
        <pt x="47" y="461" on="0"/>
        <pt x="235" y="666" on="0"/>
        <pt x="393" y="666" on="1"/>
        <pt x="455" y="666" on="0"/>
        <pt x="543" y="650" on="0"/>
        <pt x="615" y="635" on="0"/>
        <pt x="620" y="634" on="1"/>
        <pt x="610" y="525" on="0"/>
        <pt x="593" y="463" on="1"/>
        <pt x="559" y="457" on="1"/>
        <pt x="546" y="563" on="0"/>
        <pt x="525" y="594" on="1"/>
        <pt x="477" y="620" on="0"/>
        <pt x="270" y="620" on="0"/>
        <pt x="148" y="462" on="0"/>
        <pt x="148" y="208" on="0"/>
        <pt x="285" y="30" on="0"/>
        <pt x="395" y="30" on="1"/>
        <pt x="474" y="30" on="0"/>
        <pt x="557" y="103" on="0"/>
        <pt x="581" y="186" on="1"/>
        <pt x="615" y="181" on="1"/>
        <pt x="614" y="106" on="0"/>
        <pt x="594" y="17" on="1"/>
        <pt x="497" y="-16" on="0"/>
      </contour>
    </TTGlyph>
    <TTGlyph name="Cacute" xMin="47" yMin="-16" xMax="620" yMax="833">
      <contour>
        <pt x="385" y="-16" on="1"/>
        <pt x="236" y="-16" on="0"/>
        <pt x="47" y="155" on="0"/>
        <pt x="47" y="461" on="0"/>
        <pt x="235" y="666" on="0"/>
        <pt x="393" y="666" on="1"/>
        <pt x="455" y="666" on="0"/>
        <pt x="543" y="650" on="0"/>
        <pt x="615" y="635" on="0"/>
        <pt x="620" y="634" on="1"/>
        <pt x="610" y="525" on="0"/>
        <pt x="593" y="463" on="1"/>
        <pt x="559" y="457" on="1"/>
        <pt x="546" y="563" on="0"/>
        <pt x="525" y="594" on="1"/>
        <pt x="477" y="620" on="0"/>
        <pt x="270" y="620" on="0"/>
        <pt x="148" y="462" on="0"/>
        <pt x="148" y="208" on="0"/>
        <pt x="285" y="30" on="0"/>
        <pt x="395" y="30" on="1"/>
        <pt x="474" y="30" on="0"/>
        <pt x="557" y="103" on="0"/>
        <pt x="581" y="186" on="1"/>
        <pt x="615" y="181" on="1"/>
        <pt x="614" y="106" on="0"/>
        <pt x="594" y="17" on="1"/>
        <pt x="497" y="-16" on="0"/>
      </contour>
      <contour>
        <pt x="519" y="817" on="1"/>
        <pt x="525" y="799" on="1"/>
        <pt x="337" y="681" on="1"/>
        <pt x="311" y="708" on="1"/>
        <pt x="322" y="721" on="0"/>
        <pt x="424" y="826" on="0"/>
        <pt x="435" y="833" on="1"/>
        <pt x="448" y="833" on="0"/>
        <pt x="507" y="822" on="0"/>
      </contour>
    </TTGlyph>
    <TTGlyph name="Ccaron" xMin="47" yMin="-16" xMax="620" yMax="836">
      <contour>
        <pt x="385" y="-16" on="1"/>
        <pt x="236" y="-16" on="0"/>
        <pt x="47" y="155" on="0"/>
        <pt x="47" y="461" on="0"/>
        <pt x="235" y="666" on="0"/>
        <pt x="393" y="666" on="1"/>
        <pt x="455" y="666" on="0"/>
        <pt x="543" y="650" on="0"/>
        <pt x="615" y="635" on="0"/>
        <pt x="620" y="634" on="1"/>
        <pt x="610" y="525" on="0"/>
        <pt x="593" y="463" on="1"/>
        <pt x="559" y="457" on="1"/>
        <pt x="546" y="563" on="0"/>
        <pt x="525" y="594" on="1"/>
        <pt x="477" y="620" on="0"/>
        <pt x="270" y="620" on="0"/>
        <pt x="148" y="462" on="0"/>
        <pt x="148" y="208" on="0"/>
        <pt x="285" y="30" on="0"/>
        <pt x="395" y="30" on="1"/>
        <pt x="474" y="30" on="0"/>
        <pt x="557" y="103" on="0"/>
        <pt x="581" y="186" on="1"/>
        <pt x="615" y="181" on="1"/>
        <pt x="614" y="106" on="0"/>
        <pt x="594" y="17" on="1"/>
        <pt x="497" y="-16" on="0"/>
      </contour>
      <contour>
        <pt x="418" y="686" on="0"/>
        <pt x="368" y="686" on="0"/>
        <pt x="352" y="688" on="1"/>
        <pt x="340" y="697" on="0"/>
        <pt x="256" y="804" on="0"/>
        <pt x="250" y="815" on="1"/>
        <pt x="278" y="836" on="1"/>
        <pt x="393" y="746" on="1"/>
        <pt x="508" y="836" on="1"/>
        <pt x="536" y="815" on="1"/>
        <pt x="530" y="804" on="0"/>
        <pt x="446" y="697" on="0"/>
        <pt x="434" y="688" on="1"/>
      </contour>
    </TTGlyph>
    <TTGlyph name="Ccedilla" xMin="47" yMin="-239" xMax="620" yMax="666">
      <contour>
        <pt x="47" y="299" on="1"/>
        <pt x="47" y="461" on="0"/>
        <pt x="235" y="666" on="0"/>
        <pt x="393" y="666" on="1"/>
        <pt x="455" y="666" on="0"/>
        <pt x="543" y="650" on="0"/>
        <pt x="615" y="635" on="0"/>
        <pt x="620" y="634" on="1"/>
        <pt x="610" y="525" on="0"/>
        <pt x="593" y="463" on="1"/>
        <pt x="559" y="457" on="1"/>
        <pt x="546" y="563" on="0"/>
        <pt x="525" y="594" on="1"/>
        <pt x="477" y="620" on="0"/>
        <pt x="270" y="620" on="0"/>
        <pt x="148" y="462" on="0"/>
        <pt x="148" y="208" on="0"/>
        <pt x="285" y="30" on="0"/>
        <pt x="395" y="30" on="1"/>
        <pt x="474" y="30" on="0"/>
        <pt x="557" y="103" on="0"/>
        <pt x="581" y="186" on="1"/>
        <pt x="615" y="181" on="1"/>
        <pt x="614" y="106" on="0"/>
        <pt x="594" y="17" on="1"/>
        <pt x="497" y="-16" on="0"/>
        <pt x="385" y="-16" on="1"/>
        <pt x="382" y="-16" on="1"/>
        <pt x="365" y="-71" on="1"/>
        <pt x="397" y="-71" on="0"/>
        <pt x="442" y="-116" on="0"/>
        <pt x="442" y="-191" on="0"/>
        <pt x="387" y="-238" on="0"/>
        <pt x="304" y="-240" on="0"/>
        <pt x="253" y="-211" on="1"/>
        <pt x="268" y="-180" on="1"/>
        <pt x="308" y="-198" on="0"/>
        <pt x="336" y="-198" on="1"/>
        <pt x="389" y="-198" on="0"/>
        <pt x="389" y="-158" on="1"/>
        <pt x="389" y="-132" on="0"/>
        <pt x="366" y="-118" on="1"/>
        <pt x="351" y="-110" on="0"/>
        <pt x="321" y="-110" on="0"/>
        <pt x="308" y="-113" on="1"/>
        <pt x="295" y="-92" on="1"/>
        <pt x="339" y="-13" on="1"/>
        <pt x="208" y="0" on="0"/>
        <pt x="47" y="167" on="0"/>
      </contour>
    </TTGlyph>
    <TTGlyph name="Ccircumflex" xMin="47" yMin="-16" xMax="620" yMax="831">
      <contour>
        <pt x="385" y="-16" on="1"/>
        <pt x="236" y="-16" on="0"/>
        <pt x="47" y="155" on="0"/>
        <pt x="47" y="461" on="0"/>
        <pt x="235" y="666" on="0"/>
        <pt x="393" y="666" on="1"/>
        <pt x="455" y="666" on="0"/>
        <pt x="543" y="650" on="0"/>
        <pt x="615" y="635" on="0"/>
        <pt x="620" y="634" on="1"/>
        <pt x="610" y="525" on="0"/>
        <pt x="593" y="463" on="1"/>
        <pt x="559" y="457" on="1"/>
        <pt x="546" y="563" on="0"/>
        <pt x="525" y="594" on="1"/>
        <pt x="477" y="620" on="0"/>
        <pt x="270" y="620" on="0"/>
        <pt x="148" y="462" on="0"/>
        <pt x="148" y="208" on="0"/>
        <pt x="285" y="30" on="0"/>
        <pt x="395" y="30" on="1"/>
        <pt x="474" y="30" on="0"/>
        <pt x="557" y="103" on="0"/>
        <pt x="581" y="186" on="1"/>
        <pt x="615" y="181" on="1"/>
        <pt x="614" y="106" on="0"/>
        <pt x="594" y="17" on="1"/>
        <pt x="497" y="-16" on="0"/>
      </contour>
      <contour>
        <pt x="368" y="831" on="0"/>
        <pt x="418" y="831" on="0"/>
        <pt x="434" y="829" on="1"/>
        <pt x="446" y="820" on="0"/>
        <pt x="530" y="713" on="0"/>
        <pt x="536" y="702" on="1"/>
        <pt x="508" y="681" on="1"/>
        <pt x="393" y="771" on="1"/>
        <pt x="278" y="681" on="1"/>
        <pt x="250" y="702" on="1"/>
        <pt x="256" y="713" on="0"/>
        <pt x="340" y="820" on="0"/>
        <pt x="352" y="829" on="1"/>
      </contour>
    </TTGlyph>
    <TTGlyph name="Cdot" xMin="47" yMin="-16" xMax="620" yMax="803">
      <contour>
        <pt x="385" y="-16" on="1"/>
        <pt x="236" y="-16" on="0"/>
        <pt x="47" y="155" on="0"/>
        <pt x="47" y="461" on="0"/>
        <pt x="235" y="666" on="0"/>
        <pt x="393" y="666" on="1"/>
        <pt x="455" y="666" on="0"/>
        <pt x="543" y="650" on="0"/>
        <pt x="615" y="635" on="0"/>
        <pt x="620" y="634" on="1"/>
        <pt x="610" y="525" on="0"/>
        <pt x="593" y="463" on="1"/>
        <pt x="559" y="457" on="1"/>
        <pt x="546" y="563" on="0"/>
        <pt x="525" y="594" on="1"/>
        <pt x="477" y="620" on="0"/>
        <pt x="270" y="620" on="0"/>
        <pt x="148" y="462" on="0"/>
        <pt x="148" y="208" on="0"/>
        <pt x="285" y="30" on="0"/>
        <pt x="395" y="30" on="1"/>
        <pt x="474" y="30" on="0"/>
        <pt x="557" y="103" on="0"/>
        <pt x="581" y="186" on="1"/>
        <pt x="615" y="181" on="1"/>
        <pt x="614" y="106" on="0"/>
        <pt x="594" y="17" on="1"/>
        <pt x="497" y="-16" on="0"/>
      </contour>
      <contour>
        <pt x="338" y="727" on="0"/>
        <pt x="338" y="773" on="0"/>
        <pt x="369" y="803" on="0"/>
        <pt x="418" y="803" on="0"/>
        <pt x="449" y="773" on="0"/>
        <pt x="449" y="727" on="0"/>
        <pt x="418" y="698" on="0"/>
        <pt x="369" y="698" on="0"/>
      </contour>
    </TTGlyph>
    <TTGlyph name="D" xMin="50" yMin="-8" xMax="703" yMax="660">
      <contour>
        <pt x="214" y="88" on="1"/>
        <pt x="214" y="36" on="0"/>
        <pt x="471" y="36" on="0"/>
        <pt x="602" y="194" on="0"/>
        <pt x="602" y="334" on="1"/>
        <pt x="602" y="615" on="0"/>
        <pt x="310" y="615" on="1"/>
        <pt x="250" y="615" on="0"/>
        <pt x="214" y="606" on="1"/>
      </contour>
      <contour>
        <pt x="95" y="652" on="1"/>
        <pt x="329" y="660" on="1"/>
        <pt x="500" y="660" on="0"/>
        <pt x="598" y="590" on="1"/>
        <pt x="703" y="517" on="0"/>
        <pt x="703" y="189" on="0"/>
        <pt x="519" y="-8" on="0"/>
        <pt x="357" y="-8" on="1"/>
        <pt x="311" y="-8" on="0"/>
        <pt x="185" y="0" on="0"/>
        <pt x="129" y="0" on="0"/>
        <pt x="57" y="-8" on="1"/>
        <pt x="50" y="25" on="1"/>
        <pt x="90" y="30" on="0"/>
        <pt x="125" y="45" on="0"/>
        <pt x="125" y="69" on="1"/>
        <pt x="125" y="579" on="1"/>
        <pt x="125" y="592" on="0"/>
        <pt x="120" y="601" on="0"/>
        <pt x="110" y="606" on="1"/>
        <pt x="97" y="613" on="0"/>
        <pt x="60" y="620" on="1"/>
        <pt x="50" y="622" on="1"/>
        <pt x="57" y="653" on="1"/>
        <pt x="72" y="652" on="0"/>
      </contour>
    </TTGlyph>
    <TTGlyph name="Dcaron" xMin="50" yMin="-8" xMax="703" yMax="836">
      <contour>
        <pt x="214" y="88" on="1"/>
        <pt x="214" y="36" on="0"/>
        <pt x="471" y="36" on="0"/>
        <pt x="602" y="194" on="0"/>
        <pt x="602" y="334" on="1"/>
        <pt x="602" y="615" on="0"/>
        <pt x="310" y="615" on="1"/>
        <pt x="250" y="615" on="0"/>
        <pt x="214" y="606" on="1"/>
      </contour>
      <contour>
        <pt x="95" y="652" on="1"/>
        <pt x="329" y="660" on="1"/>
        <pt x="500" y="660" on="0"/>
        <pt x="598" y="590" on="1"/>
        <pt x="703" y="517" on="0"/>
        <pt x="703" y="189" on="0"/>
        <pt x="519" y="-8" on="0"/>
        <pt x="357" y="-8" on="1"/>
        <pt x="311" y="-8" on="0"/>
        <pt x="185" y="0" on="0"/>
        <pt x="129" y="0" on="0"/>
        <pt x="57" y="-8" on="1"/>
        <pt x="50" y="25" on="1"/>
        <pt x="90" y="30" on="0"/>
        <pt x="125" y="45" on="0"/>
        <pt x="125" y="69" on="1"/>
        <pt x="125" y="579" on="1"/>
        <pt x="125" y="592" on="0"/>
        <pt x="120" y="601" on="0"/>
        <pt x="110" y="606" on="1"/>
        <pt x="97" y="613" on="0"/>
        <pt x="60" y="620" on="1"/>
        <pt x="50" y="622" on="1"/>
        <pt x="57" y="653" on="1"/>
        <pt x="72" y="652" on="0"/>
      </contour>
      <contour>
        <pt x="354" y="686" on="0"/>
        <pt x="304" y="686" on="0"/>
        <pt x="288" y="688" on="1"/>
        <pt x="276" y="697" on="0"/>
        <pt x="192" y="804" on="0"/>
        <pt x="186" y="815" on="1"/>
        <pt x="214" y="836" on="1"/>
        <pt x="329" y="746" on="1"/>
        <pt x="444" y="836" on="1"/>
        <pt x="472" y="815" on="1"/>
        <pt x="466" y="804" on="0"/>
        <pt x="382" y="697" on="0"/>
        <pt x="370" y="688" on="1"/>
      </contour>
    </TTGlyph>
    <TTGlyph name="Dcroat" xMin="46" yMin="-8" xMax="703" yMax="660">
      <contour>
        <pt x="95" y="652" on="1"/>
        <pt x="329" y="660" on="1"/>
        <pt x="500" y="660" on="0"/>
        <pt x="598" y="590" on="1"/>
        <pt x="703" y="517" on="0"/>
        <pt x="703" y="189" on="0"/>
        <pt x="519" y="-8" on="0"/>
        <pt x="357" y="-8" on="1"/>
        <pt x="311" y="-8" on="0"/>
        <pt x="185" y="0" on="0"/>
        <pt x="129" y="0" on="0"/>
        <pt x="57" y="-8" on="1"/>
        <pt x="50" y="25" on="1"/>
        <pt x="90" y="30" on="0"/>
        <pt x="125" y="45" on="0"/>
        <pt x="125" y="69" on="1"/>
        <pt x="125" y="315" on="1"/>
        <pt x="46" y="315" on="1"/>
        <pt x="55" y="361" on="1"/>
        <pt x="125" y="361" on="1"/>
        <pt x="125" y="579" on="1"/>
        <pt x="125" y="592" on="0"/>
        <pt x="120" y="601" on="0"/>
        <pt x="110" y="606" on="1"/>
        <pt x="97" y="613" on="0"/>
        <pt x="60" y="620" on="1"/>
        <pt x="50" y="622" on="1"/>
        <pt x="57" y="653" on="1"/>
        <pt x="72" y="652" on="0"/>
      </contour>
      <contour>
        <pt x="214" y="88" on="1"/>
        <pt x="214" y="36" on="0"/>
        <pt x="471" y="36" on="0"/>
        <pt x="602" y="194" on="0"/>
        <pt x="602" y="334" on="1"/>
        <pt x="602" y="615" on="0"/>
        <pt x="310" y="615" on="1"/>
        <pt x="250" y="615" on="0"/>
        <pt x="214" y="606" on="1"/>
        <pt x="214" y="361" on="1"/>
        <pt x="395" y="361" on="1"/>
        <pt x="386" y="315" on="1"/>
        <pt x="214" y="315" on="1"/>
      </contour>
    </TTGlyph>
    <TTGlyph name="E" xMin="50" yMin="-8" xMax="535" yMax="659">
      <contour>
        <pt x="214" y="312" on="1"/>
        <pt x="214" y="48" on="1"/>
        <pt x="444" y="48" on="1"/>
        <pt x="457" y="60" on="0"/>
        <pt x="492" y="147" on="0"/>
        <pt x="499" y="173" on="1"/>
        <pt x="535" y="167" on="1"/>
        <pt x="534" y="139" on="0"/>
        <pt x="520" y="20" on="0"/>
        <pt x="514" y="0" on="1"/>
        <pt x="170" y="0" on="1"/>
        <pt x="124" y="0" on="0"/>
        <pt x="57" y="-8" on="1"/>
        <pt x="50" y="25" on="1"/>
        <pt x="90" y="30" on="0"/>
        <pt x="125" y="45" on="0"/>
        <pt x="125" y="69" on="1"/>
        <pt x="125" y="583" on="1"/>
        <pt x="125" y="607" on="0"/>
        <pt x="109" y="613" on="1"/>
        <pt x="96" y="619" on="0"/>
        <pt x="60" y="624" on="1"/>
        <pt x="50" y="626" on="1"/>
        <pt x="57" y="659" on="1"/>
        <pt x="133" y="650" on="0"/>
        <pt x="170" y="650" on="1"/>
        <pt x="421" y="650" on="1"/>
        <pt x="466" y="650" on="0"/>
        <pt x="503" y="656" on="1"/>
        <pt x="506" y="620" on="0"/>
        <pt x="506" y="542" on="0"/>
        <pt x="503" y="501" on="1"/>
        <pt x="466" y="495" on="1"/>
        <pt x="452" y="580" on="0"/>
        <pt x="434" y="603" on="1"/>
        <pt x="214" y="603" on="1"/>
        <pt x="214" y="360" on="1"/>
        <pt x="364" y="360" on="1"/>
        <pt x="392" y="360" on="0"/>
        <pt x="397" y="375" on="1"/>
        <pt x="403" y="389" on="0"/>
        <pt x="408" y="422" on="1"/>
        <pt x="409" y="434" on="1"/>
        <pt x="447" y="430" on="1"/>
        <pt x="439" y="380" on="0"/>
        <pt x="439" y="292" on="0"/>
        <pt x="447" y="242" on="1"/>
        <pt x="409" y="238" on="1"/>
        <pt x="404" y="281" on="0"/>
        <pt x="391" y="312" on="0"/>
        <pt x="364" y="312" on="1"/>
      </contour>
    </TTGlyph>
    <TTGlyph name="Eacute" xMin="50" yMin="-8" xMax="535" yMax="833">
      <contour>
        <pt x="214" y="312" on="1"/>
        <pt x="214" y="48" on="1"/>
        <pt x="444" y="48" on="1"/>
        <pt x="457" y="60" on="0"/>
        <pt x="492" y="147" on="0"/>
        <pt x="499" y="173" on="1"/>
        <pt x="535" y="167" on="1"/>
        <pt x="534" y="139" on="0"/>
        <pt x="520" y="20" on="0"/>
        <pt x="514" y="0" on="1"/>
        <pt x="170" y="0" on="1"/>
        <pt x="124" y="0" on="0"/>
        <pt x="57" y="-8" on="1"/>
        <pt x="50" y="25" on="1"/>
        <pt x="90" y="30" on="0"/>
        <pt x="125" y="45" on="0"/>
        <pt x="125" y="69" on="1"/>
        <pt x="125" y="583" on="1"/>
        <pt x="125" y="607" on="0"/>
        <pt x="109" y="613" on="1"/>
        <pt x="96" y="619" on="0"/>
        <pt x="60" y="624" on="1"/>
        <pt x="50" y="626" on="1"/>
        <pt x="57" y="659" on="1"/>
        <pt x="133" y="650" on="0"/>
        <pt x="170" y="650" on="1"/>
        <pt x="421" y="650" on="1"/>
        <pt x="466" y="650" on="0"/>
        <pt x="503" y="656" on="1"/>
        <pt x="506" y="620" on="0"/>
        <pt x="506" y="542" on="0"/>
        <pt x="503" y="501" on="1"/>
        <pt x="466" y="495" on="1"/>
        <pt x="452" y="580" on="0"/>
        <pt x="434" y="603" on="1"/>
        <pt x="214" y="603" on="1"/>
        <pt x="214" y="360" on="1"/>
        <pt x="364" y="360" on="1"/>
        <pt x="392" y="360" on="0"/>
        <pt x="397" y="375" on="1"/>
        <pt x="403" y="389" on="0"/>
        <pt x="408" y="422" on="1"/>
        <pt x="409" y="434" on="1"/>
        <pt x="447" y="430" on="1"/>
        <pt x="439" y="380" on="0"/>
        <pt x="439" y="292" on="0"/>
        <pt x="447" y="242" on="1"/>
        <pt x="409" y="238" on="1"/>
        <pt x="404" y="281" on="0"/>
        <pt x="391" y="312" on="0"/>
        <pt x="364" y="312" on="1"/>
      </contour>
      <contour>
        <pt x="420" y="817" on="1"/>
        <pt x="426" y="799" on="1"/>
        <pt x="238" y="681" on="1"/>
        <pt x="212" y="708" on="1"/>
        <pt x="223" y="721" on="0"/>
        <pt x="325" y="826" on="0"/>
        <pt x="336" y="833" on="1"/>
        <pt x="349" y="833" on="0"/>
        <pt x="408" y="822" on="0"/>
      </contour>
    </TTGlyph>
    <TTGlyph name="Ebreve" xMin="50" yMin="-8" xMax="535" yMax="832">
      <contour>
        <pt x="214" y="312" on="1"/>
        <pt x="214" y="48" on="1"/>
        <pt x="444" y="48" on="1"/>
        <pt x="457" y="60" on="0"/>
        <pt x="492" y="147" on="0"/>
        <pt x="499" y="173" on="1"/>
        <pt x="535" y="167" on="1"/>
        <pt x="534" y="139" on="0"/>
        <pt x="520" y="20" on="0"/>
        <pt x="514" y="0" on="1"/>
        <pt x="170" y="0" on="1"/>
        <pt x="124" y="0" on="0"/>
        <pt x="57" y="-8" on="1"/>
        <pt x="50" y="25" on="1"/>
        <pt x="90" y="30" on="0"/>
        <pt x="125" y="45" on="0"/>
        <pt x="125" y="69" on="1"/>
        <pt x="125" y="583" on="1"/>
        <pt x="125" y="607" on="0"/>
        <pt x="109" y="613" on="1"/>
        <pt x="96" y="619" on="0"/>
        <pt x="60" y="624" on="1"/>
        <pt x="50" y="626" on="1"/>
        <pt x="57" y="659" on="1"/>
        <pt x="133" y="650" on="0"/>
        <pt x="170" y="650" on="1"/>
        <pt x="421" y="650" on="1"/>
        <pt x="466" y="650" on="0"/>
        <pt x="503" y="656" on="1"/>
        <pt x="506" y="620" on="0"/>
        <pt x="506" y="542" on="0"/>
        <pt x="503" y="501" on="1"/>
        <pt x="466" y="495" on="1"/>
        <pt x="452" y="580" on="0"/>
        <pt x="434" y="603" on="1"/>
        <pt x="214" y="603" on="1"/>
        <pt x="214" y="360" on="1"/>
        <pt x="364" y="360" on="1"/>
        <pt x="392" y="360" on="0"/>
        <pt x="397" y="375" on="1"/>
        <pt x="403" y="389" on="0"/>
        <pt x="408" y="422" on="1"/>
        <pt x="409" y="434" on="1"/>
        <pt x="447" y="430" on="1"/>
        <pt x="439" y="380" on="0"/>
        <pt x="439" y="292" on="0"/>
        <pt x="447" y="242" on="1"/>
        <pt x="409" y="238" on="1"/>
        <pt x="404" y="281" on="0"/>
        <pt x="391" y="312" on="0"/>
        <pt x="364" y="312" on="1"/>
      </contour>
      <contour>
        <pt x="427" y="764" on="0"/>
        <pt x="356" y="688" on="0"/>
        <pt x="239" y="688" on="0"/>
        <pt x="173" y="762" on="0"/>
        <pt x="173" y="823" on="1"/>
        <pt x="204" y="832" on="1"/>
        <pt x="219" y="753" on="0"/>
        <pt x="381" y="753" on="0"/>
        <pt x="396" y="832" on="1"/>
        <pt x="427" y="823" on="1"/>
      </contour>
    </TTGlyph>
    <TTGlyph name="Ecaron" xMin="50" yMin="-8" xMax="535" yMax="836">
      <contour>
        <pt x="214" y="312" on="1"/>
        <pt x="214" y="48" on="1"/>
        <pt x="444" y="48" on="1"/>
        <pt x="457" y="60" on="0"/>
        <pt x="492" y="147" on="0"/>
        <pt x="499" y="173" on="1"/>
        <pt x="535" y="167" on="1"/>
        <pt x="534" y="139" on="0"/>
        <pt x="520" y="20" on="0"/>
        <pt x="514" y="0" on="1"/>
        <pt x="170" y="0" on="1"/>
        <pt x="124" y="0" on="0"/>
        <pt x="57" y="-8" on="1"/>
        <pt x="50" y="25" on="1"/>
        <pt x="90" y="30" on="0"/>
        <pt x="125" y="45" on="0"/>
        <pt x="125" y="69" on="1"/>
        <pt x="125" y="583" on="1"/>
        <pt x="125" y="607" on="0"/>
        <pt x="109" y="613" on="1"/>
        <pt x="96" y="619" on="0"/>
        <pt x="60" y="624" on="1"/>
        <pt x="50" y="626" on="1"/>
        <pt x="57" y="659" on="1"/>
        <pt x="133" y="650" on="0"/>
        <pt x="170" y="650" on="1"/>
        <pt x="421" y="650" on="1"/>
        <pt x="466" y="650" on="0"/>
        <pt x="503" y="656" on="1"/>
        <pt x="506" y="620" on="0"/>
        <pt x="506" y="542" on="0"/>
        <pt x="503" y="501" on="1"/>
        <pt x="466" y="495" on="1"/>
        <pt x="452" y="580" on="0"/>
        <pt x="434" y="603" on="1"/>
        <pt x="214" y="603" on="1"/>
        <pt x="214" y="360" on="1"/>
        <pt x="364" y="360" on="1"/>
        <pt x="392" y="360" on="0"/>
        <pt x="397" y="375" on="1"/>
        <pt x="403" y="389" on="0"/>
        <pt x="408" y="422" on="1"/>
        <pt x="409" y="434" on="1"/>
        <pt x="447" y="430" on="1"/>
        <pt x="439" y="380" on="0"/>
        <pt x="439" y="292" on="0"/>
        <pt x="447" y="242" on="1"/>
        <pt x="409" y="238" on="1"/>
        <pt x="404" y="281" on="0"/>
        <pt x="391" y="312" on="0"/>
        <pt x="364" y="312" on="1"/>
      </contour>
      <contour>
        <pt x="319" y="686" on="0"/>
        <pt x="269" y="686" on="0"/>
        <pt x="253" y="688" on="1"/>
        <pt x="241" y="697" on="0"/>
        <pt x="157" y="804" on="0"/>
        <pt x="151" y="815" on="1"/>
        <pt x="179" y="836" on="1"/>
        <pt x="294" y="746" on="1"/>
        <pt x="409" y="836" on="1"/>
        <pt x="437" y="815" on="1"/>
        <pt x="431" y="804" on="0"/>
        <pt x="347" y="697" on="0"/>
        <pt x="335" y="688" on="1"/>
      </contour>
    </TTGlyph>
    <TTGlyph name="Ecircumflex" xMin="50" yMin="-8" xMax="535" yMax="831">
      <contour>
        <pt x="214" y="312" on="1"/>
        <pt x="214" y="48" on="1"/>
        <pt x="444" y="48" on="1"/>
        <pt x="457" y="60" on="0"/>
        <pt x="492" y="147" on="0"/>
        <pt x="499" y="173" on="1"/>
        <pt x="535" y="167" on="1"/>
        <pt x="534" y="139" on="0"/>
        <pt x="520" y="20" on="0"/>
        <pt x="514" y="0" on="1"/>
        <pt x="170" y="0" on="1"/>
        <pt x="124" y="0" on="0"/>
        <pt x="57" y="-8" on="1"/>
        <pt x="50" y="25" on="1"/>
        <pt x="90" y="30" on="0"/>
        <pt x="125" y="45" on="0"/>
        <pt x="125" y="69" on="1"/>
        <pt x="125" y="583" on="1"/>
        <pt x="125" y="607" on="0"/>
        <pt x="109" y="613" on="1"/>
        <pt x="96" y="619" on="0"/>
        <pt x="60" y="624" on="1"/>
        <pt x="50" y="626" on="1"/>
        <pt x="57" y="659" on="1"/>
        <pt x="133" y="650" on="0"/>
        <pt x="170" y="650" on="1"/>
        <pt x="421" y="650" on="1"/>
        <pt x="466" y="650" on="0"/>
        <pt x="503" y="656" on="1"/>
        <pt x="506" y="620" on="0"/>
        <pt x="506" y="542" on="0"/>
        <pt x="503" y="501" on="1"/>
        <pt x="466" y="495" on="1"/>
        <pt x="452" y="580" on="0"/>
        <pt x="434" y="603" on="1"/>
        <pt x="214" y="603" on="1"/>
        <pt x="214" y="360" on="1"/>
        <pt x="364" y="360" on="1"/>
        <pt x="392" y="360" on="0"/>
        <pt x="397" y="375" on="1"/>
        <pt x="403" y="389" on="0"/>
        <pt x="408" y="422" on="1"/>
        <pt x="409" y="434" on="1"/>
        <pt x="447" y="430" on="1"/>
        <pt x="439" y="380" on="0"/>
        <pt x="439" y="292" on="0"/>
        <pt x="447" y="242" on="1"/>
        <pt x="409" y="238" on="1"/>
        <pt x="404" y="281" on="0"/>
        <pt x="391" y="312" on="0"/>
        <pt x="364" y="312" on="1"/>
      </contour>
      <contour>
        <pt x="269" y="831" on="0"/>
        <pt x="319" y="831" on="0"/>
        <pt x="335" y="829" on="1"/>
        <pt x="347" y="820" on="0"/>
        <pt x="431" y="713" on="0"/>
        <pt x="437" y="702" on="1"/>
        <pt x="409" y="681" on="1"/>
        <pt x="294" y="771" on="1"/>
        <pt x="179" y="681" on="1"/>
        <pt x="151" y="702" on="1"/>
        <pt x="157" y="713" on="0"/>
        <pt x="241" y="820" on="0"/>
        <pt x="253" y="829" on="1"/>
      </contour>
    </TTGlyph>
    <TTGlyph name="Edieresis" xMin="50" yMin="-8" xMax="535" yMax="791">
      <contour>
        <pt x="214" y="312" on="1"/>
        <pt x="214" y="48" on="1"/>
        <pt x="444" y="48" on="1"/>
        <pt x="457" y="60" on="0"/>
        <pt x="492" y="147" on="0"/>
        <pt x="499" y="173" on="1"/>
        <pt x="535" y="167" on="1"/>
        <pt x="534" y="139" on="0"/>
        <pt x="520" y="20" on="0"/>
        <pt x="514" y="0" on="1"/>
        <pt x="170" y="0" on="1"/>
        <pt x="124" y="0" on="0"/>
        <pt x="57" y="-8" on="1"/>
        <pt x="50" y="25" on="1"/>
        <pt x="90" y="30" on="0"/>
        <pt x="125" y="45" on="0"/>
        <pt x="125" y="69" on="1"/>
        <pt x="125" y="583" on="1"/>
        <pt x="125" y="607" on="0"/>
        <pt x="109" y="613" on="1"/>
        <pt x="96" y="619" on="0"/>
        <pt x="60" y="624" on="1"/>
        <pt x="50" y="626" on="1"/>
        <pt x="57" y="659" on="1"/>
        <pt x="133" y="650" on="0"/>
        <pt x="170" y="650" on="1"/>
        <pt x="421" y="650" on="1"/>
        <pt x="466" y="650" on="0"/>
        <pt x="503" y="656" on="1"/>
        <pt x="506" y="620" on="0"/>
        <pt x="506" y="542" on="0"/>
        <pt x="503" y="501" on="1"/>
        <pt x="466" y="495" on="1"/>
        <pt x="452" y="580" on="0"/>
        <pt x="434" y="603" on="1"/>
        <pt x="214" y="603" on="1"/>
        <pt x="214" y="360" on="1"/>
        <pt x="364" y="360" on="1"/>
        <pt x="392" y="360" on="0"/>
        <pt x="397" y="375" on="1"/>
        <pt x="403" y="389" on="0"/>
        <pt x="408" y="422" on="1"/>
        <pt x="409" y="434" on="1"/>
        <pt x="447" y="430" on="1"/>
        <pt x="439" y="380" on="0"/>
        <pt x="439" y="292" on="0"/>
        <pt x="447" y="242" on="1"/>
        <pt x="409" y="238" on="1"/>
        <pt x="404" y="281" on="0"/>
        <pt x="391" y="312" on="0"/>
        <pt x="364" y="312" on="1"/>
      </contour>
      <contour>
        <pt x="142" y="715" on="0"/>
        <pt x="142" y="761" on="0"/>
        <pt x="173" y="791" on="0"/>
        <pt x="222" y="791" on="0"/>
        <pt x="253" y="761" on="0"/>
        <pt x="253" y="715" on="0"/>
        <pt x="222" y="686" on="0"/>
        <pt x="173" y="686" on="0"/>
      </contour>
      <contour>
        <pt x="334" y="715" on="0"/>
        <pt x="334" y="761" on="0"/>
        <pt x="365" y="791" on="0"/>
        <pt x="414" y="791" on="0"/>
        <pt x="445" y="761" on="0"/>
        <pt x="445" y="715" on="0"/>
        <pt x="414" y="686" on="0"/>
        <pt x="365" y="686" on="0"/>
      </contour>
    </TTGlyph>
    <TTGlyph name="Edot" xMin="50" yMin="-8" xMax="535" yMax="803">
      <contour>
        <pt x="214" y="312" on="1"/>
        <pt x="214" y="48" on="1"/>
        <pt x="444" y="48" on="1"/>
        <pt x="457" y="60" on="0"/>
        <pt x="492" y="147" on="0"/>
        <pt x="499" y="173" on="1"/>
        <pt x="535" y="167" on="1"/>
        <pt x="534" y="139" on="0"/>
        <pt x="520" y="20" on="0"/>
        <pt x="514" y="0" on="1"/>
        <pt x="170" y="0" on="1"/>
        <pt x="124" y="0" on="0"/>
        <pt x="57" y="-8" on="1"/>
        <pt x="50" y="25" on="1"/>
        <pt x="90" y="30" on="0"/>
        <pt x="125" y="45" on="0"/>
        <pt x="125" y="69" on="1"/>
        <pt x="125" y="583" on="1"/>
        <pt x="125" y="607" on="0"/>
        <pt x="109" y="613" on="1"/>
        <pt x="96" y="619" on="0"/>
        <pt x="60" y="624" on="1"/>
        <pt x="50" y="626" on="1"/>
        <pt x="57" y="659" on="1"/>
        <pt x="133" y="650" on="0"/>
        <pt x="170" y="650" on="1"/>
        <pt x="421" y="650" on="1"/>
        <pt x="466" y="650" on="0"/>
        <pt x="503" y="656" on="1"/>
        <pt x="506" y="620" on="0"/>
        <pt x="506" y="542" on="0"/>
        <pt x="503" y="501" on="1"/>
        <pt x="466" y="495" on="1"/>
        <pt x="452" y="580" on="0"/>
        <pt x="434" y="603" on="1"/>
        <pt x="214" y="603" on="1"/>
        <pt x="214" y="360" on="1"/>
        <pt x="364" y="360" on="1"/>
        <pt x="392" y="360" on="0"/>
        <pt x="397" y="375" on="1"/>
        <pt x="403" y="389" on="0"/>
        <pt x="408" y="422" on="1"/>
        <pt x="409" y="434" on="1"/>
        <pt x="447" y="430" on="1"/>
        <pt x="439" y="380" on="0"/>
        <pt x="439" y="292" on="0"/>
        <pt x="447" y="242" on="1"/>
        <pt x="409" y="238" on="1"/>
        <pt x="404" y="281" on="0"/>
        <pt x="391" y="312" on="0"/>
        <pt x="364" y="312" on="1"/>
      </contour>
      <contour>
        <pt x="239" y="727" on="0"/>
        <pt x="239" y="773" on="0"/>
        <pt x="270" y="803" on="0"/>
        <pt x="319" y="803" on="0"/>
        <pt x="350" y="773" on="0"/>
        <pt x="350" y="727" on="0"/>
        <pt x="319" y="698" on="0"/>
        <pt x="270" y="698" on="0"/>
      </contour>
    </TTGlyph>
    <TTGlyph name="Egrave" xMin="50" yMin="-8" xMax="535" yMax="833">
      <contour>
        <pt x="214" y="312" on="1"/>
        <pt x="214" y="48" on="1"/>
        <pt x="444" y="48" on="1"/>
        <pt x="457" y="60" on="0"/>
        <pt x="492" y="147" on="0"/>
        <pt x="499" y="173" on="1"/>
        <pt x="535" y="167" on="1"/>
        <pt x="534" y="139" on="0"/>
        <pt x="520" y="20" on="0"/>
        <pt x="514" y="0" on="1"/>
        <pt x="170" y="0" on="1"/>
        <pt x="124" y="0" on="0"/>
        <pt x="57" y="-8" on="1"/>
        <pt x="50" y="25" on="1"/>
        <pt x="90" y="30" on="0"/>
        <pt x="125" y="45" on="0"/>
        <pt x="125" y="69" on="1"/>
        <pt x="125" y="583" on="1"/>
        <pt x="125" y="607" on="0"/>
        <pt x="109" y="613" on="1"/>
        <pt x="96" y="619" on="0"/>
        <pt x="60" y="624" on="1"/>
        <pt x="50" y="626" on="1"/>
        <pt x="57" y="659" on="1"/>
        <pt x="133" y="650" on="0"/>
        <pt x="170" y="650" on="1"/>
        <pt x="421" y="650" on="1"/>
        <pt x="466" y="650" on="0"/>
        <pt x="503" y="656" on="1"/>
        <pt x="506" y="620" on="0"/>
        <pt x="506" y="542" on="0"/>
        <pt x="503" y="501" on="1"/>
        <pt x="466" y="495" on="1"/>
        <pt x="452" y="580" on="0"/>
        <pt x="434" y="603" on="1"/>
        <pt x="214" y="603" on="1"/>
        <pt x="214" y="360" on="1"/>
        <pt x="364" y="360" on="1"/>
        <pt x="392" y="360" on="0"/>
        <pt x="397" y="375" on="1"/>
        <pt x="403" y="389" on="0"/>
        <pt x="408" y="422" on="1"/>
        <pt x="409" y="434" on="1"/>
        <pt x="447" y="430" on="1"/>
        <pt x="439" y="380" on="0"/>
        <pt x="439" y="292" on="0"/>
        <pt x="447" y="242" on="1"/>
        <pt x="409" y="238" on="1"/>
        <pt x="404" y="281" on="0"/>
        <pt x="391" y="312" on="0"/>
        <pt x="364" y="312" on="1"/>
      </contour>
      <contour>
        <pt x="147" y="799" on="1"/>
        <pt x="153" y="817" on="1"/>
        <pt x="165" y="822" on="0"/>
        <pt x="224" y="833" on="0"/>
        <pt x="237" y="833" on="1"/>
        <pt x="248" y="826" on="0"/>
        <pt x="350" y="721" on="0"/>
        <pt x="361" y="708" on="1"/>
        <pt x="335" y="681" on="1"/>
      </contour>
    </TTGlyph>
    <TTGlyph name="Emacron" xMin="50" yMin="-8" xMax="535" yMax="764">
      <contour>
        <pt x="214" y="312" on="1"/>
        <pt x="214" y="48" on="1"/>
        <pt x="444" y="48" on="1"/>
        <pt x="457" y="60" on="0"/>
        <pt x="492" y="147" on="0"/>
        <pt x="499" y="173" on="1"/>
        <pt x="535" y="167" on="1"/>
        <pt x="534" y="139" on="0"/>
        <pt x="520" y="20" on="0"/>
        <pt x="514" y="0" on="1"/>
        <pt x="170" y="0" on="1"/>
        <pt x="124" y="0" on="0"/>
        <pt x="57" y="-8" on="1"/>
        <pt x="50" y="25" on="1"/>
        <pt x="90" y="30" on="0"/>
        <pt x="125" y="45" on="0"/>
        <pt x="125" y="69" on="1"/>
        <pt x="125" y="583" on="1"/>
        <pt x="125" y="607" on="0"/>
        <pt x="109" y="613" on="1"/>
        <pt x="96" y="619" on="0"/>
        <pt x="60" y="624" on="1"/>
        <pt x="50" y="626" on="1"/>
        <pt x="57" y="659" on="1"/>
        <pt x="133" y="650" on="0"/>
        <pt x="170" y="650" on="1"/>
        <pt x="421" y="650" on="1"/>
        <pt x="466" y="650" on="0"/>
        <pt x="503" y="656" on="1"/>
        <pt x="506" y="620" on="0"/>
        <pt x="506" y="542" on="0"/>
        <pt x="503" y="501" on="1"/>
        <pt x="466" y="495" on="1"/>
        <pt x="452" y="580" on="0"/>
        <pt x="434" y="603" on="1"/>
        <pt x="214" y="603" on="1"/>
        <pt x="214" y="360" on="1"/>
        <pt x="364" y="360" on="1"/>
        <pt x="392" y="360" on="0"/>
        <pt x="397" y="375" on="1"/>
        <pt x="403" y="389" on="0"/>
        <pt x="408" y="422" on="1"/>
        <pt x="409" y="434" on="1"/>
        <pt x="447" y="430" on="1"/>
        <pt x="439" y="380" on="0"/>
        <pt x="439" y="292" on="0"/>
        <pt x="447" y="242" on="1"/>
        <pt x="409" y="238" on="1"/>
        <pt x="404" y="281" on="0"/>
        <pt x="391" y="312" on="0"/>
        <pt x="364" y="312" on="1"/>
      </contour>
      <contour>
        <pt x="163" y="703" on="1"/>
        <pt x="174" y="764" on="1"/>
        <pt x="424" y="764" on="1"/>
        <pt x="413" y="703" on="1"/>
      </contour>
    </TTGlyph>
    <TTGlyph name="Eng" xMin="50" yMin="-260" xMax="732" yMax="659">
      <contour>
        <pt x="578" y="-5" on="1"/>
        <pt x="578" y="14" on="0"/>
        <pt x="504" y="138" on="0"/>
        <pt x="475" y="178" on="1"/>
        <pt x="232" y="507" on="1"/>
        <pt x="215" y="531" on="0"/>
        <pt x="201" y="561" on="1"/>
        <pt x="196" y="572" on="1"/>
        <pt x="191" y="568" on="1"/>
        <pt x="191" y="77" on="1"/>
        <pt x="191" y="62" on="0"/>
        <pt x="199" y="46" on="0"/>
        <pt x="213" y="42" on="1"/>
        <pt x="296" y="28" on="1"/>
        <pt x="289" y="-8" on="1"/>
        <pt x="219" y="0" on="0"/>
        <pt x="131" y="0" on="0"/>
        <pt x="57" y="-8" on="1"/>
        <pt x="50" y="25" on="1"/>
        <pt x="90" y="30" on="0"/>
        <pt x="125" y="45" on="0"/>
        <pt x="125" y="69" on="1"/>
        <pt x="125" y="583" on="1"/>
        <pt x="125" y="607" on="0"/>
        <pt x="109" y="613" on="1"/>
        <pt x="95" y="620" on="0"/>
        <pt x="61" y="624" on="1"/>
        <pt x="50" y="626" on="1"/>
        <pt x="57" y="659" on="1"/>
        <pt x="104" y="650" on="0"/>
        <pt x="200" y="650" on="0"/>
        <pt x="241" y="659" on="1"/>
        <pt x="262" y="619" on="0"/>
        <pt x="303" y="563" on="1"/>
        <pt x="554" y="216" on="1"/>
        <pt x="571" y="191" on="0"/>
        <pt x="582" y="157" on="1"/>
        <pt x="586" y="145" on="1"/>
        <pt x="591" y="149" on="1"/>
        <pt x="591" y="580" on="1"/>
        <pt x="591" y="603" on="0"/>
        <pt x="574" y="610" on="1"/>
        <pt x="558" y="618" on="0"/>
        <pt x="520" y="622" on="1"/>
        <pt x="507" y="624" on="1"/>
        <pt x="514" y="659" on="1"/>
        <pt x="590" y="650" on="0"/>
        <pt x="651" y="650" on="0"/>
        <pt x="725" y="659" on="1"/>
        <pt x="732" y="626" on="1"/>
        <pt x="693" y="621" on="0"/>
        <pt x="657" y="606" on="0"/>
        <pt x="657" y="583" on="1"/>
        <pt x="657" y="50" on="1"/>
        <pt x="657" y="-29" on="0"/>
        <pt x="626" y="-125" on="0"/>
        <pt x="567" y="-189" on="1"/>
        <pt x="495" y="-260" on="1"/>
        <pt x="471" y="-235" on="1"/>
        <pt x="578" y="-114" on="0"/>
      </contour>
    </TTGlyph>
    <TTGlyph name="Eogonek" xMin="50" yMin="-240" xMax="535" yMax="659">
      <contour>
        <pt x="380" y="-143" on="1"/>
        <pt x="380" y="-162" on="0"/>
        <pt x="403" y="-190" on="0"/>
        <pt x="452" y="-190" on="0"/>
        <pt x="484" y="-176" on="1"/>
        <pt x="499" y="-206" on="1"/>
        <pt x="449" y="-240" on="0"/>
        <pt x="362" y="-240" on="0"/>
        <pt x="310" y="-193" on="0"/>
        <pt x="310" y="-151" on="1"/>
        <pt x="310" y="-129" on="0"/>
        <pt x="325" y="-93" on="0"/>
        <pt x="347" y="-72" on="1"/>
        <pt x="372" y="-47" on="0"/>
        <pt x="432" y="0" on="1"/>
        <pt x="170" y="0" on="1"/>
        <pt x="124" y="0" on="0"/>
        <pt x="57" y="-8" on="1"/>
        <pt x="50" y="25" on="1"/>
        <pt x="90" y="30" on="0"/>
        <pt x="125" y="45" on="0"/>
        <pt x="125" y="69" on="1"/>
        <pt x="125" y="583" on="1"/>
        <pt x="125" y="607" on="0"/>
        <pt x="109" y="613" on="1"/>
        <pt x="96" y="619" on="0"/>
        <pt x="60" y="624" on="1"/>
        <pt x="50" y="626" on="1"/>
        <pt x="57" y="659" on="1"/>
        <pt x="133" y="650" on="0"/>
        <pt x="170" y="650" on="1"/>
        <pt x="421" y="650" on="1"/>
        <pt x="466" y="650" on="0"/>
        <pt x="503" y="656" on="1"/>
        <pt x="506" y="620" on="0"/>
        <pt x="506" y="542" on="0"/>
        <pt x="503" y="501" on="1"/>
        <pt x="466" y="495" on="1"/>
        <pt x="452" y="580" on="0"/>
        <pt x="434" y="603" on="1"/>
        <pt x="214" y="603" on="1"/>
        <pt x="214" y="360" on="1"/>
        <pt x="364" y="360" on="1"/>
        <pt x="392" y="360" on="0"/>
        <pt x="397" y="375" on="1"/>
        <pt x="403" y="389" on="0"/>
        <pt x="408" y="422" on="1"/>
        <pt x="409" y="434" on="1"/>
        <pt x="447" y="430" on="1"/>
        <pt x="439" y="380" on="0"/>
        <pt x="439" y="292" on="0"/>
        <pt x="447" y="242" on="1"/>
        <pt x="409" y="238" on="1"/>
        <pt x="404" y="281" on="0"/>
        <pt x="391" y="312" on="0"/>
        <pt x="364" y="312" on="1"/>
        <pt x="214" y="312" on="1"/>
        <pt x="214" y="48" on="1"/>
        <pt x="444" y="48" on="1"/>
        <pt x="457" y="60" on="0"/>
        <pt x="492" y="147" on="0"/>
        <pt x="499" y="173" on="1"/>
        <pt x="535" y="167" on="1"/>
        <pt x="534" y="139" on="0"/>
        <pt x="520" y="20" on="0"/>
        <pt x="514" y="0" on="1"/>
        <pt x="473" y="0" on="1"/>
        <pt x="380" y="-81" on="0"/>
      </contour>
    </TTGlyph>
    <TTGlyph name="Eth" xMin="46" yMin="-8" xMax="703" yMax="660">
      <contour>
        <pt x="95" y="652" on="1"/>
        <pt x="329" y="660" on="1"/>
        <pt x="500" y="660" on="0"/>
        <pt x="598" y="590" on="1"/>
        <pt x="703" y="517" on="0"/>
        <pt x="703" y="189" on="0"/>
        <pt x="519" y="-8" on="0"/>
        <pt x="357" y="-8" on="1"/>
        <pt x="311" y="-8" on="0"/>
        <pt x="185" y="0" on="0"/>
        <pt x="129" y="0" on="0"/>
        <pt x="57" y="-8" on="1"/>
        <pt x="50" y="25" on="1"/>
        <pt x="90" y="30" on="0"/>
        <pt x="125" y="45" on="0"/>
        <pt x="125" y="69" on="1"/>
        <pt x="125" y="315" on="1"/>
        <pt x="46" y="315" on="1"/>
        <pt x="55" y="361" on="1"/>
        <pt x="125" y="361" on="1"/>
        <pt x="125" y="579" on="1"/>
        <pt x="125" y="592" on="0"/>
        <pt x="120" y="601" on="0"/>
        <pt x="110" y="606" on="1"/>
        <pt x="97" y="613" on="0"/>
        <pt x="60" y="620" on="1"/>
        <pt x="50" y="622" on="1"/>
        <pt x="57" y="653" on="1"/>
        <pt x="72" y="652" on="0"/>
      </contour>
      <contour>
        <pt x="214" y="88" on="1"/>
        <pt x="214" y="36" on="0"/>
        <pt x="471" y="36" on="0"/>
        <pt x="602" y="194" on="0"/>
        <pt x="602" y="334" on="1"/>
        <pt x="602" y="615" on="0"/>
        <pt x="310" y="615" on="1"/>
        <pt x="250" y="615" on="0"/>
        <pt x="214" y="606" on="1"/>
        <pt x="214" y="361" on="1"/>
        <pt x="395" y="361" on="1"/>
        <pt x="386" y="315" on="1"/>
        <pt x="214" y="315" on="1"/>
      </contour>
    </TTGlyph>
    <TTGlyph name="Euro" xMin="-5" yMin="-16" xMax="552" yMax="610">
      <contour>
        <pt x="364" y="610" on="1"/>
        <pt x="408" y="610" on="0"/>
        <pt x="468" y="599" on="0"/>
        <pt x="480" y="597" on="1"/>
        <pt x="518" y="591" on="0"/>
        <pt x="552" y="581" on="1"/>
        <pt x="541" y="474" on="0"/>
        <pt x="527" y="422" on="1"/>
        <pt x="496" y="416" on="1"/>
        <pt x="485" y="508" on="0"/>
        <pt x="465" y="542" on="1"/>
        <pt x="424" y="566" on="0"/>
        <pt x="277" y="566" on="0"/>
        <pt x="184" y="465" on="0"/>
        <pt x="170" y="376" on="1"/>
        <pt x="357" y="376" on="1"/>
        <pt x="349" y="334" on="1"/>
        <pt x="166" y="334" on="1"/>
        <pt x="165" y="323" on="0"/>
        <pt x="165" y="301" on="1"/>
        <pt x="165" y="281" on="1"/>
        <pt x="343" y="281" on="1"/>
        <pt x="335" y="239" on="1"/>
        <pt x="170" y="239" on="1"/>
        <pt x="184" y="148" on="0"/>
        <pt x="288" y="28" on="0"/>
        <pt x="429" y="28" on="0"/>
        <pt x="497" y="95" on="0"/>
        <pt x="516" y="171" on="1"/>
        <pt x="547" y="167" on="1"/>
        <pt x="546" y="104" on="0"/>
        <pt x="528" y="14" on="1"/>
        <pt x="444" y="-16" on="0"/>
        <pt x="356" y="-16" on="1"/>
        <pt x="239" y="-16" on="0"/>
        <pt x="82" y="121" on="0"/>
        <pt x="71" y="239" on="1"/>
        <pt x="-5" y="239" on="1"/>
        <pt x="3" y="281" on="1"/>
        <pt x="70" y="281" on="1"/>
        <pt x="70" y="300" on="0"/>
        <pt x="74" y="334" on="1"/>
        <pt x="9" y="334" on="1"/>
        <pt x="17" y="376" on="1"/>
        <pt x="81" y="376" on="1"/>
        <pt x="106" y="483" on="0"/>
        <pt x="255" y="610" on="0"/>
      </contour>
    </TTGlyph>
    <TTGlyph name="F" xMin="50" yMin="-8" xMax="497" yMax="659">
      <contour>
        <pt x="345" y="308" on="1"/>
        <pt x="214" y="308" on="1"/>
        <pt x="214" y="77" on="1"/>
        <pt x="214" y="62" on="0"/>
        <pt x="222" y="46" on="0"/>
        <pt x="236" y="42" on="1"/>
        <pt x="319" y="28" on="1"/>
        <pt x="312" y="-8" on="1"/>
        <pt x="242" y="0" on="0"/>
        <pt x="131" y="0" on="0"/>
        <pt x="57" y="-8" on="1"/>
        <pt x="50" y="25" on="1"/>
        <pt x="90" y="30" on="0"/>
        <pt x="125" y="45" on="0"/>
        <pt x="125" y="69" on="1"/>
        <pt x="125" y="583" on="1"/>
        <pt x="125" y="608" on="0"/>
        <pt x="109" y="613" on="1"/>
        <pt x="83" y="622" on="0"/>
        <pt x="50" y="626" on="1"/>
        <pt x="57" y="659" on="1"/>
        <pt x="133" y="650" on="0"/>
        <pt x="170" y="650" on="1"/>
        <pt x="411" y="650" on="1"/>
        <pt x="455" y="650" on="0"/>
        <pt x="493" y="656" on="1"/>
        <pt x="496" y="628" on="0"/>
        <pt x="496" y="547" on="0"/>
        <pt x="494" y="499" on="1"/>
        <pt x="457" y="493" on="1"/>
        <pt x="438" y="585" on="0"/>
        <pt x="423" y="603" on="1"/>
        <pt x="214" y="603" on="1"/>
        <pt x="214" y="356" on="1"/>
        <pt x="345" y="356" on="1"/>
        <pt x="373" y="356" on="0"/>
        <pt x="378" y="371" on="1"/>
        <pt x="384" y="385" on="0"/>
        <pt x="388" y="418" on="1"/>
        <pt x="390" y="430" on="1"/>
        <pt x="428" y="426" on="1"/>
        <pt x="420" y="376" on="0"/>
        <pt x="420" y="288" on="0"/>
        <pt x="428" y="238" on="1"/>
        <pt x="390" y="234" on="1"/>
        <pt x="385" y="277" on="0"/>
        <pt x="372" y="308" on="0"/>
      </contour>
    </TTGlyph>
    <TTGlyph name="G" xMin="47" yMin="-16" xMax="664" yMax="666">
      <contour>
        <pt x="514" y="202" on="1"/>
        <pt x="514" y="217" on="0"/>
        <pt x="506" y="233" on="0"/>
        <pt x="492" y="237" on="1"/>
        <pt x="416" y="251" on="1"/>
        <pt x="423" y="287" on="1"/>
        <pt x="493" y="279" on="0"/>
        <pt x="621" y="279" on="0"/>
        <pt x="658" y="287" on="1"/>
        <pt x="664" y="254" on="1"/>
        <pt x="634" y="248" on="0"/>
        <pt x="603" y="234" on="0"/>
        <pt x="603" y="210" on="1"/>
        <pt x="603" y="19" on="1"/>
        <pt x="511" y="-16" on="0"/>
        <pt x="385" y="-16" on="1"/>
        <pt x="236" y="-16" on="0"/>
        <pt x="47" y="155" on="0"/>
        <pt x="47" y="461" on="0"/>
        <pt x="235" y="666" on="0"/>
        <pt x="393" y="666" on="1"/>
        <pt x="447" y="666" on="0"/>
        <pt x="519" y="654" on="0"/>
        <pt x="544" y="650" on="0"/>
        <pt x="612" y="635" on="0"/>
        <pt x="619" y="634" on="1"/>
        <pt x="609" y="535" on="0"/>
        <pt x="593" y="473" on="1"/>
        <pt x="559" y="467" on="1"/>
        <pt x="547" y="562" on="0"/>
        <pt x="526" y="594" on="1"/>
        <pt x="478" y="620" on="0"/>
        <pt x="270" y="620" on="0"/>
        <pt x="148" y="462" on="0"/>
        <pt x="148" y="208" on="0"/>
        <pt x="285" y="30" on="0"/>
        <pt x="395" y="30" on="1"/>
        <pt x="469" y="30" on="0"/>
        <pt x="514" y="56" on="1"/>
      </contour>
    </TTGlyph>
    <TTGlyph name="Gbreve" xMin="47" yMin="-16" xMax="664" yMax="832">
      <contour>
        <pt x="514" y="202" on="1"/>
        <pt x="514" y="217" on="0"/>
        <pt x="506" y="233" on="0"/>
        <pt x="492" y="237" on="1"/>
        <pt x="416" y="251" on="1"/>
        <pt x="423" y="287" on="1"/>
        <pt x="493" y="279" on="0"/>
        <pt x="621" y="279" on="0"/>
        <pt x="658" y="287" on="1"/>
        <pt x="664" y="254" on="1"/>
        <pt x="634" y="248" on="0"/>
        <pt x="603" y="234" on="0"/>
        <pt x="603" y="210" on="1"/>
        <pt x="603" y="19" on="1"/>
        <pt x="511" y="-16" on="0"/>
        <pt x="385" y="-16" on="1"/>
        <pt x="236" y="-16" on="0"/>
        <pt x="47" y="155" on="0"/>
        <pt x="47" y="461" on="0"/>
        <pt x="235" y="666" on="0"/>
        <pt x="393" y="666" on="1"/>
        <pt x="447" y="666" on="0"/>
        <pt x="519" y="654" on="0"/>
        <pt x="544" y="650" on="0"/>
        <pt x="612" y="635" on="0"/>
        <pt x="619" y="634" on="1"/>
        <pt x="609" y="535" on="0"/>
        <pt x="593" y="473" on="1"/>
        <pt x="559" y="467" on="1"/>
        <pt x="547" y="562" on="0"/>
        <pt x="526" y="594" on="1"/>
        <pt x="478" y="620" on="0"/>
        <pt x="270" y="620" on="0"/>
        <pt x="148" y="462" on="0"/>
        <pt x="148" y="208" on="0"/>
        <pt x="285" y="30" on="0"/>
        <pt x="395" y="30" on="1"/>
        <pt x="469" y="30" on="0"/>
        <pt x="514" y="56" on="1"/>
      </contour>
      <contour>
        <pt x="526" y="764" on="0"/>
        <pt x="455" y="688" on="0"/>
        <pt x="338" y="688" on="0"/>
        <pt x="272" y="762" on="0"/>
        <pt x="272" y="823" on="1"/>
        <pt x="303" y="832" on="1"/>
        <pt x="318" y="753" on="0"/>
        <pt x="480" y="753" on="0"/>
        <pt x="495" y="832" on="1"/>
        <pt x="526" y="823" on="1"/>
      </contour>
    </TTGlyph>
    <TTGlyph name="Gcircumflex" xMin="47" yMin="-16" xMax="664" yMax="831">
      <contour>
        <pt x="514" y="202" on="1"/>
        <pt x="514" y="217" on="0"/>
        <pt x="506" y="233" on="0"/>
        <pt x="492" y="237" on="1"/>
        <pt x="416" y="251" on="1"/>
        <pt x="423" y="287" on="1"/>
        <pt x="493" y="279" on="0"/>
        <pt x="621" y="279" on="0"/>
        <pt x="658" y="287" on="1"/>
        <pt x="664" y="254" on="1"/>
        <pt x="634" y="248" on="0"/>
        <pt x="603" y="234" on="0"/>
        <pt x="603" y="210" on="1"/>
        <pt x="603" y="19" on="1"/>
        <pt x="511" y="-16" on="0"/>
        <pt x="385" y="-16" on="1"/>
        <pt x="236" y="-16" on="0"/>
        <pt x="47" y="155" on="0"/>
        <pt x="47" y="461" on="0"/>
        <pt x="235" y="666" on="0"/>
        <pt x="393" y="666" on="1"/>
        <pt x="447" y="666" on="0"/>
        <pt x="519" y="654" on="0"/>
        <pt x="544" y="650" on="0"/>
        <pt x="612" y="635" on="0"/>
        <pt x="619" y="634" on="1"/>
        <pt x="609" y="535" on="0"/>
        <pt x="593" y="473" on="1"/>
        <pt x="559" y="467" on="1"/>
        <pt x="547" y="562" on="0"/>
        <pt x="526" y="594" on="1"/>
        <pt x="478" y="620" on="0"/>
        <pt x="270" y="620" on="0"/>
        <pt x="148" y="462" on="0"/>
        <pt x="148" y="208" on="0"/>
        <pt x="285" y="30" on="0"/>
        <pt x="395" y="30" on="1"/>
        <pt x="469" y="30" on="0"/>
        <pt x="514" y="56" on="1"/>
      </contour>
      <contour>
        <pt x="368" y="831" on="0"/>
        <pt x="418" y="831" on="0"/>
        <pt x="434" y="829" on="1"/>
        <pt x="446" y="820" on="0"/>
        <pt x="530" y="713" on="0"/>
        <pt x="536" y="702" on="1"/>
        <pt x="508" y="681" on="1"/>
        <pt x="393" y="771" on="1"/>
        <pt x="278" y="681" on="1"/>
        <pt x="250" y="702" on="1"/>
        <pt x="256" y="713" on="0"/>
        <pt x="340" y="820" on="0"/>
        <pt x="352" y="829" on="1"/>
      </contour>
    </TTGlyph>
    <TTGlyph name="Gcommaaccent" xMin="47" yMin="-260" xMax="664" yMax="666">
      <contour>
        <pt x="514" y="202" on="1"/>
        <pt x="514" y="217" on="0"/>
        <pt x="506" y="233" on="0"/>
        <pt x="492" y="237" on="1"/>
        <pt x="416" y="251" on="1"/>
        <pt x="423" y="287" on="1"/>
        <pt x="493" y="279" on="0"/>
        <pt x="621" y="279" on="0"/>
        <pt x="658" y="287" on="1"/>
        <pt x="664" y="254" on="1"/>
        <pt x="634" y="248" on="0"/>
        <pt x="603" y="234" on="0"/>
        <pt x="603" y="210" on="1"/>
        <pt x="603" y="19" on="1"/>
        <pt x="511" y="-16" on="0"/>
        <pt x="385" y="-16" on="1"/>
        <pt x="236" y="-16" on="0"/>
        <pt x="47" y="155" on="0"/>
        <pt x="47" y="461" on="0"/>
        <pt x="235" y="666" on="0"/>
        <pt x="393" y="666" on="1"/>
        <pt x="447" y="666" on="0"/>
        <pt x="519" y="654" on="0"/>
        <pt x="544" y="650" on="0"/>
        <pt x="612" y="635" on="0"/>
        <pt x="619" y="634" on="1"/>
        <pt x="609" y="535" on="0"/>
        <pt x="593" y="473" on="1"/>
        <pt x="559" y="467" on="1"/>
        <pt x="547" y="562" on="0"/>
        <pt x="526" y="594" on="1"/>
        <pt x="478" y="620" on="0"/>
        <pt x="270" y="620" on="0"/>
        <pt x="148" y="462" on="0"/>
        <pt x="148" y="208" on="0"/>
        <pt x="285" y="30" on="0"/>
        <pt x="395" y="30" on="1"/>
        <pt x="469" y="30" on="0"/>
        <pt x="514" y="56" on="1"/>
      </contour>
      <contour>
        <pt x="401" y="-43" on="0"/>
        <pt x="451" y="-80" on="0"/>
        <pt x="451" y="-138" on="0"/>
        <pt x="381" y="-231" on="0"/>
        <pt x="347" y="-260" on="1"/>
        <pt x="325" y="-242" on="1"/>
        <pt x="346" y="-221" on="0"/>
        <pt x="385" y="-162" on="0"/>
        <pt x="385" y="-120" on="0"/>
        <pt x="327" y="-114" on="1"/>
        <pt x="320" y="-98" on="1"/>
        <pt x="328" y="-85" on="0"/>
        <pt x="362" y="-49" on="0"/>
        <pt x="374" y="-41" on="1"/>
      </contour>
    </TTGlyph>
    <TTGlyph name="Gdot" xMin="47" yMin="-16" xMax="664" yMax="803">
      <contour>
        <pt x="514" y="202" on="1"/>
        <pt x="514" y="217" on="0"/>
        <pt x="506" y="233" on="0"/>
        <pt x="492" y="237" on="1"/>
        <pt x="416" y="251" on="1"/>
        <pt x="423" y="287" on="1"/>
        <pt x="493" y="279" on="0"/>
        <pt x="621" y="279" on="0"/>
        <pt x="658" y="287" on="1"/>
        <pt x="664" y="254" on="1"/>
        <pt x="634" y="248" on="0"/>
        <pt x="603" y="234" on="0"/>
        <pt x="603" y="210" on="1"/>
        <pt x="603" y="19" on="1"/>
        <pt x="511" y="-16" on="0"/>
        <pt x="385" y="-16" on="1"/>
        <pt x="236" y="-16" on="0"/>
        <pt x="47" y="155" on="0"/>
        <pt x="47" y="461" on="0"/>
        <pt x="235" y="666" on="0"/>
        <pt x="393" y="666" on="1"/>
        <pt x="447" y="666" on="0"/>
        <pt x="519" y="654" on="0"/>
        <pt x="544" y="650" on="0"/>
        <pt x="612" y="635" on="0"/>
        <pt x="619" y="634" on="1"/>
        <pt x="609" y="535" on="0"/>
        <pt x="593" y="473" on="1"/>
        <pt x="559" y="467" on="1"/>
        <pt x="547" y="562" on="0"/>
        <pt x="526" y="594" on="1"/>
        <pt x="478" y="620" on="0"/>
        <pt x="270" y="620" on="0"/>
        <pt x="148" y="462" on="0"/>
        <pt x="148" y="208" on="0"/>
        <pt x="285" y="30" on="0"/>
        <pt x="395" y="30" on="1"/>
        <pt x="469" y="30" on="0"/>
        <pt x="514" y="56" on="1"/>
      </contour>
      <contour>
        <pt x="338" y="727" on="0"/>
        <pt x="338" y="773" on="0"/>
        <pt x="369" y="803" on="0"/>
        <pt x="418" y="803" on="0"/>
        <pt x="449" y="773" on="0"/>
        <pt x="449" y="727" on="0"/>
        <pt x="418" y="698" on="0"/>
        <pt x="369" y="698" on="0"/>
      </contour>
    </TTGlyph>
    <TTGlyph name="H" xMin="50" yMin="-8" xMax="745" yMax="658">
      <contour>
        <pt x="581" y="364" on="1"/>
        <pt x="581" y="580" on="1"/>
        <pt x="581" y="594" on="0"/>
        <pt x="576" y="606" on="0"/>
        <pt x="566" y="610" on="1"/>
        <pt x="548" y="619" on="0"/>
        <pt x="510" y="624" on="1"/>
        <pt x="497" y="625" on="1"/>
        <pt x="504" y="658" on="1"/>
        <pt x="578" y="650" on="0"/>
        <pt x="664" y="650" on="0"/>
        <pt x="738" y="658" on="1"/>
        <pt x="745" y="625" on="1"/>
        <pt x="679" y="617" on="0"/>
        <pt x="672" y="602" on="1"/>
        <pt x="670" y="596" on="0"/>
        <pt x="670" y="582" on="1"/>
        <pt x="670" y="68" on="1"/>
        <pt x="670" y="54" on="0"/>
        <pt x="675" y="43" on="0"/>
        <pt x="684" y="38" on="1"/>
        <pt x="699" y="32" on="0"/>
        <pt x="734" y="26" on="1"/>
        <pt x="745" y="25" on="1"/>
        <pt x="738" y="-8" on="1"/>
        <pt x="664" y="0" on="0"/>
        <pt x="578" y="0" on="0"/>
        <pt x="504" y="-8" on="1"/>
        <pt x="497" y="25" on="1"/>
        <pt x="572" y="34" on="0"/>
        <pt x="578" y="50" on="1"/>
        <pt x="581" y="56" on="0"/>
        <pt x="581" y="70" on="1"/>
        <pt x="581" y="311" on="1"/>
        <pt x="214" y="311" on="1"/>
        <pt x="214" y="70" on="1"/>
        <pt x="214" y="56" on="0"/>
        <pt x="219" y="44" on="0"/>
        <pt x="228" y="40" on="1"/>
        <pt x="247" y="31" on="0"/>
        <pt x="285" y="26" on="1"/>
        <pt x="298" y="25" on="1"/>
        <pt x="291" y="-8" on="1"/>
        <pt x="217" y="0" on="0"/>
        <pt x="131" y="0" on="0"/>
        <pt x="57" y="-8" on="1"/>
        <pt x="50" y="25" on="1"/>
        <pt x="116" y="33" on="0"/>
        <pt x="122" y="48" on="1"/>
        <pt x="125" y="54" on="0"/>
        <pt x="125" y="68" on="1"/>
        <pt x="125" y="582" on="1"/>
        <pt x="125" y="596" on="0"/>
        <pt x="120" y="607" on="0"/>
        <pt x="110" y="612" on="1"/>
        <pt x="96" y="618" on="0"/>
        <pt x="60" y="624" on="1"/>
        <pt x="50" y="625" on="1"/>
        <pt x="57" y="658" on="1"/>
        <pt x="131" y="650" on="0"/>
        <pt x="217" y="650" on="0"/>
        <pt x="291" y="658" on="1"/>
        <pt x="298" y="625" on="1"/>
        <pt x="249" y="619" on="0"/>
        <pt x="214" y="604" on="0"/>
        <pt x="214" y="582" on="1"/>
        <pt x="214" y="364" on="1"/>
      </contour>
    </TTGlyph>
    <TTGlyph name="Hbar" xMin="46" yMin="-8" xMax="748" yMax="658">
      <contour>
        <pt x="125" y="527" on="1"/>
        <pt x="125" y="582" on="1"/>
        <pt x="125" y="596" on="0"/>
        <pt x="120" y="607" on="0"/>
        <pt x="110" y="612" on="1"/>
        <pt x="96" y="618" on="0"/>
        <pt x="60" y="624" on="1"/>
        <pt x="50" y="625" on="1"/>
        <pt x="57" y="658" on="1"/>
        <pt x="131" y="650" on="0"/>
        <pt x="217" y="650" on="0"/>
        <pt x="291" y="658" on="1"/>
        <pt x="298" y="625" on="1"/>
        <pt x="249" y="619" on="0"/>
        <pt x="214" y="604" on="0"/>
        <pt x="214" y="582" on="1"/>
        <pt x="214" y="527" on="1"/>
        <pt x="581" y="527" on="1"/>
        <pt x="581" y="580" on="1"/>
        <pt x="581" y="594" on="0"/>
        <pt x="576" y="606" on="0"/>
        <pt x="566" y="610" on="1"/>
        <pt x="548" y="619" on="0"/>
        <pt x="510" y="624" on="1"/>
        <pt x="497" y="625" on="1"/>
        <pt x="504" y="658" on="1"/>
        <pt x="578" y="650" on="0"/>
        <pt x="664" y="650" on="0"/>
        <pt x="738" y="658" on="1"/>
        <pt x="745" y="625" on="1"/>
        <pt x="679" y="617" on="0"/>
        <pt x="672" y="602" on="1"/>
        <pt x="670" y="596" on="0"/>
        <pt x="670" y="582" on="1"/>
        <pt x="670" y="527" on="1"/>
        <pt x="748" y="527" on="1"/>
        <pt x="740" y="484" on="1"/>
        <pt x="670" y="484" on="1"/>
        <pt x="670" y="68" on="1"/>
        <pt x="670" y="54" on="0"/>
        <pt x="675" y="43" on="0"/>
        <pt x="684" y="38" on="1"/>
        <pt x="699" y="32" on="0"/>
        <pt x="734" y="26" on="1"/>
        <pt x="745" y="25" on="1"/>
        <pt x="738" y="-8" on="1"/>
        <pt x="664" y="0" on="0"/>
        <pt x="578" y="0" on="0"/>
        <pt x="504" y="-8" on="1"/>
        <pt x="497" y="25" on="1"/>
        <pt x="572" y="34" on="0"/>
        <pt x="578" y="50" on="1"/>
        <pt x="581" y="56" on="0"/>
        <pt x="581" y="70" on="1"/>
        <pt x="581" y="311" on="1"/>
        <pt x="214" y="311" on="1"/>
        <pt x="214" y="70" on="1"/>
        <pt x="214" y="56" on="0"/>
        <pt x="219" y="44" on="0"/>
        <pt x="228" y="40" on="1"/>
        <pt x="247" y="31" on="0"/>
        <pt x="285" y="26" on="1"/>
        <pt x="298" y="25" on="1"/>
        <pt x="291" y="-8" on="1"/>
        <pt x="217" y="0" on="0"/>
        <pt x="131" y="0" on="0"/>
        <pt x="57" y="-8" on="1"/>
        <pt x="50" y="25" on="1"/>
        <pt x="116" y="33" on="0"/>
        <pt x="122" y="48" on="1"/>
        <pt x="125" y="54" on="0"/>
        <pt x="125" y="68" on="1"/>
        <pt x="125" y="484" on="1"/>
        <pt x="46" y="484" on="1"/>
        <pt x="54" y="527" on="1"/>
      </contour>
      <contour>
        <pt x="581" y="364" on="1"/>
        <pt x="581" y="484" on="1"/>
        <pt x="214" y="484" on="1"/>
        <pt x="214" y="364" on="1"/>
      </contour>
    </TTGlyph>
    <TTGlyph name="Hcircumflex" xMin="50" yMin="-8" xMax="745" yMax="831">
      <contour>
        <pt x="581" y="364" on="1"/>
        <pt x="581" y="580" on="1"/>
        <pt x="581" y="594" on="0"/>
        <pt x="576" y="606" on="0"/>
        <pt x="566" y="610" on="1"/>
        <pt x="548" y="619" on="0"/>
        <pt x="510" y="624" on="1"/>
        <pt x="497" y="625" on="1"/>
        <pt x="504" y="658" on="1"/>
        <pt x="578" y="650" on="0"/>
        <pt x="664" y="650" on="0"/>
        <pt x="738" y="658" on="1"/>
        <pt x="745" y="625" on="1"/>
        <pt x="679" y="617" on="0"/>
        <pt x="672" y="602" on="1"/>
        <pt x="670" y="596" on="0"/>
        <pt x="670" y="582" on="1"/>
        <pt x="670" y="68" on="1"/>
        <pt x="670" y="54" on="0"/>
        <pt x="675" y="43" on="0"/>
        <pt x="684" y="38" on="1"/>
        <pt x="699" y="32" on="0"/>
        <pt x="734" y="26" on="1"/>
        <pt x="745" y="25" on="1"/>
        <pt x="738" y="-8" on="1"/>
        <pt x="664" y="0" on="0"/>
        <pt x="578" y="0" on="0"/>
        <pt x="504" y="-8" on="1"/>
        <pt x="497" y="25" on="1"/>
        <pt x="572" y="34" on="0"/>
        <pt x="578" y="50" on="1"/>
        <pt x="581" y="56" on="0"/>
        <pt x="581" y="70" on="1"/>
        <pt x="581" y="311" on="1"/>
        <pt x="214" y="311" on="1"/>
        <pt x="214" y="70" on="1"/>
        <pt x="214" y="56" on="0"/>
        <pt x="219" y="44" on="0"/>
        <pt x="228" y="40" on="1"/>
        <pt x="247" y="31" on="0"/>
        <pt x="285" y="26" on="1"/>
        <pt x="298" y="25" on="1"/>
        <pt x="291" y="-8" on="1"/>
        <pt x="217" y="0" on="0"/>
        <pt x="131" y="0" on="0"/>
        <pt x="57" y="-8" on="1"/>
        <pt x="50" y="25" on="1"/>
        <pt x="116" y="33" on="0"/>
        <pt x="122" y="48" on="1"/>
        <pt x="125" y="54" on="0"/>
        <pt x="125" y="68" on="1"/>
        <pt x="125" y="582" on="1"/>
        <pt x="125" y="596" on="0"/>
        <pt x="120" y="607" on="0"/>
        <pt x="110" y="612" on="1"/>
        <pt x="96" y="618" on="0"/>
        <pt x="60" y="624" on="1"/>
        <pt x="50" y="625" on="1"/>
        <pt x="57" y="658" on="1"/>
        <pt x="131" y="650" on="0"/>
        <pt x="217" y="650" on="0"/>
        <pt x="291" y="658" on="1"/>
        <pt x="298" y="625" on="1"/>
        <pt x="249" y="619" on="0"/>
        <pt x="214" y="604" on="0"/>
        <pt x="214" y="582" on="1"/>
        <pt x="214" y="364" on="1"/>
      </contour>
      <contour>
        <pt x="373" y="831" on="0"/>
        <pt x="423" y="831" on="0"/>
        <pt x="439" y="829" on="1"/>
        <pt x="451" y="820" on="0"/>
        <pt x="535" y="713" on="0"/>
        <pt x="541" y="702" on="1"/>
        <pt x="513" y="681" on="1"/>
        <pt x="398" y="771" on="1"/>
        <pt x="283" y="681" on="1"/>
        <pt x="255" y="702" on="1"/>
        <pt x="261" y="713" on="0"/>
        <pt x="345" y="820" on="0"/>
        <pt x="357" y="829" on="1"/>
      </contour>
    </TTGlyph>
    <TTGlyph name="I" xMin="50" yMin="-8" xMax="291" yMax="658">
      <contour>
        <pt x="214" y="582" on="1"/>
        <pt x="214" y="68" on="1"/>
        <pt x="214" y="54" on="0"/>
        <pt x="219" y="43" on="0"/>
        <pt x="228" y="38" on="1"/>
        <pt x="243" y="32" on="0"/>
        <pt x="280" y="26" on="1"/>
        <pt x="291" y="25" on="1"/>
        <pt x="284" y="-8" on="1"/>
        <pt x="217" y="0" on="0"/>
        <pt x="124" y="0" on="0"/>
        <pt x="57" y="-8" on="1"/>
        <pt x="50" y="25" on="1"/>
        <pt x="116" y="33" on="0"/>
        <pt x="122" y="48" on="1"/>
        <pt x="125" y="54" on="0"/>
        <pt x="125" y="68" on="1"/>
        <pt x="125" y="582" on="1"/>
        <pt x="125" y="596" on="0"/>
        <pt x="120" y="607" on="0"/>
        <pt x="110" y="612" on="1"/>
        <pt x="96" y="618" on="0"/>
        <pt x="60" y="624" on="1"/>
        <pt x="50" y="625" on="1"/>
        <pt x="57" y="658" on="1"/>
        <pt x="124" y="650" on="0"/>
        <pt x="217" y="650" on="0"/>
        <pt x="284" y="658" on="1"/>
        <pt x="291" y="625" on="1"/>
        <pt x="224" y="617" on="0"/>
        <pt x="216" y="602" on="1"/>
        <pt x="214" y="596" on="0"/>
      </contour>
    </TTGlyph>
    <TTGlyph name="IJ" xMin="50" yMin="-260" xMax="612" yMax="658">
      <contour>
        <pt x="214" y="582" on="1"/>
        <pt x="214" y="68" on="1"/>
        <pt x="214" y="54" on="0"/>
        <pt x="219" y="43" on="0"/>
        <pt x="228" y="38" on="1"/>
        <pt x="243" y="32" on="0"/>
        <pt x="280" y="26" on="1"/>
        <pt x="291" y="25" on="1"/>
        <pt x="284" y="-8" on="1"/>
        <pt x="217" y="0" on="0"/>
        <pt x="124" y="0" on="0"/>
        <pt x="57" y="-8" on="1"/>
        <pt x="50" y="25" on="1"/>
        <pt x="116" y="33" on="0"/>
        <pt x="122" y="48" on="1"/>
        <pt x="125" y="54" on="0"/>
        <pt x="125" y="68" on="1"/>
        <pt x="125" y="582" on="1"/>
        <pt x="125" y="596" on="0"/>
        <pt x="120" y="607" on="0"/>
        <pt x="110" y="612" on="1"/>
        <pt x="96" y="618" on="0"/>
        <pt x="60" y="624" on="1"/>
        <pt x="50" y="625" on="1"/>
        <pt x="57" y="658" on="1"/>
        <pt x="124" y="650" on="0"/>
        <pt x="217" y="650" on="0"/>
        <pt x="284" y="658" on="1"/>
        <pt x="291" y="625" on="1"/>
        <pt x="224" y="617" on="0"/>
        <pt x="216" y="602" on="1"/>
        <pt x="214" y="596" on="0"/>
      </contour>
      <contour>
        <pt x="535" y="582" on="1"/>
        <pt x="535" y="50" on="1"/>
        <pt x="535" y="-29" on="0"/>
        <pt x="501" y="-125" on="0"/>
        <pt x="435" y="-189" on="1"/>
        <pt x="363" y="-260" on="1"/>
        <pt x="339" y="-235" on="1"/>
        <pt x="446" y="-111" on="0"/>
        <pt x="446" y="0" on="1"/>
        <pt x="446" y="582" on="1"/>
        <pt x="446" y="596" on="0"/>
        <pt x="441" y="607" on="0"/>
        <pt x="432" y="612" on="1"/>
        <pt x="417" y="618" on="0"/>
        <pt x="382" y="624" on="1"/>
        <pt x="371" y="625" on="1"/>
        <pt x="378" y="658" on="1"/>
        <pt x="445" y="650" on="0"/>
        <pt x="538" y="650" on="0"/>
        <pt x="605" y="658" on="1"/>
        <pt x="612" y="625" on="1"/>
        <pt x="545" y="617" on="0"/>
        <pt x="538" y="602" on="1"/>
        <pt x="535" y="596" on="0"/>
      </contour>
    </TTGlyph>
    <TTGlyph name="Iacute" xMin="50" yMin="-8" xMax="303" yMax="833">
      <contour>
        <pt x="214" y="582" on="1"/>
        <pt x="214" y="68" on="1"/>
        <pt x="214" y="54" on="0"/>
        <pt x="219" y="43" on="0"/>
        <pt x="228" y="38" on="1"/>
        <pt x="243" y="32" on="0"/>
        <pt x="280" y="26" on="1"/>
        <pt x="291" y="25" on="1"/>
        <pt x="284" y="-8" on="1"/>
        <pt x="217" y="0" on="0"/>
        <pt x="124" y="0" on="0"/>
        <pt x="57" y="-8" on="1"/>
        <pt x="50" y="25" on="1"/>
        <pt x="116" y="33" on="0"/>
        <pt x="122" y="48" on="1"/>
        <pt x="125" y="54" on="0"/>
        <pt x="125" y="68" on="1"/>
        <pt x="125" y="582" on="1"/>
        <pt x="125" y="596" on="0"/>
        <pt x="120" y="607" on="0"/>
        <pt x="110" y="612" on="1"/>
        <pt x="96" y="618" on="0"/>
        <pt x="60" y="624" on="1"/>
        <pt x="50" y="625" on="1"/>
        <pt x="57" y="658" on="1"/>
        <pt x="124" y="650" on="0"/>
        <pt x="217" y="650" on="0"/>
        <pt x="284" y="658" on="1"/>
        <pt x="291" y="625" on="1"/>
        <pt x="224" y="617" on="0"/>
        <pt x="216" y="602" on="1"/>
        <pt x="214" y="596" on="0"/>
      </contour>
      <contour>
        <pt x="297" y="817" on="1"/>
        <pt x="303" y="799" on="1"/>
        <pt x="115" y="681" on="1"/>
        <pt x="89" y="708" on="1"/>
        <pt x="100" y="721" on="0"/>
        <pt x="202" y="826" on="0"/>
        <pt x="213" y="833" on="1"/>
        <pt x="226" y="833" on="0"/>
        <pt x="285" y="822" on="0"/>
      </contour>
    </TTGlyph>
    <TTGlyph name="Ibreve" xMin="50" yMin="-8" xMax="304" yMax="832">
      <contour>
        <pt x="214" y="582" on="1"/>
        <pt x="214" y="68" on="1"/>
        <pt x="214" y="54" on="0"/>
        <pt x="219" y="43" on="0"/>
        <pt x="228" y="38" on="1"/>
        <pt x="243" y="32" on="0"/>
        <pt x="280" y="26" on="1"/>
        <pt x="291" y="25" on="1"/>
        <pt x="284" y="-8" on="1"/>
        <pt x="217" y="0" on="0"/>
        <pt x="124" y="0" on="0"/>
        <pt x="57" y="-8" on="1"/>
        <pt x="50" y="25" on="1"/>
        <pt x="116" y="33" on="0"/>
        <pt x="122" y="48" on="1"/>
        <pt x="125" y="54" on="0"/>
        <pt x="125" y="68" on="1"/>
        <pt x="125" y="582" on="1"/>
        <pt x="125" y="596" on="0"/>
        <pt x="120" y="607" on="0"/>
        <pt x="110" y="612" on="1"/>
        <pt x="96" y="618" on="0"/>
        <pt x="60" y="624" on="1"/>
        <pt x="50" y="625" on="1"/>
        <pt x="57" y="658" on="1"/>
        <pt x="124" y="650" on="0"/>
        <pt x="217" y="650" on="0"/>
        <pt x="284" y="658" on="1"/>
        <pt x="291" y="625" on="1"/>
        <pt x="224" y="617" on="0"/>
        <pt x="216" y="602" on="1"/>
        <pt x="214" y="596" on="0"/>
      </contour>
      <contour>
        <pt x="304" y="764" on="0"/>
        <pt x="233" y="688" on="0"/>
        <pt x="116" y="688" on="0"/>
        <pt x="50" y="762" on="0"/>
        <pt x="50" y="823" on="1"/>
        <pt x="81" y="832" on="1"/>
        <pt x="96" y="753" on="0"/>
        <pt x="258" y="753" on="0"/>
        <pt x="273" y="832" on="1"/>
        <pt x="304" y="823" on="1"/>
      </contour>
    </TTGlyph>
    <TTGlyph name="Icircumflex" xMin="28" yMin="-8" xMax="314" yMax="831">
      <contour>
        <pt x="214" y="582" on="1"/>
        <pt x="214" y="68" on="1"/>
        <pt x="214" y="54" on="0"/>
        <pt x="219" y="43" on="0"/>
        <pt x="228" y="38" on="1"/>
        <pt x="243" y="32" on="0"/>
        <pt x="280" y="26" on="1"/>
        <pt x="291" y="25" on="1"/>
        <pt x="284" y="-8" on="1"/>
        <pt x="217" y="0" on="0"/>
        <pt x="124" y="0" on="0"/>
        <pt x="57" y="-8" on="1"/>
        <pt x="50" y="25" on="1"/>
        <pt x="116" y="33" on="0"/>
        <pt x="122" y="48" on="1"/>
        <pt x="125" y="54" on="0"/>
        <pt x="125" y="68" on="1"/>
        <pt x="125" y="582" on="1"/>
        <pt x="125" y="596" on="0"/>
        <pt x="120" y="607" on="0"/>
        <pt x="110" y="612" on="1"/>
        <pt x="96" y="618" on="0"/>
        <pt x="60" y="624" on="1"/>
        <pt x="50" y="625" on="1"/>
        <pt x="57" y="658" on="1"/>
        <pt x="124" y="650" on="0"/>
        <pt x="217" y="650" on="0"/>
        <pt x="284" y="658" on="1"/>
        <pt x="291" y="625" on="1"/>
        <pt x="224" y="617" on="0"/>
        <pt x="216" y="602" on="1"/>
        <pt x="214" y="596" on="0"/>
      </contour>
      <contour>
        <pt x="146" y="831" on="0"/>
        <pt x="196" y="831" on="0"/>
        <pt x="212" y="829" on="1"/>
        <pt x="224" y="820" on="0"/>
        <pt x="308" y="713" on="0"/>
        <pt x="314" y="702" on="1"/>
        <pt x="286" y="681" on="1"/>
        <pt x="171" y="771" on="1"/>
        <pt x="56" y="681" on="1"/>
        <pt x="28" y="702" on="1"/>
        <pt x="34" y="713" on="0"/>
        <pt x="118" y="820" on="0"/>
        <pt x="130" y="829" on="1"/>
      </contour>
    </TTGlyph>
    <TTGlyph name="Idieresis" xMin="19" yMin="-8" xMax="322" yMax="791">
      <contour>
        <pt x="214" y="582" on="1"/>
        <pt x="214" y="68" on="1"/>
        <pt x="214" y="54" on="0"/>
        <pt x="219" y="43" on="0"/>
        <pt x="228" y="38" on="1"/>
        <pt x="243" y="32" on="0"/>
        <pt x="280" y="26" on="1"/>
        <pt x="291" y="25" on="1"/>
        <pt x="284" y="-8" on="1"/>
        <pt x="217" y="0" on="0"/>
        <pt x="124" y="0" on="0"/>
        <pt x="57" y="-8" on="1"/>
        <pt x="50" y="25" on="1"/>
        <pt x="116" y="33" on="0"/>
        <pt x="122" y="48" on="1"/>
        <pt x="125" y="54" on="0"/>
        <pt x="125" y="68" on="1"/>
        <pt x="125" y="582" on="1"/>
        <pt x="125" y="596" on="0"/>
        <pt x="120" y="607" on="0"/>
        <pt x="110" y="612" on="1"/>
        <pt x="96" y="618" on="0"/>
        <pt x="60" y="624" on="1"/>
        <pt x="50" y="625" on="1"/>
        <pt x="57" y="658" on="1"/>
        <pt x="124" y="650" on="0"/>
        <pt x="217" y="650" on="0"/>
        <pt x="284" y="658" on="1"/>
        <pt x="291" y="625" on="1"/>
        <pt x="224" y="617" on="0"/>
        <pt x="216" y="602" on="1"/>
        <pt x="214" y="596" on="0"/>
      </contour>
      <contour>
        <pt x="19" y="715" on="0"/>
        <pt x="19" y="761" on="0"/>
        <pt x="50" y="791" on="0"/>
        <pt x="99" y="791" on="0"/>
        <pt x="130" y="761" on="0"/>
        <pt x="130" y="715" on="0"/>
        <pt x="99" y="686" on="0"/>
        <pt x="50" y="686" on="0"/>
      </contour>
      <contour>
        <pt x="211" y="715" on="0"/>
        <pt x="211" y="761" on="0"/>
        <pt x="242" y="791" on="0"/>
        <pt x="291" y="791" on="0"/>
        <pt x="322" y="761" on="0"/>
        <pt x="322" y="715" on="0"/>
        <pt x="291" y="686" on="0"/>
        <pt x="242" y="686" on="0"/>
      </contour>
    </TTGlyph>
    <TTGlyph name="Idot" xMin="50" yMin="-8" xMax="291" yMax="803">
      <contour>
        <pt x="214" y="582" on="1"/>
        <pt x="214" y="68" on="1"/>
        <pt x="214" y="54" on="0"/>
        <pt x="219" y="43" on="0"/>
        <pt x="228" y="38" on="1"/>
        <pt x="243" y="32" on="0"/>
        <pt x="280" y="26" on="1"/>
        <pt x="291" y="25" on="1"/>
        <pt x="284" y="-8" on="1"/>
        <pt x="217" y="0" on="0"/>
        <pt x="124" y="0" on="0"/>
        <pt x="57" y="-8" on="1"/>
        <pt x="50" y="25" on="1"/>
        <pt x="116" y="33" on="0"/>
        <pt x="122" y="48" on="1"/>
        <pt x="125" y="54" on="0"/>
        <pt x="125" y="68" on="1"/>
        <pt x="125" y="582" on="1"/>
        <pt x="125" y="596" on="0"/>
        <pt x="120" y="607" on="0"/>
        <pt x="110" y="612" on="1"/>
        <pt x="96" y="618" on="0"/>
        <pt x="60" y="624" on="1"/>
        <pt x="50" y="625" on="1"/>
        <pt x="57" y="658" on="1"/>
        <pt x="124" y="650" on="0"/>
        <pt x="217" y="650" on="0"/>
        <pt x="284" y="658" on="1"/>
        <pt x="291" y="625" on="1"/>
        <pt x="224" y="617" on="0"/>
        <pt x="216" y="602" on="1"/>
        <pt x="214" y="596" on="0"/>
      </contour>
      <contour>
        <pt x="116" y="727" on="0"/>
        <pt x="116" y="773" on="0"/>
        <pt x="147" y="803" on="0"/>
        <pt x="196" y="803" on="0"/>
        <pt x="227" y="773" on="0"/>
        <pt x="227" y="727" on="0"/>
        <pt x="196" y="698" on="0"/>
        <pt x="147" y="698" on="0"/>
      </contour>
    </TTGlyph>
    <TTGlyph name="Igrave" xMin="24" yMin="-8" xMax="291" yMax="833">
      <contour>
        <pt x="214" y="582" on="1"/>
        <pt x="214" y="68" on="1"/>
        <pt x="214" y="54" on="0"/>
        <pt x="219" y="43" on="0"/>
        <pt x="228" y="38" on="1"/>
        <pt x="243" y="32" on="0"/>
        <pt x="280" y="26" on="1"/>
        <pt x="291" y="25" on="1"/>
        <pt x="284" y="-8" on="1"/>
        <pt x="217" y="0" on="0"/>
        <pt x="124" y="0" on="0"/>
        <pt x="57" y="-8" on="1"/>
        <pt x="50" y="25" on="1"/>
        <pt x="116" y="33" on="0"/>
        <pt x="122" y="48" on="1"/>
        <pt x="125" y="54" on="0"/>
        <pt x="125" y="68" on="1"/>
        <pt x="125" y="582" on="1"/>
        <pt x="125" y="596" on="0"/>
        <pt x="120" y="607" on="0"/>
        <pt x="110" y="612" on="1"/>
        <pt x="96" y="618" on="0"/>
        <pt x="60" y="624" on="1"/>
        <pt x="50" y="625" on="1"/>
        <pt x="57" y="658" on="1"/>
        <pt x="124" y="650" on="0"/>
        <pt x="217" y="650" on="0"/>
        <pt x="284" y="658" on="1"/>
        <pt x="291" y="625" on="1"/>
        <pt x="224" y="617" on="0"/>
        <pt x="216" y="602" on="1"/>
        <pt x="214" y="596" on="0"/>
      </contour>
      <contour>
        <pt x="24" y="799" on="1"/>
        <pt x="30" y="817" on="1"/>
        <pt x="42" y="822" on="0"/>
        <pt x="101" y="833" on="0"/>
        <pt x="114" y="833" on="1"/>
        <pt x="125" y="826" on="0"/>
        <pt x="227" y="721" on="0"/>
        <pt x="238" y="708" on="1"/>
        <pt x="212" y="681" on="1"/>
      </contour>
    </TTGlyph>
    <TTGlyph name="Imacron" xMin="50" yMin="-8" xMax="291" yMax="764">
      <contour>
        <pt x="65" y="703" on="1"/>
        <pt x="76" y="764" on="1"/>
        <pt x="276" y="764" on="1"/>
        <pt x="265" y="703" on="1"/>
      </contour>
      <contour>
        <pt x="214" y="582" on="1"/>
        <pt x="214" y="68" on="1"/>
        <pt x="214" y="54" on="0"/>
        <pt x="219" y="43" on="0"/>
        <pt x="228" y="38" on="1"/>
        <pt x="243" y="32" on="0"/>
        <pt x="280" y="26" on="1"/>
        <pt x="291" y="25" on="1"/>
        <pt x="284" y="-8" on="1"/>
        <pt x="217" y="0" on="0"/>
        <pt x="124" y="0" on="0"/>
        <pt x="57" y="-8" on="1"/>
        <pt x="50" y="25" on="1"/>
        <pt x="116" y="33" on="0"/>
        <pt x="122" y="48" on="1"/>
        <pt x="125" y="54" on="0"/>
        <pt x="125" y="68" on="1"/>
        <pt x="125" y="582" on="1"/>
        <pt x="125" y="596" on="0"/>
        <pt x="120" y="607" on="0"/>
        <pt x="110" y="612" on="1"/>
        <pt x="96" y="618" on="0"/>
        <pt x="60" y="624" on="1"/>
        <pt x="50" y="625" on="1"/>
        <pt x="57" y="658" on="1"/>
        <pt x="124" y="650" on="0"/>
        <pt x="217" y="650" on="0"/>
        <pt x="284" y="658" on="1"/>
        <pt x="291" y="625" on="1"/>
        <pt x="224" y="617" on="0"/>
        <pt x="216" y="602" on="1"/>
        <pt x="214" y="596" on="0"/>
      </contour>
    </TTGlyph>
    <TTGlyph name="Iogonek" xMin="50" yMin="-240" xMax="291" yMax="658">
      <contour>
        <pt x="146" y="-143" on="1"/>
        <pt x="146" y="-162" on="0"/>
        <pt x="169" y="-190" on="0"/>
        <pt x="218" y="-190" on="0"/>
        <pt x="250" y="-176" on="1"/>
        <pt x="265" y="-206" on="1"/>
        <pt x="215" y="-240" on="0"/>
        <pt x="128" y="-240" on="0"/>
        <pt x="76" y="-193" on="0"/>
        <pt x="76" y="-151" on="1"/>
        <pt x="76" y="-129" on="0"/>
        <pt x="91" y="-93" on="0"/>
        <pt x="114" y="-71" on="1"/>
        <pt x="140" y="-45" on="0"/>
        <pt x="197" y="0" on="1"/>
        <pt x="170" y="0" on="1"/>
        <pt x="124" y="0" on="0"/>
        <pt x="57" y="-8" on="1"/>
        <pt x="50" y="25" on="1"/>
        <pt x="116" y="33" on="0"/>
        <pt x="122" y="48" on="1"/>
        <pt x="125" y="54" on="0"/>
        <pt x="125" y="68" on="1"/>
        <pt x="125" y="582" on="1"/>
        <pt x="125" y="596" on="0"/>
        <pt x="120" y="607" on="0"/>
        <pt x="110" y="612" on="1"/>
        <pt x="96" y="618" on="0"/>
        <pt x="60" y="624" on="1"/>
        <pt x="50" y="625" on="1"/>
        <pt x="57" y="658" on="1"/>
        <pt x="124" y="650" on="0"/>
        <pt x="217" y="650" on="0"/>
        <pt x="284" y="658" on="1"/>
        <pt x="291" y="625" on="1"/>
        <pt x="224" y="617" on="0"/>
        <pt x="216" y="602" on="1"/>
        <pt x="214" y="596" on="0"/>
        <pt x="214" y="582" on="1"/>
        <pt x="214" y="68" on="1"/>
        <pt x="214" y="54" on="0"/>
        <pt x="219" y="43" on="0"/>
        <pt x="228" y="38" on="1"/>
        <pt x="243" y="32" on="0"/>
        <pt x="280" y="26" on="1"/>
        <pt x="291" y="25" on="1"/>
        <pt x="284" y="-8" on="1"/>
        <pt x="253" y="-4" on="0"/>
        <pt x="235" y="-3" on="1"/>
        <pt x="146" y="-83" on="0"/>
      </contour>
    </TTGlyph>
    <TTGlyph name="Itilde" xMin="17" yMin="-8" xMax="326" yMax="800">
      <contour>
        <pt x="214" y="582" on="1"/>
        <pt x="214" y="68" on="1"/>
        <pt x="214" y="54" on="0"/>
        <pt x="219" y="43" on="0"/>
        <pt x="228" y="38" on="1"/>
        <pt x="243" y="32" on="0"/>
        <pt x="280" y="26" on="1"/>
        <pt x="291" y="25" on="1"/>
        <pt x="284" y="-8" on="1"/>
        <pt x="217" y="0" on="0"/>
        <pt x="124" y="0" on="0"/>
        <pt x="57" y="-8" on="1"/>
        <pt x="50" y="25" on="1"/>
        <pt x="116" y="33" on="0"/>
        <pt x="122" y="48" on="1"/>
        <pt x="125" y="54" on="0"/>
        <pt x="125" y="68" on="1"/>
        <pt x="125" y="582" on="1"/>
        <pt x="125" y="596" on="0"/>
        <pt x="120" y="607" on="0"/>
        <pt x="110" y="612" on="1"/>
        <pt x="96" y="618" on="0"/>
        <pt x="60" y="624" on="1"/>
        <pt x="50" y="625" on="1"/>
        <pt x="57" y="658" on="1"/>
        <pt x="124" y="650" on="0"/>
        <pt x="217" y="650" on="0"/>
        <pt x="284" y="658" on="1"/>
        <pt x="291" y="625" on="1"/>
        <pt x="224" y="617" on="0"/>
        <pt x="216" y="602" on="1"/>
        <pt x="214" y="596" on="0"/>
      </contour>
      <contour>
        <pt x="126" y="733" on="0"/>
        <pt x="78" y="733" on="0"/>
        <pt x="44" y="691" on="1"/>
        <pt x="17" y="707" on="1"/>
        <pt x="27" y="725" on="0"/>
        <pt x="78" y="783" on="0"/>
        <pt x="92" y="794" on="1"/>
        <pt x="115" y="798" on="1"/>
        <pt x="127" y="796" on="0"/>
        <pt x="217" y="757" on="0"/>
        <pt x="264" y="757" on="0"/>
        <pt x="299" y="800" on="1"/>
        <pt x="326" y="783" on="1"/>
        <pt x="315" y="765" on="0"/>
        <pt x="264" y="705" on="0"/>
        <pt x="251" y="695" on="1"/>
        <pt x="228" y="691" on="1"/>
        <pt x="216" y="693" on="0"/>
      </contour>
    </TTGlyph>
    <TTGlyph name="J" xMin="0" yMin="-260" xMax="273" yMax="658">
      <contour>
        <pt x="196" y="582" on="1"/>
        <pt x="196" y="50" on="1"/>
        <pt x="196" y="-29" on="0"/>
        <pt x="162" y="-125" on="0"/>
        <pt x="96" y="-189" on="1"/>
        <pt x="24" y="-260" on="1"/>
        <pt x="0" y="-235" on="1"/>
        <pt x="107" y="-111" on="0"/>
        <pt x="107" y="0" on="1"/>
        <pt x="107" y="582" on="1"/>
        <pt x="107" y="596" on="0"/>
        <pt x="102" y="607" on="0"/>
        <pt x="92" y="612" on="1"/>
        <pt x="78" y="618" on="0"/>
        <pt x="42" y="624" on="1"/>
        <pt x="32" y="625" on="1"/>
        <pt x="39" y="658" on="1"/>
        <pt x="106" y="650" on="0"/>
        <pt x="199" y="650" on="0"/>
        <pt x="266" y="658" on="1"/>
        <pt x="273" y="625" on="1"/>
        <pt x="206" y="617" on="0"/>
        <pt x="198" y="602" on="1"/>
        <pt x="196" y="596" on="0"/>
      </contour>
    </TTGlyph>
    <TTGlyph name="Jcircumflex" xMin="0" yMin="-260" xMax="288" yMax="831">
      <contour>
        <pt x="196" y="582" on="1"/>
        <pt x="196" y="50" on="1"/>
        <pt x="196" y="-29" on="0"/>
        <pt x="162" y="-125" on="0"/>
        <pt x="96" y="-189" on="1"/>
        <pt x="24" y="-260" on="1"/>
        <pt x="0" y="-235" on="1"/>
        <pt x="107" y="-111" on="0"/>
        <pt x="107" y="0" on="1"/>
        <pt x="107" y="582" on="1"/>
        <pt x="107" y="596" on="0"/>
        <pt x="102" y="607" on="0"/>
        <pt x="92" y="612" on="1"/>
        <pt x="78" y="618" on="0"/>
        <pt x="42" y="624" on="1"/>
        <pt x="32" y="625" on="1"/>
        <pt x="39" y="658" on="1"/>
        <pt x="106" y="650" on="0"/>
        <pt x="199" y="650" on="0"/>
        <pt x="266" y="658" on="1"/>
        <pt x="273" y="625" on="1"/>
        <pt x="206" y="617" on="0"/>
        <pt x="198" y="602" on="1"/>
        <pt x="196" y="596" on="0"/>
      </contour>
      <contour>
        <pt x="120" y="831" on="0"/>
        <pt x="170" y="831" on="0"/>
        <pt x="186" y="829" on="1"/>
        <pt x="198" y="820" on="0"/>
        <pt x="282" y="713" on="0"/>
        <pt x="288" y="702" on="1"/>
        <pt x="260" y="681" on="1"/>
        <pt x="145" y="771" on="1"/>
        <pt x="30" y="681" on="1"/>
        <pt x="2" y="702" on="1"/>
        <pt x="8" y="713" on="0"/>
        <pt x="92" y="820" on="0"/>
        <pt x="104" y="829" on="1"/>
      </contour>
    </TTGlyph>
    <TTGlyph name="K" xMin="50" yMin="-8" xMax="672" yMax="658">
      <contour>
        <pt x="464" y="602" on="1"/>
        <pt x="464" y="616" on="0"/>
        <pt x="408" y="625" on="1"/>
        <pt x="415" y="658" on="1"/>
        <pt x="462" y="650" on="0"/>
        <pt x="557" y="650" on="0"/>
        <pt x="602" y="658" on="1"/>
        <pt x="609" y="625" on="1"/>
        <pt x="575" y="620" on="0"/>
        <pt x="536" y="600" on="0"/>
        <pt x="514" y="576" on="1"/>
        <pt x="312" y="363" on="1"/>
        <pt x="558" y="96" on="1"/>
        <pt x="592" y="59" on="0"/>
        <pt x="636" y="34" on="0"/>
        <pt x="672" y="25" on="1"/>
        <pt x="665" y="-8" on="1"/>
        <pt x="612" y="0" on="0"/>
        <pt x="471" y="0" on="0"/>
        <pt x="420" y="-8" on="1"/>
        <pt x="413" y="25" on="1"/>
        <pt x="417" y="26" on="0"/>
        <pt x="433" y="29" on="0"/>
        <pt x="441" y="31" on="0"/>
        <pt x="454" y="34" on="0"/>
        <pt x="461" y="37" on="0"/>
        <pt x="464" y="39" on="1"/>
        <pt x="471" y="43" on="0"/>
        <pt x="471" y="60" on="0"/>
        <pt x="453" y="80" on="1"/>
        <pt x="228" y="327" on="1"/>
        <pt x="228" y="345" on="1"/>
        <pt x="449" y="576" on="1"/>
        <pt x="464" y="592" on="0"/>
      </contour>
      <contour>
        <pt x="214" y="582" on="1"/>
        <pt x="214" y="75" on="1"/>
        <pt x="214" y="60" on="0"/>
        <pt x="222" y="44" on="0"/>
        <pt x="236" y="40" on="1"/>
        <pt x="307" y="27" on="1"/>
        <pt x="300" y="-8" on="1"/>
        <pt x="230" y="0" on="0"/>
        <pt x="131" y="0" on="0"/>
        <pt x="57" y="-8" on="1"/>
        <pt x="50" y="25" on="1"/>
        <pt x="116" y="33" on="0"/>
        <pt x="122" y="48" on="1"/>
        <pt x="125" y="54" on="0"/>
        <pt x="125" y="68" on="1"/>
        <pt x="125" y="582" on="1"/>
        <pt x="125" y="596" on="0"/>
        <pt x="120" y="607" on="0"/>
        <pt x="110" y="612" on="1"/>
        <pt x="96" y="618" on="0"/>
        <pt x="60" y="624" on="1"/>
        <pt x="50" y="625" on="1"/>
        <pt x="57" y="658" on="1"/>
        <pt x="124" y="650" on="0"/>
        <pt x="210" y="650" on="0"/>
        <pt x="277" y="658" on="1"/>
        <pt x="284" y="625" on="1"/>
        <pt x="223" y="616" on="0"/>
        <pt x="216" y="602" on="1"/>
        <pt x="214" y="596" on="0"/>
      </contour>
    </TTGlyph>
    <TTGlyph name="Kcommaaccent" xMin="50" yMin="-260" xMax="672" yMax="658">
      <contour>
        <pt x="464" y="602" on="1"/>
        <pt x="464" y="616" on="0"/>
        <pt x="408" y="625" on="1"/>
        <pt x="415" y="658" on="1"/>
        <pt x="462" y="650" on="0"/>
        <pt x="557" y="650" on="0"/>
        <pt x="602" y="658" on="1"/>
        <pt x="609" y="625" on="1"/>
        <pt x="575" y="620" on="0"/>
        <pt x="536" y="600" on="0"/>
        <pt x="514" y="576" on="1"/>
        <pt x="312" y="363" on="1"/>
        <pt x="558" y="96" on="1"/>
        <pt x="592" y="59" on="0"/>
        <pt x="636" y="34" on="0"/>
        <pt x="672" y="25" on="1"/>
        <pt x="665" y="-8" on="1"/>
        <pt x="612" y="0" on="0"/>
        <pt x="471" y="0" on="0"/>
        <pt x="420" y="-8" on="1"/>
        <pt x="413" y="25" on="1"/>
        <pt x="417" y="26" on="0"/>
        <pt x="433" y="29" on="0"/>
        <pt x="441" y="31" on="0"/>
        <pt x="454" y="34" on="0"/>
        <pt x="461" y="37" on="0"/>
        <pt x="464" y="39" on="1"/>
        <pt x="471" y="43" on="0"/>
        <pt x="471" y="60" on="0"/>
        <pt x="453" y="80" on="1"/>
        <pt x="228" y="327" on="1"/>
        <pt x="228" y="345" on="1"/>
        <pt x="449" y="576" on="1"/>
        <pt x="464" y="592" on="0"/>
      </contour>
      <contour>
        <pt x="214" y="582" on="1"/>
        <pt x="214" y="75" on="1"/>
        <pt x="214" y="60" on="0"/>
        <pt x="222" y="44" on="0"/>
        <pt x="236" y="40" on="1"/>
        <pt x="307" y="27" on="1"/>
        <pt x="300" y="-8" on="1"/>
        <pt x="230" y="0" on="0"/>
        <pt x="131" y="0" on="0"/>
        <pt x="57" y="-8" on="1"/>
        <pt x="50" y="25" on="1"/>
        <pt x="116" y="33" on="0"/>
        <pt x="122" y="48" on="1"/>
        <pt x="125" y="54" on="0"/>
        <pt x="125" y="68" on="1"/>
        <pt x="125" y="582" on="1"/>
        <pt x="125" y="596" on="0"/>
        <pt x="120" y="607" on="0"/>
        <pt x="110" y="612" on="1"/>
        <pt x="96" y="618" on="0"/>
        <pt x="60" y="624" on="1"/>
        <pt x="50" y="625" on="1"/>
        <pt x="57" y="658" on="1"/>
        <pt x="124" y="650" on="0"/>
        <pt x="210" y="650" on="0"/>
        <pt x="277" y="658" on="1"/>
        <pt x="284" y="625" on="1"/>
        <pt x="223" y="616" on="0"/>
        <pt x="216" y="602" on="1"/>
        <pt x="214" y="596" on="0"/>
      </contour>
      <contour>
        <pt x="347" y="-43" on="0"/>
        <pt x="397" y="-80" on="0"/>
        <pt x="397" y="-138" on="0"/>
        <pt x="327" y="-231" on="0"/>
        <pt x="293" y="-260" on="1"/>
        <pt x="271" y="-242" on="1"/>
        <pt x="292" y="-221" on="0"/>
        <pt x="331" y="-162" on="0"/>
        <pt x="331" y="-120" on="0"/>
        <pt x="273" y="-114" on="1"/>
        <pt x="266" y="-98" on="1"/>
        <pt x="274" y="-85" on="0"/>
        <pt x="308" y="-49" on="0"/>
        <pt x="320" y="-41" on="1"/>
      </contour>
    </TTGlyph>
    <TTGlyph name="L" xMin="50" yMin="-8" xMax="520" yMax="658">
      <contour>
        <pt x="214" y="573" on="1"/>
        <pt x="214" y="48" on="1"/>
        <pt x="425" y="48" on="1"/>
        <pt x="437" y="60" on="0"/>
        <pt x="479" y="149" on="0"/>
        <pt x="486" y="173" on="1"/>
        <pt x="520" y="166" on="1"/>
        <pt x="519" y="142" on="0"/>
        <pt x="502" y="21" on="0"/>
        <pt x="496" y="0" on="1"/>
        <pt x="167" y="0" on="1"/>
        <pt x="139" y="0" on="0"/>
        <pt x="57" y="-8" on="1"/>
        <pt x="50" y="24" on="1"/>
        <pt x="90" y="29" on="0"/>
        <pt x="125" y="44" on="0"/>
        <pt x="125" y="69" on="1"/>
        <pt x="125" y="581" on="1"/>
        <pt x="125" y="605" on="0"/>
        <pt x="109" y="612" on="1"/>
        <pt x="96" y="618" on="0"/>
        <pt x="60" y="624" on="1"/>
        <pt x="50" y="625" on="1"/>
        <pt x="57" y="658" on="1"/>
        <pt x="131" y="650" on="0"/>
        <pt x="242" y="650" on="0"/>
        <pt x="312" y="658" on="1"/>
        <pt x="319" y="622" on="1"/>
        <pt x="255" y="614" on="0"/>
        <pt x="222" y="604" on="0"/>
        <pt x="214" y="588" on="0"/>
      </contour>
    </TTGlyph>
    <TTGlyph name="Lacute" xMin="50" yMin="-8" xMax="520" yMax="833">
      <contour>
        <pt x="214" y="573" on="1"/>
        <pt x="214" y="48" on="1"/>
        <pt x="425" y="48" on="1"/>
        <pt x="437" y="60" on="0"/>
        <pt x="479" y="149" on="0"/>
        <pt x="486" y="173" on="1"/>
        <pt x="520" y="166" on="1"/>
        <pt x="519" y="142" on="0"/>
        <pt x="502" y="21" on="0"/>
        <pt x="496" y="0" on="1"/>
        <pt x="167" y="0" on="1"/>
        <pt x="139" y="0" on="0"/>
        <pt x="57" y="-8" on="1"/>
        <pt x="50" y="24" on="1"/>
        <pt x="90" y="29" on="0"/>
        <pt x="125" y="44" on="0"/>
        <pt x="125" y="69" on="1"/>
        <pt x="125" y="581" on="1"/>
        <pt x="125" y="605" on="0"/>
        <pt x="109" y="612" on="1"/>
        <pt x="96" y="618" on="0"/>
        <pt x="60" y="624" on="1"/>
        <pt x="50" y="625" on="1"/>
        <pt x="57" y="658" on="1"/>
        <pt x="131" y="650" on="0"/>
        <pt x="242" y="650" on="0"/>
        <pt x="312" y="658" on="1"/>
        <pt x="319" y="622" on="1"/>
        <pt x="255" y="614" on="0"/>
        <pt x="222" y="604" on="0"/>
        <pt x="214" y="588" on="0"/>
      </contour>
      <contour>
        <pt x="293" y="817" on="1"/>
        <pt x="299" y="799" on="1"/>
        <pt x="111" y="681" on="1"/>
        <pt x="85" y="708" on="1"/>
        <pt x="96" y="721" on="0"/>
        <pt x="198" y="826" on="0"/>
        <pt x="209" y="833" on="1"/>
        <pt x="222" y="833" on="0"/>
        <pt x="281" y="822" on="0"/>
      </contour>
    </TTGlyph>
    <TTGlyph name="Lcaron" xMin="50" yMin="-8" xMax="520" yMax="718">
      <contour>
        <pt x="214" y="573" on="1"/>
        <pt x="214" y="48" on="1"/>
        <pt x="425" y="48" on="1"/>
        <pt x="437" y="60" on="0"/>
        <pt x="479" y="149" on="0"/>
        <pt x="486" y="173" on="1"/>
        <pt x="520" y="166" on="1"/>
        <pt x="519" y="142" on="0"/>
        <pt x="502" y="21" on="0"/>
        <pt x="496" y="0" on="1"/>
        <pt x="167" y="0" on="1"/>
        <pt x="139" y="0" on="0"/>
        <pt x="57" y="-8" on="1"/>
        <pt x="50" y="24" on="1"/>
        <pt x="90" y="29" on="0"/>
        <pt x="125" y="44" on="0"/>
        <pt x="125" y="69" on="1"/>
        <pt x="125" y="581" on="1"/>
        <pt x="125" y="605" on="0"/>
        <pt x="109" y="612" on="1"/>
        <pt x="96" y="618" on="0"/>
        <pt x="60" y="624" on="1"/>
        <pt x="50" y="625" on="1"/>
        <pt x="57" y="658" on="1"/>
        <pt x="131" y="650" on="0"/>
        <pt x="242" y="650" on="0"/>
        <pt x="312" y="658" on="1"/>
        <pt x="319" y="622" on="1"/>
        <pt x="255" y="614" on="0"/>
        <pt x="222" y="604" on="0"/>
        <pt x="214" y="588" on="0"/>
      </contour>
      <contour>
        <pt x="442" y="716" on="0"/>
        <pt x="492" y="679" on="0"/>
        <pt x="492" y="621" on="0"/>
        <pt x="422" y="528" on="0"/>
        <pt x="388" y="499" on="1"/>
        <pt x="366" y="517" on="1"/>
        <pt x="387" y="538" on="0"/>
        <pt x="426" y="597" on="0"/>
        <pt x="426" y="639" on="0"/>
        <pt x="368" y="645" on="1"/>
        <pt x="361" y="661" on="1"/>
        <pt x="369" y="674" on="0"/>
        <pt x="403" y="710" on="0"/>
        <pt x="415" y="718" on="1"/>
      </contour>
    </TTGlyph>
    <TTGlyph name="Lcommaaccent" xMin="50" yMin="-260" xMax="520" yMax="658">
      <contour>
        <pt x="214" y="573" on="1"/>
        <pt x="214" y="48" on="1"/>
        <pt x="425" y="48" on="1"/>
        <pt x="437" y="60" on="0"/>
        <pt x="479" y="149" on="0"/>
        <pt x="486" y="173" on="1"/>
        <pt x="520" y="166" on="1"/>
        <pt x="519" y="142" on="0"/>
        <pt x="502" y="21" on="0"/>
        <pt x="496" y="0" on="1"/>
        <pt x="167" y="0" on="1"/>
        <pt x="139" y="0" on="0"/>
        <pt x="57" y="-8" on="1"/>
        <pt x="50" y="24" on="1"/>
        <pt x="90" y="29" on="0"/>
        <pt x="125" y="44" on="0"/>
        <pt x="125" y="69" on="1"/>
        <pt x="125" y="581" on="1"/>
        <pt x="125" y="605" on="0"/>
        <pt x="109" y="612" on="1"/>
        <pt x="96" y="618" on="0"/>
        <pt x="60" y="624" on="1"/>
        <pt x="50" y="625" on="1"/>
        <pt x="57" y="658" on="1"/>
        <pt x="131" y="650" on="0"/>
        <pt x="242" y="650" on="0"/>
        <pt x="312" y="658" on="1"/>
        <pt x="319" y="622" on="1"/>
        <pt x="255" y="614" on="0"/>
        <pt x="222" y="604" on="0"/>
        <pt x="214" y="588" on="0"/>
      </contour>
      <contour>
        <pt x="311" y="-43" on="0"/>
        <pt x="361" y="-80" on="0"/>
        <pt x="361" y="-138" on="0"/>
        <pt x="291" y="-231" on="0"/>
        <pt x="257" y="-260" on="1"/>
        <pt x="235" y="-242" on="1"/>
        <pt x="256" y="-221" on="0"/>
        <pt x="295" y="-162" on="0"/>
        <pt x="295" y="-120" on="0"/>
        <pt x="237" y="-114" on="1"/>
        <pt x="230" y="-98" on="1"/>
        <pt x="238" y="-85" on="0"/>
        <pt x="272" y="-49" on="0"/>
        <pt x="284" y="-41" on="1"/>
      </contour>
    </TTGlyph>
    <TTGlyph name="Ldot" xMin="50" yMin="-8" xMax="520" yMax="658">
      <contour>
        <pt x="214" y="573" on="1"/>
        <pt x="214" y="48" on="1"/>
        <pt x="425" y="48" on="1"/>
        <pt x="437" y="60" on="0"/>
        <pt x="479" y="149" on="0"/>
        <pt x="486" y="173" on="1"/>
        <pt x="520" y="166" on="1"/>
        <pt x="519" y="142" on="0"/>
        <pt x="502" y="21" on="0"/>
        <pt x="496" y="0" on="1"/>
        <pt x="167" y="0" on="1"/>
        <pt x="139" y="0" on="0"/>
        <pt x="57" y="-8" on="1"/>
        <pt x="50" y="24" on="1"/>
        <pt x="90" y="29" on="0"/>
        <pt x="125" y="44" on="0"/>
        <pt x="125" y="69" on="1"/>
        <pt x="125" y="581" on="1"/>
        <pt x="125" y="605" on="0"/>
        <pt x="109" y="612" on="1"/>
        <pt x="96" y="618" on="0"/>
        <pt x="60" y="624" on="1"/>
        <pt x="50" y="625" on="1"/>
        <pt x="57" y="658" on="1"/>
        <pt x="131" y="650" on="0"/>
        <pt x="242" y="650" on="0"/>
        <pt x="312" y="658" on="1"/>
        <pt x="319" y="622" on="1"/>
        <pt x="255" y="614" on="0"/>
        <pt x="222" y="604" on="0"/>
        <pt x="214" y="588" on="0"/>
      </contour>
      <contour>
        <pt x="343" y="335" on="0"/>
        <pt x="343" y="381" on="0"/>
        <pt x="374" y="411" on="0"/>
        <pt x="423" y="411" on="0"/>
        <pt x="454" y="381" on="0"/>
        <pt x="454" y="335" on="0"/>
        <pt x="423" y="306" on="0"/>
        <pt x="374" y="306" on="0"/>
      </contour>
    </TTGlyph>
    <TTGlyph name="Lslash" xMin="25" yMin="-8" xMax="520" yMax="658">
      <contour>
        <pt x="214" y="573" on="1"/>
        <pt x="214" y="384" on="1"/>
        <pt x="380" y="473" on="1"/>
        <pt x="391" y="430" on="1"/>
        <pt x="214" y="335" on="1"/>
        <pt x="214" y="48" on="1"/>
        <pt x="425" y="48" on="1"/>
        <pt x="437" y="60" on="0"/>
        <pt x="479" y="149" on="0"/>
        <pt x="486" y="173" on="1"/>
        <pt x="520" y="166" on="1"/>
        <pt x="519" y="142" on="0"/>
        <pt x="502" y="21" on="0"/>
        <pt x="496" y="0" on="1"/>
        <pt x="167" y="0" on="1"/>
        <pt x="139" y="0" on="0"/>
        <pt x="57" y="-8" on="1"/>
        <pt x="50" y="24" on="1"/>
        <pt x="90" y="29" on="0"/>
        <pt x="125" y="44" on="0"/>
        <pt x="125" y="69" on="1"/>
        <pt x="125" y="287" on="1"/>
        <pt x="36" y="240" on="1"/>
        <pt x="25" y="283" on="1"/>
        <pt x="125" y="336" on="1"/>
        <pt x="125" y="581" on="1"/>
        <pt x="125" y="605" on="0"/>
        <pt x="109" y="612" on="1"/>
        <pt x="96" y="618" on="0"/>
        <pt x="60" y="624" on="1"/>
        <pt x="50" y="625" on="1"/>
        <pt x="57" y="658" on="1"/>
        <pt x="131" y="650" on="0"/>
        <pt x="242" y="650" on="0"/>
        <pt x="312" y="658" on="1"/>
        <pt x="319" y="622" on="1"/>
        <pt x="255" y="614" on="0"/>
        <pt x="222" y="604" on="0"/>
        <pt x="214" y="588" on="0"/>
      </contour>
    </TTGlyph>
    <TTGlyph name="M" xMin="29" yMin="-17" xMax="893" yMax="659">
      <contour>
        <pt x="669" y="659" on="1"/>
        <pt x="710" y="650" on="0"/>
        <pt x="810" y="650" on="0"/>
        <pt x="857" y="659" on="1"/>
        <pt x="864" y="626" on="1"/>
        <pt x="825" y="621" on="0"/>
        <pt x="790" y="607" on="0"/>
        <pt x="790" y="579" on="1"/>
        <pt x="820" y="72" on="1"/>
        <pt x="822" y="46" on="0"/>
        <pt x="838" y="38" on="1"/>
        <pt x="851" y="32" on="0"/>
        <pt x="893" y="25" on="1"/>
        <pt x="886" y="-8" on="1"/>
        <pt x="819" y="0" on="0"/>
        <pt x="715" y="0" on="0"/>
        <pt x="649" y="-8" on="1"/>
        <pt x="642" y="27" on="1"/>
        <pt x="694" y="33" on="0"/>
        <pt x="713" y="42" on="1"/>
        <pt x="731" y="49" on="0"/>
        <pt x="730" y="72" on="1"/>
        <pt x="701" y="572" on="1"/>
        <pt x="695" y="577" on="1"/>
        <pt x="684" y="527" on="0"/>
        <pt x="674" y="503" on="1"/>
        <pt x="530" y="142" on="1"/>
        <pt x="510" y="90" on="0"/>
        <pt x="489" y="22" on="1"/>
        <pt x="482" y="0" on="1"/>
        <pt x="422" y="-17" on="1"/>
        <pt x="394" y="77" on="0"/>
        <pt x="373" y="129" on="1"/>
        <pt x="224" y="502" on="1"/>
        <pt x="205" y="568" on="1"/>
        <pt x="198" y="563" on="1"/>
        <pt x="163" y="72" on="1"/>
        <pt x="162" y="59" on="0"/>
        <pt x="169" y="47" on="0"/>
        <pt x="178" y="42" on="1"/>
        <pt x="193" y="36" on="0"/>
        <pt x="238" y="29" on="1"/>
        <pt x="251" y="27" on="1"/>
        <pt x="244" y="-8" on="1"/>
        <pt x="177" y="0" on="0"/>
        <pt x="103" y="0" on="0"/>
        <pt x="36" y="-8" on="1"/>
        <pt x="29" y="25" on="1"/>
        <pt x="64" y="30" on="0"/>
        <pt x="83" y="38" on="1"/>
        <pt x="99" y="46" on="0"/>
        <pt x="100" y="69" on="1"/>
        <pt x="137" y="582" on="1"/>
        <pt x="139" y="606" on="0"/>
        <pt x="121" y="613" on="1"/>
        <pt x="108" y="620" on="0"/>
        <pt x="74" y="624" on="1"/>
        <pt x="63" y="626" on="1"/>
        <pt x="70" y="659" on="1"/>
        <pt x="117" y="650" on="0"/>
        <pt x="227" y="650" on="0"/>
        <pt x="268" y="659" on="1"/>
        <pt x="276" y="623" on="0"/>
        <pt x="288" y="591" on="1"/>
        <pt x="454" y="158" on="1"/>
        <pt x="467" y="111" on="1"/>
        <pt x="474" y="109" on="1"/>
        <pt x="477" y="142" on="0"/>
        <pt x="483" y="157" on="1"/>
        <pt x="646" y="585" on="1"/>
      </contour>
    </TTGlyph>
    <TTGlyph name="Macute" xMin="29" yMin="-17" xMax="893" yMax="833">
      <contour>
        <pt x="669" y="659" on="1"/>
        <pt x="710" y="650" on="0"/>
        <pt x="810" y="650" on="0"/>
        <pt x="857" y="659" on="1"/>
        <pt x="864" y="626" on="1"/>
        <pt x="825" y="621" on="0"/>
        <pt x="790" y="607" on="0"/>
        <pt x="790" y="579" on="1"/>
        <pt x="820" y="72" on="1"/>
        <pt x="822" y="46" on="0"/>
        <pt x="838" y="38" on="1"/>
        <pt x="851" y="32" on="0"/>
        <pt x="893" y="25" on="1"/>
        <pt x="886" y="-8" on="1"/>
        <pt x="819" y="0" on="0"/>
        <pt x="715" y="0" on="0"/>
        <pt x="649" y="-8" on="1"/>
        <pt x="642" y="27" on="1"/>
        <pt x="694" y="33" on="0"/>
        <pt x="713" y="42" on="1"/>
        <pt x="731" y="49" on="0"/>
        <pt x="730" y="72" on="1"/>
        <pt x="701" y="572" on="1"/>
        <pt x="695" y="577" on="1"/>
        <pt x="684" y="527" on="0"/>
        <pt x="674" y="503" on="1"/>
        <pt x="530" y="142" on="1"/>
        <pt x="510" y="90" on="0"/>
        <pt x="489" y="22" on="1"/>
        <pt x="482" y="0" on="1"/>
        <pt x="422" y="-17" on="1"/>
        <pt x="394" y="77" on="0"/>
        <pt x="373" y="129" on="1"/>
        <pt x="224" y="502" on="1"/>
        <pt x="205" y="568" on="1"/>
        <pt x="198" y="563" on="1"/>
        <pt x="163" y="72" on="1"/>
        <pt x="162" y="59" on="0"/>
        <pt x="169" y="47" on="0"/>
        <pt x="178" y="42" on="1"/>
        <pt x="193" y="36" on="0"/>
        <pt x="238" y="29" on="1"/>
        <pt x="251" y="27" on="1"/>
        <pt x="244" y="-8" on="1"/>
        <pt x="177" y="0" on="0"/>
        <pt x="103" y="0" on="0"/>
        <pt x="36" y="-8" on="1"/>
        <pt x="29" y="25" on="1"/>
        <pt x="64" y="30" on="0"/>
        <pt x="83" y="38" on="1"/>
        <pt x="99" y="46" on="0"/>
        <pt x="100" y="69" on="1"/>
        <pt x="137" y="582" on="1"/>
        <pt x="139" y="606" on="0"/>
        <pt x="121" y="613" on="1"/>
        <pt x="108" y="620" on="0"/>
        <pt x="74" y="624" on="1"/>
        <pt x="63" y="626" on="1"/>
        <pt x="70" y="659" on="1"/>
        <pt x="117" y="650" on="0"/>
        <pt x="227" y="650" on="0"/>
        <pt x="268" y="659" on="1"/>
        <pt x="276" y="623" on="0"/>
        <pt x="288" y="591" on="1"/>
        <pt x="454" y="158" on="1"/>
        <pt x="467" y="111" on="1"/>
        <pt x="474" y="109" on="1"/>
        <pt x="477" y="142" on="0"/>
        <pt x="483" y="157" on="1"/>
        <pt x="646" y="585" on="1"/>
      </contour>
      <contour>
        <pt x="591" y="817" on="1"/>
        <pt x="597" y="799" on="1"/>
        <pt x="409" y="681" on="1"/>
        <pt x="383" y="708" on="1"/>
        <pt x="394" y="721" on="0"/>
        <pt x="496" y="826" on="0"/>
        <pt x="507" y="833" on="1"/>
        <pt x="520" y="833" on="0"/>
        <pt x="579" y="822" on="0"/>
      </contour>
    </TTGlyph>
    <TTGlyph name="N" xMin="50" yMin="-14" xMax="732" yMax="659">
      <contour>
        <pt x="191" y="77" on="1"/>
        <pt x="191" y="62" on="0"/>
        <pt x="199" y="46" on="0"/>
        <pt x="213" y="42" on="1"/>
        <pt x="296" y="28" on="1"/>
        <pt x="289" y="-8" on="1"/>
        <pt x="219" y="0" on="0"/>
        <pt x="131" y="0" on="0"/>
        <pt x="57" y="-8" on="1"/>
        <pt x="50" y="25" on="1"/>
        <pt x="90" y="30" on="0"/>
        <pt x="125" y="45" on="0"/>
        <pt x="125" y="69" on="1"/>
        <pt x="125" y="583" on="1"/>
        <pt x="125" y="607" on="0"/>
        <pt x="109" y="613" on="1"/>
        <pt x="95" y="620" on="0"/>
        <pt x="61" y="624" on="1"/>
        <pt x="50" y="626" on="1"/>
        <pt x="57" y="659" on="1"/>
        <pt x="104" y="650" on="0"/>
        <pt x="200" y="650" on="0"/>
        <pt x="241" y="659" on="1"/>
        <pt x="262" y="619" on="0"/>
        <pt x="303" y="563" on="1"/>
        <pt x="554" y="216" on="1"/>
        <pt x="571" y="191" on="0"/>
        <pt x="582" y="157" on="1"/>
        <pt x="586" y="145" on="1"/>
        <pt x="591" y="149" on="1"/>
        <pt x="591" y="580" on="1"/>
        <pt x="591" y="603" on="0"/>
        <pt x="574" y="610" on="1"/>
        <pt x="558" y="618" on="0"/>
        <pt x="520" y="622" on="1"/>
        <pt x="507" y="624" on="1"/>
        <pt x="514" y="659" on="1"/>
        <pt x="590" y="650" on="0"/>
        <pt x="651" y="650" on="0"/>
        <pt x="725" y="659" on="1"/>
        <pt x="732" y="626" on="1"/>
        <pt x="693" y="621" on="0"/>
        <pt x="657" y="606" on="0"/>
        <pt x="657" y="583" on="1"/>
        <pt x="657" y="193" on="1"/>
        <pt x="657" y="113" on="0"/>
        <pt x="663" y="29" on="1"/>
        <pt x="665" y="1" on="1"/>
        <pt x="590" y="-14" on="1"/>
        <pt x="555" y="70" on="0"/>
        <pt x="475" y="178" on="1"/>
        <pt x="232" y="507" on="1"/>
        <pt x="215" y="531" on="0"/>
        <pt x="201" y="561" on="1"/>
        <pt x="196" y="572" on="1"/>
        <pt x="191" y="568" on="1"/>
      </contour>
    </TTGlyph>
    <TTGlyph name="Nacute" xMin="50" yMin="-14" xMax="732" yMax="833">
      <contour>
        <pt x="191" y="77" on="1"/>
        <pt x="191" y="62" on="0"/>
        <pt x="199" y="46" on="0"/>
        <pt x="213" y="42" on="1"/>
        <pt x="296" y="28" on="1"/>
        <pt x="289" y="-8" on="1"/>
        <pt x="219" y="0" on="0"/>
        <pt x="131" y="0" on="0"/>
        <pt x="57" y="-8" on="1"/>
        <pt x="50" y="25" on="1"/>
        <pt x="90" y="30" on="0"/>
        <pt x="125" y="45" on="0"/>
        <pt x="125" y="69" on="1"/>
        <pt x="125" y="583" on="1"/>
        <pt x="125" y="607" on="0"/>
        <pt x="109" y="613" on="1"/>
        <pt x="95" y="620" on="0"/>
        <pt x="61" y="624" on="1"/>
        <pt x="50" y="626" on="1"/>
        <pt x="57" y="659" on="1"/>
        <pt x="104" y="650" on="0"/>
        <pt x="200" y="650" on="0"/>
        <pt x="241" y="659" on="1"/>
        <pt x="262" y="619" on="0"/>
        <pt x="303" y="563" on="1"/>
        <pt x="554" y="216" on="1"/>
        <pt x="571" y="191" on="0"/>
        <pt x="582" y="157" on="1"/>
        <pt x="586" y="145" on="1"/>
        <pt x="591" y="149" on="1"/>
        <pt x="591" y="580" on="1"/>
        <pt x="591" y="603" on="0"/>
        <pt x="574" y="610" on="1"/>
        <pt x="558" y="618" on="0"/>
        <pt x="520" y="622" on="1"/>
        <pt x="507" y="624" on="1"/>
        <pt x="514" y="659" on="1"/>
        <pt x="590" y="650" on="0"/>
        <pt x="651" y="650" on="0"/>
        <pt x="725" y="659" on="1"/>
        <pt x="732" y="626" on="1"/>
        <pt x="693" y="621" on="0"/>
        <pt x="657" y="606" on="0"/>
        <pt x="657" y="583" on="1"/>
        <pt x="657" y="193" on="1"/>
        <pt x="657" y="113" on="0"/>
        <pt x="663" y="29" on="1"/>
        <pt x="665" y="1" on="1"/>
        <pt x="590" y="-14" on="1"/>
        <pt x="555" y="70" on="0"/>
        <pt x="475" y="178" on="1"/>
        <pt x="232" y="507" on="1"/>
        <pt x="215" y="531" on="0"/>
        <pt x="201" y="561" on="1"/>
        <pt x="196" y="572" on="1"/>
        <pt x="191" y="568" on="1"/>
      </contour>
      <contour>
        <pt x="518" y="817" on="1"/>
        <pt x="524" y="799" on="1"/>
        <pt x="336" y="681" on="1"/>
        <pt x="310" y="708" on="1"/>
        <pt x="321" y="721" on="0"/>
        <pt x="423" y="826" on="0"/>
        <pt x="434" y="833" on="1"/>
        <pt x="447" y="833" on="0"/>
        <pt x="506" y="822" on="0"/>
      </contour>
    </TTGlyph>
    <TTGlyph name="Ncaron" xMin="50" yMin="-14" xMax="732" yMax="836">
      <contour>
        <pt x="191" y="77" on="1"/>
        <pt x="191" y="62" on="0"/>
        <pt x="199" y="46" on="0"/>
        <pt x="213" y="42" on="1"/>
        <pt x="296" y="28" on="1"/>
        <pt x="289" y="-8" on="1"/>
        <pt x="219" y="0" on="0"/>
        <pt x="131" y="0" on="0"/>
        <pt x="57" y="-8" on="1"/>
        <pt x="50" y="25" on="1"/>
        <pt x="90" y="30" on="0"/>
        <pt x="125" y="45" on="0"/>
        <pt x="125" y="69" on="1"/>
        <pt x="125" y="583" on="1"/>
        <pt x="125" y="607" on="0"/>
        <pt x="109" y="613" on="1"/>
        <pt x="95" y="620" on="0"/>
        <pt x="61" y="624" on="1"/>
        <pt x="50" y="626" on="1"/>
        <pt x="57" y="659" on="1"/>
        <pt x="104" y="650" on="0"/>
        <pt x="200" y="650" on="0"/>
        <pt x="241" y="659" on="1"/>
        <pt x="262" y="619" on="0"/>
        <pt x="303" y="563" on="1"/>
        <pt x="554" y="216" on="1"/>
        <pt x="571" y="191" on="0"/>
        <pt x="582" y="157" on="1"/>
        <pt x="586" y="145" on="1"/>
        <pt x="591" y="149" on="1"/>
        <pt x="591" y="580" on="1"/>
        <pt x="591" y="603" on="0"/>
        <pt x="574" y="610" on="1"/>
        <pt x="558" y="618" on="0"/>
        <pt x="520" y="622" on="1"/>
        <pt x="507" y="624" on="1"/>
        <pt x="514" y="659" on="1"/>
        <pt x="590" y="650" on="0"/>
        <pt x="651" y="650" on="0"/>
        <pt x="725" y="659" on="1"/>
        <pt x="732" y="626" on="1"/>
        <pt x="693" y="621" on="0"/>
        <pt x="657" y="606" on="0"/>
        <pt x="657" y="583" on="1"/>
        <pt x="657" y="193" on="1"/>
        <pt x="657" y="113" on="0"/>
        <pt x="663" y="29" on="1"/>
        <pt x="665" y="1" on="1"/>
        <pt x="590" y="-14" on="1"/>
        <pt x="555" y="70" on="0"/>
        <pt x="475" y="178" on="1"/>
        <pt x="232" y="507" on="1"/>
        <pt x="215" y="531" on="0"/>
        <pt x="201" y="561" on="1"/>
        <pt x="196" y="572" on="1"/>
        <pt x="191" y="568" on="1"/>
      </contour>
      <contour>
        <pt x="417" y="686" on="0"/>
        <pt x="367" y="686" on="0"/>
        <pt x="351" y="688" on="1"/>
        <pt x="339" y="697" on="0"/>
        <pt x="255" y="804" on="0"/>
        <pt x="249" y="815" on="1"/>
        <pt x="277" y="836" on="1"/>
        <pt x="392" y="746" on="1"/>
        <pt x="507" y="836" on="1"/>
        <pt x="535" y="815" on="1"/>
        <pt x="529" y="804" on="0"/>
        <pt x="445" y="697" on="0"/>
        <pt x="433" y="688" on="1"/>
      </contour>
    </TTGlyph>
    <TTGlyph name="Ncommaaccent" xMin="50" yMin="-260" xMax="732" yMax="659">
      <contour>
        <pt x="191" y="77" on="1"/>
        <pt x="191" y="62" on="0"/>
        <pt x="199" y="46" on="0"/>
        <pt x="213" y="42" on="1"/>
        <pt x="296" y="28" on="1"/>
        <pt x="289" y="-8" on="1"/>
        <pt x="219" y="0" on="0"/>
        <pt x="131" y="0" on="0"/>
        <pt x="57" y="-8" on="1"/>
        <pt x="50" y="25" on="1"/>
        <pt x="90" y="30" on="0"/>
        <pt x="125" y="45" on="0"/>
        <pt x="125" y="69" on="1"/>
        <pt x="125" y="583" on="1"/>
        <pt x="125" y="607" on="0"/>
        <pt x="109" y="613" on="1"/>
        <pt x="95" y="620" on="0"/>
        <pt x="61" y="624" on="1"/>
        <pt x="50" y="626" on="1"/>
        <pt x="57" y="659" on="1"/>
        <pt x="104" y="650" on="0"/>
        <pt x="200" y="650" on="0"/>
        <pt x="241" y="659" on="1"/>
        <pt x="262" y="619" on="0"/>
        <pt x="303" y="563" on="1"/>
        <pt x="554" y="216" on="1"/>
        <pt x="571" y="191" on="0"/>
        <pt x="582" y="157" on="1"/>
        <pt x="586" y="145" on="1"/>
        <pt x="591" y="149" on="1"/>
        <pt x="591" y="580" on="1"/>
        <pt x="591" y="603" on="0"/>
        <pt x="574" y="610" on="1"/>
        <pt x="558" y="618" on="0"/>
        <pt x="520" y="622" on="1"/>
        <pt x="507" y="624" on="1"/>
        <pt x="514" y="659" on="1"/>
        <pt x="590" y="650" on="0"/>
        <pt x="651" y="650" on="0"/>
        <pt x="725" y="659" on="1"/>
        <pt x="732" y="626" on="1"/>
        <pt x="693" y="621" on="0"/>
        <pt x="657" y="606" on="0"/>
        <pt x="657" y="583" on="1"/>
        <pt x="657" y="193" on="1"/>
        <pt x="657" y="113" on="0"/>
        <pt x="663" y="29" on="1"/>
        <pt x="665" y="1" on="1"/>
        <pt x="590" y="-14" on="1"/>
        <pt x="555" y="70" on="0"/>
        <pt x="475" y="178" on="1"/>
        <pt x="232" y="507" on="1"/>
        <pt x="215" y="531" on="0"/>
        <pt x="201" y="561" on="1"/>
        <pt x="196" y="572" on="1"/>
        <pt x="191" y="568" on="1"/>
      </contour>
      <contour>
        <pt x="408" y="-43" on="0"/>
        <pt x="458" y="-80" on="0"/>
        <pt x="458" y="-138" on="0"/>
        <pt x="388" y="-231" on="0"/>
        <pt x="354" y="-260" on="1"/>
        <pt x="332" y="-242" on="1"/>
        <pt x="353" y="-221" on="0"/>
        <pt x="392" y="-162" on="0"/>
        <pt x="392" y="-120" on="0"/>
        <pt x="334" y="-114" on="1"/>
        <pt x="327" y="-98" on="1"/>
        <pt x="335" y="-85" on="0"/>
        <pt x="369" y="-49" on="0"/>
        <pt x="381" y="-41" on="1"/>
      </contour>
    </TTGlyph>
    <TTGlyph name="Ntilde" xMin="50" yMin="-14" xMax="732" yMax="801">
      <contour>
        <pt x="191" y="77" on="1"/>
        <pt x="191" y="62" on="0"/>
        <pt x="199" y="46" on="0"/>
        <pt x="213" y="42" on="1"/>
        <pt x="296" y="28" on="1"/>
        <pt x="289" y="-8" on="1"/>
        <pt x="219" y="0" on="0"/>
        <pt x="131" y="0" on="0"/>
        <pt x="57" y="-8" on="1"/>
        <pt x="50" y="25" on="1"/>
        <pt x="90" y="30" on="0"/>
        <pt x="125" y="45" on="0"/>
        <pt x="125" y="69" on="1"/>
        <pt x="125" y="583" on="1"/>
        <pt x="125" y="607" on="0"/>
        <pt x="109" y="613" on="1"/>
        <pt x="95" y="620" on="0"/>
        <pt x="61" y="624" on="1"/>
        <pt x="50" y="626" on="1"/>
        <pt x="57" y="659" on="1"/>
        <pt x="104" y="650" on="0"/>
        <pt x="200" y="650" on="0"/>
        <pt x="241" y="659" on="1"/>
        <pt x="262" y="619" on="0"/>
        <pt x="303" y="563" on="1"/>
        <pt x="554" y="216" on="1"/>
        <pt x="571" y="191" on="0"/>
        <pt x="582" y="157" on="1"/>
        <pt x="586" y="145" on="1"/>
        <pt x="591" y="149" on="1"/>
        <pt x="591" y="580" on="1"/>
        <pt x="591" y="603" on="0"/>
        <pt x="574" y="610" on="1"/>
        <pt x="558" y="618" on="0"/>
        <pt x="520" y="622" on="1"/>
        <pt x="507" y="624" on="1"/>
        <pt x="514" y="659" on="1"/>
        <pt x="590" y="650" on="0"/>
        <pt x="651" y="650" on="0"/>
        <pt x="725" y="659" on="1"/>
        <pt x="732" y="626" on="1"/>
        <pt x="693" y="621" on="0"/>
        <pt x="657" y="606" on="0"/>
        <pt x="657" y="583" on="1"/>
        <pt x="657" y="193" on="1"/>
        <pt x="657" y="113" on="0"/>
        <pt x="663" y="29" on="1"/>
        <pt x="665" y="1" on="1"/>
        <pt x="590" y="-14" on="1"/>
        <pt x="555" y="70" on="0"/>
        <pt x="475" y="178" on="1"/>
        <pt x="232" y="507" on="1"/>
        <pt x="215" y="531" on="0"/>
        <pt x="201" y="561" on="1"/>
        <pt x="196" y="572" on="1"/>
        <pt x="191" y="568" on="1"/>
      </contour>
      <contour>
        <pt x="347" y="734" on="0"/>
        <pt x="299" y="734" on="0"/>
        <pt x="265" y="692" on="1"/>
        <pt x="238" y="708" on="1"/>
        <pt x="248" y="726" on="0"/>
        <pt x="299" y="784" on="0"/>
        <pt x="313" y="795" on="1"/>
        <pt x="336" y="799" on="1"/>
        <pt x="348" y="797" on="0"/>
        <pt x="438" y="758" on="0"/>
        <pt x="485" y="758" on="0"/>
        <pt x="520" y="801" on="1"/>
        <pt x="547" y="784" on="1"/>
        <pt x="536" y="766" on="0"/>
        <pt x="485" y="706" on="0"/>
        <pt x="472" y="696" on="1"/>
        <pt x="449" y="692" on="1"/>
        <pt x="437" y="694" on="0"/>
      </contour>
    </TTGlyph>
    <TTGlyph name="O" xMin="47" yMin="-16" xMax="708" yMax="666">
      <contour>
        <pt x="227" y="-16" on="0"/>
        <pt x="47" y="158" on="0"/>
        <pt x="47" y="464" on="0"/>
        <pt x="226" y="666" on="0"/>
        <pt x="528" y="666" on="0"/>
        <pt x="708" y="492" on="0"/>
        <pt x="708" y="186" on="0"/>
        <pt x="529" y="-16" on="0"/>
      </contour>
      <contour>
        <pt x="258" y="618" on="0"/>
        <pt x="148" y="466" on="0"/>
        <pt x="148" y="212" on="0"/>
        <pt x="272" y="32" on="0"/>
        <pt x="497" y="32" on="0"/>
        <pt x="607" y="184" on="0"/>
        <pt x="607" y="438" on="0"/>
        <pt x="483" y="618" on="0"/>
      </contour>
    </TTGlyph>
    <TTGlyph name="OE" xMin="58" yMin="-16" xMax="906" yMax="666">
      <contour>
        <pt x="371" y="666" on="1"/>
        <pt x="412" y="666" on="0"/>
        <pt x="443" y="659" on="1"/>
        <pt x="519" y="650" on="0"/>
        <pt x="556" y="650" on="1"/>
        <pt x="792" y="650" on="1"/>
        <pt x="838" y="650" on="0"/>
        <pt x="874" y="656" on="1"/>
        <pt x="874" y="501" on="1"/>
        <pt x="837" y="495" on="1"/>
        <pt x="823" y="580" on="0"/>
        <pt x="805" y="603" on="1"/>
        <pt x="600" y="603" on="1"/>
        <pt x="600" y="360" on="1"/>
        <pt x="735" y="360" on="1"/>
        <pt x="763" y="360" on="0"/>
        <pt x="768" y="375" on="1"/>
        <pt x="774" y="389" on="0"/>
        <pt x="778" y="422" on="1"/>
        <pt x="780" y="434" on="1"/>
        <pt x="818" y="430" on="1"/>
        <pt x="810" y="380" on="0"/>
        <pt x="810" y="292" on="0"/>
        <pt x="818" y="242" on="1"/>
        <pt x="780" y="238" on="1"/>
        <pt x="775" y="281" on="0"/>
        <pt x="762" y="312" on="0"/>
        <pt x="735" y="312" on="1"/>
        <pt x="600" y="312" on="1"/>
        <pt x="600" y="48" on="1"/>
        <pt x="815" y="48" on="1"/>
        <pt x="828" y="60" on="0"/>
        <pt x="863" y="147" on="0"/>
        <pt x="870" y="173" on="1"/>
        <pt x="906" y="167" on="1"/>
        <pt x="905" y="139" on="0"/>
        <pt x="891" y="20" on="0"/>
        <pt x="885" y="0" on="1"/>
        <pt x="556" y="0" on="1"/>
        <pt x="510" y="0" on="0"/>
        <pt x="443" y="-8" on="1"/>
        <pt x="411" y="-16" on="0"/>
        <pt x="376" y="-16" on="1"/>
        <pt x="230" y="-16" on="0"/>
        <pt x="58" y="158" on="0"/>
        <pt x="58" y="465" on="0"/>
        <pt x="228" y="666" on="0"/>
      </contour>
      <contour>
        <pt x="385" y="32" on="1"/>
        <pt x="461" y="32" on="0"/>
        <pt x="511" y="74" on="1"/>
        <pt x="511" y="557" on="1"/>
        <pt x="452" y="618" on="0"/>
        <pt x="260" y="618" on="0"/>
        <pt x="159" y="466" on="0"/>
        <pt x="159" y="212" on="0"/>
        <pt x="274" y="32" on="0"/>
      </contour>
    </TTGlyph>
    <TTGlyph name="Oacute" xMin="47" yMin="-16" xMax="708" yMax="833">
      <contour>
        <pt x="227" y="-16" on="0"/>
        <pt x="47" y="158" on="0"/>
        <pt x="47" y="464" on="0"/>
        <pt x="226" y="666" on="0"/>
        <pt x="528" y="666" on="0"/>
        <pt x="708" y="492" on="0"/>
        <pt x="708" y="186" on="0"/>
        <pt x="529" y="-16" on="0"/>
      </contour>
      <contour>
        <pt x="258" y="618" on="0"/>
        <pt x="148" y="466" on="0"/>
        <pt x="148" y="212" on="0"/>
        <pt x="272" y="32" on="0"/>
        <pt x="497" y="32" on="0"/>
        <pt x="607" y="184" on="0"/>
        <pt x="607" y="438" on="0"/>
        <pt x="483" y="618" on="0"/>
      </contour>
      <contour>
        <pt x="501" y="817" on="1"/>
        <pt x="507" y="799" on="1"/>
        <pt x="319" y="681" on="1"/>
        <pt x="293" y="708" on="1"/>
        <pt x="304" y="721" on="0"/>
        <pt x="406" y="826" on="0"/>
        <pt x="417" y="833" on="1"/>
        <pt x="430" y="833" on="0"/>
        <pt x="489" y="822" on="0"/>
      </contour>
    </TTGlyph>
    <TTGlyph name="Obreve" xMin="47" yMin="-16" xMax="708" yMax="832">
      <contour>
        <pt x="227" y="-16" on="0"/>
        <pt x="47" y="158" on="0"/>
        <pt x="47" y="464" on="0"/>
        <pt x="226" y="666" on="0"/>
        <pt x="528" y="666" on="0"/>
        <pt x="708" y="492" on="0"/>
        <pt x="708" y="186" on="0"/>
        <pt x="529" y="-16" on="0"/>
      </contour>
      <contour>
        <pt x="258" y="618" on="0"/>
        <pt x="148" y="466" on="0"/>
        <pt x="148" y="212" on="0"/>
        <pt x="272" y="32" on="0"/>
        <pt x="497" y="32" on="0"/>
        <pt x="607" y="184" on="0"/>
        <pt x="607" y="438" on="0"/>
        <pt x="483" y="618" on="0"/>
      </contour>
      <contour>
        <pt x="508" y="764" on="0"/>
        <pt x="437" y="688" on="0"/>
        <pt x="320" y="688" on="0"/>
        <pt x="254" y="762" on="0"/>
        <pt x="254" y="823" on="1"/>
        <pt x="285" y="832" on="1"/>
        <pt x="300" y="753" on="0"/>
        <pt x="462" y="753" on="0"/>
        <pt x="477" y="832" on="1"/>
        <pt x="508" y="823" on="1"/>
      </contour>
    </TTGlyph>
    <TTGlyph name="Ocircumflex" xMin="47" yMin="-16" xMax="708" yMax="831">
      <contour>
        <pt x="227" y="-16" on="0"/>
        <pt x="47" y="158" on="0"/>
        <pt x="47" y="464" on="0"/>
        <pt x="226" y="666" on="0"/>
        <pt x="528" y="666" on="0"/>
        <pt x="708" y="492" on="0"/>
        <pt x="708" y="186" on="0"/>
        <pt x="529" y="-16" on="0"/>
      </contour>
      <contour>
        <pt x="258" y="618" on="0"/>
        <pt x="148" y="466" on="0"/>
        <pt x="148" y="212" on="0"/>
        <pt x="272" y="32" on="0"/>
        <pt x="497" y="32" on="0"/>
        <pt x="607" y="184" on="0"/>
        <pt x="607" y="438" on="0"/>
        <pt x="483" y="618" on="0"/>
      </contour>
      <contour>
        <pt x="350" y="831" on="0"/>
        <pt x="400" y="831" on="0"/>
        <pt x="416" y="829" on="1"/>
        <pt x="428" y="820" on="0"/>
        <pt x="512" y="713" on="0"/>
        <pt x="518" y="702" on="1"/>
        <pt x="490" y="681" on="1"/>
        <pt x="375" y="771" on="1"/>
        <pt x="260" y="681" on="1"/>
        <pt x="232" y="702" on="1"/>
        <pt x="238" y="713" on="0"/>
        <pt x="322" y="820" on="0"/>
        <pt x="334" y="829" on="1"/>
      </contour>
    </TTGlyph>
    <TTGlyph name="Odieresis" xMin="47" yMin="-16" xMax="708" yMax="791">
      <contour>
        <pt x="227" y="-16" on="0"/>
        <pt x="47" y="158" on="0"/>
        <pt x="47" y="464" on="0"/>
        <pt x="226" y="666" on="0"/>
        <pt x="528" y="666" on="0"/>
        <pt x="708" y="492" on="0"/>
        <pt x="708" y="186" on="0"/>
        <pt x="529" y="-16" on="0"/>
      </contour>
      <contour>
        <pt x="258" y="618" on="0"/>
        <pt x="148" y="466" on="0"/>
        <pt x="148" y="212" on="0"/>
        <pt x="272" y="32" on="0"/>
        <pt x="497" y="32" on="0"/>
        <pt x="607" y="184" on="0"/>
        <pt x="607" y="438" on="0"/>
        <pt x="483" y="618" on="0"/>
      </contour>
      <contour>
        <pt x="223" y="715" on="0"/>
        <pt x="223" y="761" on="0"/>
        <pt x="254" y="791" on="0"/>
        <pt x="303" y="791" on="0"/>
        <pt x="334" y="761" on="0"/>
        <pt x="334" y="715" on="0"/>
        <pt x="303" y="686" on="0"/>
        <pt x="254" y="686" on="0"/>
      </contour>
      <contour>
        <pt x="415" y="715" on="0"/>
        <pt x="415" y="761" on="0"/>
        <pt x="446" y="791" on="0"/>
        <pt x="495" y="791" on="0"/>
        <pt x="526" y="761" on="0"/>
        <pt x="526" y="715" on="0"/>
        <pt x="495" y="686" on="0"/>
        <pt x="446" y="686" on="0"/>
      </contour>
    </TTGlyph>
    <TTGlyph name="Ograve" xMin="47" yMin="-16" xMax="708" yMax="833">
      <contour>
        <pt x="227" y="-16" on="0"/>
        <pt x="47" y="158" on="0"/>
        <pt x="47" y="464" on="0"/>
        <pt x="226" y="666" on="0"/>
        <pt x="528" y="666" on="0"/>
        <pt x="708" y="492" on="0"/>
        <pt x="708" y="186" on="0"/>
        <pt x="529" y="-16" on="0"/>
      </contour>
      <contour>
        <pt x="258" y="618" on="0"/>
        <pt x="148" y="466" on="0"/>
        <pt x="148" y="212" on="0"/>
        <pt x="272" y="32" on="0"/>
        <pt x="497" y="32" on="0"/>
        <pt x="607" y="184" on="0"/>
        <pt x="607" y="438" on="0"/>
        <pt x="483" y="618" on="0"/>
      </contour>
      <contour>
        <pt x="228" y="799" on="1"/>
        <pt x="234" y="817" on="1"/>
        <pt x="246" y="822" on="0"/>
        <pt x="305" y="833" on="0"/>
        <pt x="318" y="833" on="1"/>
        <pt x="329" y="826" on="0"/>
        <pt x="431" y="721" on="0"/>
        <pt x="442" y="708" on="1"/>
        <pt x="416" y="681" on="1"/>
      </contour>
    </TTGlyph>
    <TTGlyph name="Ohorn" xMin="47" yMin="-16" xMax="717" yMax="777">
      <contour>
        <pt x="227" y="-16" on="0"/>
        <pt x="47" y="158" on="0"/>
        <pt x="47" y="464" on="0"/>
        <pt x="226" y="666" on="0"/>
        <pt x="375" y="666" on="1"/>
        <pt x="493" y="666" on="0"/>
        <pt x="575" y="612" on="1"/>
        <pt x="643" y="635" on="0"/>
        <pt x="643" y="673" on="1"/>
        <pt x="643" y="686" on="0"/>
        <pt x="616" y="710" on="0"/>
        <pt x="599" y="714" on="1"/>
        <pt x="599" y="737" on="1"/>
        <pt x="611" y="747" on="0"/>
        <pt x="663" y="774" on="0"/>
        <pt x="677" y="777" on="1"/>
        <pt x="695" y="769" on="0"/>
        <pt x="717" y="729" on="0"/>
        <pt x="717" y="708" on="1"/>
        <pt x="717" y="623" on="0"/>
        <pt x="609" y="588" on="1"/>
        <pt x="708" y="500" on="0"/>
        <pt x="708" y="186" on="0"/>
        <pt x="529" y="-16" on="0"/>
      </contour>
      <contour>
        <pt x="258" y="618" on="0"/>
        <pt x="148" y="466" on="0"/>
        <pt x="148" y="212" on="0"/>
        <pt x="272" y="32" on="0"/>
        <pt x="497" y="32" on="0"/>
        <pt x="607" y="184" on="0"/>
        <pt x="607" y="438" on="0"/>
        <pt x="483" y="618" on="0"/>
      </contour>
    </TTGlyph>
    <TTGlyph name="Ohungarumlaut" xMin="47" yMin="-16" xMax="708" yMax="841">
      <contour>
        <pt x="227" y="-16" on="0"/>
        <pt x="47" y="158" on="0"/>
        <pt x="47" y="464" on="0"/>
        <pt x="226" y="666" on="0"/>
        <pt x="528" y="666" on="0"/>
        <pt x="708" y="492" on="0"/>
        <pt x="708" y="186" on="0"/>
        <pt x="529" y="-16" on="0"/>
      </contour>
      <contour>
        <pt x="258" y="618" on="0"/>
        <pt x="148" y="466" on="0"/>
        <pt x="148" y="212" on="0"/>
        <pt x="272" y="32" on="0"/>
        <pt x="497" y="32" on="0"/>
        <pt x="607" y="184" on="0"/>
        <pt x="607" y="438" on="0"/>
        <pt x="483" y="618" on="0"/>
      </contour>
      <contour>
        <pt x="481" y="837" on="1"/>
        <pt x="504" y="840" on="0"/>
        <pt x="557" y="840" on="0"/>
        <pt x="566" y="839" on="1"/>
        <pt x="576" y="822" on="1"/>
        <pt x="436" y="688" on="1"/>
        <pt x="400" y="704" on="1"/>
        <pt x="403" y="708" on="0"/>
        <pt x="475" y="829" on="0"/>
      </contour>
      <contour>
        <pt x="332" y="837" on="1"/>
        <pt x="355" y="840" on="0"/>
        <pt x="408" y="840" on="0"/>
        <pt x="417" y="839" on="1"/>
        <pt x="427" y="822" on="1"/>
        <pt x="287" y="688" on="1"/>
        <pt x="251" y="704" on="1"/>
        <pt x="254" y="708" on="0"/>
        <pt x="326" y="829" on="0"/>
      </contour>
    </TTGlyph>
    <TTGlyph name="Omacron" xMin="47" yMin="-16" xMax="708" yMax="764">
      <contour>
        <pt x="227" y="-16" on="0"/>
        <pt x="47" y="158" on="0"/>
        <pt x="47" y="464" on="0"/>
        <pt x="226" y="666" on="0"/>
        <pt x="528" y="666" on="0"/>
        <pt x="708" y="492" on="0"/>
        <pt x="708" y="186" on="0"/>
        <pt x="529" y="-16" on="0"/>
      </contour>
      <contour>
        <pt x="258" y="618" on="0"/>
        <pt x="148" y="466" on="0"/>
        <pt x="148" y="212" on="0"/>
        <pt x="272" y="32" on="0"/>
        <pt x="497" y="32" on="0"/>
        <pt x="607" y="184" on="0"/>
        <pt x="607" y="438" on="0"/>
        <pt x="483" y="618" on="0"/>
      </contour>
      <contour>
        <pt x="244" y="703" on="1"/>
        <pt x="255" y="764" on="1"/>
        <pt x="505" y="764" on="1"/>
        <pt x="494" y="703" on="1"/>
      </contour>
    </TTGlyph>
    <TTGlyph name="Oslash" xMin="47" yMin="-31" xMax="708" yMax="697">
      <contour>
        <pt x="143" y="64" on="1"/>
        <pt x="47" y="151" on="0"/>
        <pt x="47" y="464" on="0"/>
        <pt x="226" y="666" on="0"/>
        <pt x="375" y="666" on="1"/>
        <pt x="467" y="666" on="0"/>
        <pt x="540" y="632" on="1"/>
        <pt x="585" y="697" on="1"/>
        <pt x="619" y="660" on="1"/>
        <pt x="582" y="608" on="1"/>
        <pt x="708" y="521" on="0"/>
        <pt x="708" y="341" on="1"/>
        <pt x="708" y="186" on="0"/>
        <pt x="529" y="-16" on="0"/>
        <pt x="380" y="-16" on="1"/>
        <pt x="265" y="-16" on="0"/>
        <pt x="183" y="35" on="1"/>
        <pt x="137" y="-31" on="1"/>
        <pt x="102" y="5" on="1"/>
      </contour>
      <contour>
        <pt x="607" y="305" on="1"/>
        <pt x="607" y="455" on="0"/>
        <pt x="535" y="540" on="1"/>
        <pt x="228" y="99" on="1"/>
        <pt x="290" y="32" on="0"/>
        <pt x="497" y="32" on="0"/>
        <pt x="607" y="184" on="0"/>
      </contour>
      <contour>
        <pt x="148" y="466" on="0"/>
        <pt x="148" y="224" on="0"/>
        <pt x="197" y="141" on="1"/>
        <pt x="500" y="575" on="1"/>
        <pt x="443" y="618" on="0"/>
        <pt x="366" y="618" on="1"/>
        <pt x="258" y="618" on="0"/>
      </contour>
    </TTGlyph>
    <TTGlyph name="Oslashacute" xMin="47" yMin="-31" xMax="708" yMax="833">
      <contour>
        <pt x="143" y="64" on="1"/>
        <pt x="47" y="151" on="0"/>
        <pt x="47" y="464" on="0"/>
        <pt x="226" y="666" on="0"/>
        <pt x="375" y="666" on="1"/>
        <pt x="467" y="666" on="0"/>
        <pt x="540" y="632" on="1"/>
        <pt x="585" y="697" on="1"/>
        <pt x="619" y="660" on="1"/>
        <pt x="582" y="608" on="1"/>
        <pt x="708" y="521" on="0"/>
        <pt x="708" y="341" on="1"/>
        <pt x="708" y="186" on="0"/>
        <pt x="529" y="-16" on="0"/>
        <pt x="380" y="-16" on="1"/>
        <pt x="265" y="-16" on="0"/>
        <pt x="183" y="35" on="1"/>
        <pt x="137" y="-31" on="1"/>
        <pt x="102" y="5" on="1"/>
      </contour>
      <contour>
        <pt x="607" y="305" on="1"/>
        <pt x="607" y="455" on="0"/>
        <pt x="535" y="540" on="1"/>
        <pt x="228" y="99" on="1"/>
        <pt x="290" y="32" on="0"/>
        <pt x="497" y="32" on="0"/>
        <pt x="607" y="184" on="0"/>
      </contour>
      <contour>
        <pt x="148" y="466" on="0"/>
        <pt x="148" y="224" on="0"/>
        <pt x="197" y="141" on="1"/>
        <pt x="500" y="575" on="1"/>
        <pt x="443" y="618" on="0"/>
        <pt x="366" y="618" on="1"/>
        <pt x="258" y="618" on="0"/>
      </contour>
      <contour>
        <pt x="500" y="817" on="1"/>
        <pt x="506" y="799" on="1"/>
        <pt x="318" y="681" on="1"/>
        <pt x="292" y="708" on="1"/>
        <pt x="303" y="721" on="0"/>
        <pt x="405" y="826" on="0"/>
        <pt x="416" y="833" on="1"/>
        <pt x="429" y="833" on="0"/>
        <pt x="488" y="822" on="0"/>
      </contour>
    </TTGlyph>
    <TTGlyph name="Otilde" xMin="47" yMin="-16" xMax="708" yMax="800">
      <contour>
        <pt x="227" y="-16" on="0"/>
        <pt x="47" y="158" on="0"/>
        <pt x="47" y="464" on="0"/>
        <pt x="226" y="666" on="0"/>
        <pt x="528" y="666" on="0"/>
        <pt x="708" y="492" on="0"/>
        <pt x="708" y="186" on="0"/>
        <pt x="529" y="-16" on="0"/>
      </contour>
      <contour>
        <pt x="258" y="618" on="0"/>
        <pt x="148" y="466" on="0"/>
        <pt x="148" y="212" on="0"/>
        <pt x="272" y="32" on="0"/>
        <pt x="497" y="32" on="0"/>
        <pt x="607" y="184" on="0"/>
        <pt x="607" y="438" on="0"/>
        <pt x="483" y="618" on="0"/>
      </contour>
      <contour>
        <pt x="330" y="733" on="0"/>
        <pt x="282" y="733" on="0"/>
        <pt x="248" y="691" on="1"/>
        <pt x="221" y="707" on="1"/>
        <pt x="231" y="725" on="0"/>
        <pt x="282" y="783" on="0"/>
        <pt x="296" y="794" on="1"/>
        <pt x="319" y="798" on="1"/>
        <pt x="331" y="796" on="0"/>
        <pt x="421" y="757" on="0"/>
        <pt x="468" y="757" on="0"/>
        <pt x="503" y="800" on="1"/>
        <pt x="530" y="783" on="1"/>
        <pt x="519" y="765" on="0"/>
        <pt x="468" y="705" on="0"/>
        <pt x="455" y="695" on="1"/>
        <pt x="432" y="691" on="1"/>
        <pt x="420" y="693" on="0"/>
      </contour>
    </TTGlyph>
    <TTGlyph name="P" xMin="50" yMin="-8" xMax="521" yMax="658">
      <contour>
        <pt x="89" y="650" on="1"/>
        <pt x="277" y="658" on="1"/>
        <pt x="521" y="658" on="0"/>
        <pt x="521" y="474" on="1"/>
        <pt x="521" y="391" on="0"/>
        <pt x="385" y="273" on="0"/>
        <pt x="298" y="273" on="1"/>
        <pt x="284" y="273" on="0"/>
        <pt x="242" y="291" on="0"/>
        <pt x="232" y="298" on="1"/>
        <pt x="228" y="314" on="1"/>
        <pt x="242" y="310" on="0"/>
        <pt x="261" y="310" on="1"/>
        <pt x="422" y="310" on="0"/>
        <pt x="422" y="461" on="1"/>
        <pt x="422" y="619" on="0"/>
        <pt x="271" y="619" on="1"/>
        <pt x="244" y="619" on="0"/>
        <pt x="214" y="612" on="1"/>
        <pt x="214" y="77" on="1"/>
        <pt x="214" y="62" on="0"/>
        <pt x="222" y="46" on="0"/>
        <pt x="236" y="42" on="1"/>
        <pt x="319" y="28" on="1"/>
        <pt x="312" y="-8" on="1"/>
        <pt x="242" y="0" on="0"/>
        <pt x="131" y="0" on="0"/>
        <pt x="57" y="-8" on="1"/>
        <pt x="50" y="25" on="1"/>
        <pt x="90" y="30" on="0"/>
        <pt x="125" y="45" on="0"/>
        <pt x="125" y="69" on="1"/>
        <pt x="125" y="579" on="1"/>
        <pt x="125" y="602" on="0"/>
        <pt x="109" y="609" on="1"/>
        <pt x="96" y="615" on="0"/>
        <pt x="60" y="620" on="1"/>
        <pt x="50" y="622" on="1"/>
        <pt x="57" y="653" on="1"/>
        <pt x="62" y="650" on="0"/>
      </contour>
    </TTGlyph>
    <TTGlyph name="Q" xMin="47" yMin="-213" xMax="708" yMax="666">
      <contour>
        <pt x="217" y="-11" on="0"/>
        <pt x="47" y="162" on="0"/>
        <pt x="47" y="464" on="0"/>
        <pt x="226" y="666" on="0"/>
        <pt x="528" y="666" on="0"/>
        <pt x="708" y="492" on="0"/>
        <pt x="708" y="189" on="0"/>
        <pt x="536" y="-11" on="0"/>
        <pt x="392" y="-15" on="1"/>
        <pt x="414" y="-22" on="0"/>
        <pt x="560" y="-135" on="0"/>
        <pt x="632" y="-135" on="0"/>
        <pt x="668" y="-92" on="1"/>
        <pt x="691" y="-120" on="1"/>
        <pt x="642" y="-174" on="0"/>
        <pt x="589" y="-213" on="0"/>
        <pt x="527" y="-213" on="0"/>
        <pt x="447" y="-152" on="0"/>
        <pt x="378" y="-91" on="0"/>
        <pt x="340" y="-91" on="0"/>
        <pt x="294" y="-122" on="0"/>
        <pt x="279" y="-138" on="1"/>
        <pt x="251" y="-115" on="1"/>
        <pt x="268" y="-93" on="0"/>
        <pt x="344" y="-25" on="0"/>
        <pt x="363" y="-16" on="1"/>
      </contour>
      <contour>
        <pt x="258" y="618" on="0"/>
        <pt x="148" y="466" on="0"/>
        <pt x="148" y="212" on="0"/>
        <pt x="272" y="30" on="0"/>
        <pt x="498" y="30" on="0"/>
        <pt x="607" y="183" on="0"/>
        <pt x="607" y="438" on="0"/>
        <pt x="483" y="618" on="0"/>
      </contour>
    </TTGlyph>
    <TTGlyph name="R" xMin="50" yMin="-8" xMax="651" yMax="658">
      <contour>
        <pt x="214" y="331" on="1"/>
        <pt x="269" y="331" on="1"/>
        <pt x="343" y="331" on="0"/>
        <pt x="422" y="403" on="0"/>
        <pt x="422" y="549" on="0"/>
        <pt x="352" y="619" on="0"/>
        <pt x="279" y="619" on="1"/>
        <pt x="240" y="619" on="0"/>
        <pt x="214" y="612" on="1"/>
      </contour>
      <contour>
        <pt x="87" y="650" on="1"/>
        <pt x="279" y="658" on="1"/>
        <pt x="387" y="658" on="0"/>
        <pt x="521" y="579" on="0"/>
        <pt x="521" y="489" on="1"/>
        <pt x="521" y="423" on="0"/>
        <pt x="430" y="325" on="0"/>
        <pt x="368" y="320" on="1"/>
        <pt x="368" y="313" on="1"/>
        <pt x="393" y="306" on="0"/>
        <pt x="450" y="232" on="0"/>
        <pt x="471" y="190" on="1"/>
        <pt x="529" y="74" on="0"/>
        <pt x="603" y="26" on="0"/>
        <pt x="651" y="26" on="1"/>
        <pt x="646" y="-6" on="1"/>
        <pt x="504" y="-6" on="1"/>
        <pt x="473" y="-6" on="0"/>
        <pt x="412" y="102" on="1"/>
        <pt x="397" y="127" on="0"/>
        <pt x="357" y="198" on="0"/>
        <pt x="343" y="222" on="0"/>
        <pt x="331" y="241" on="0"/>
        <pt x="326" y="249" on="0"/>
        <pt x="317" y="262" on="0"/>
        <pt x="312" y="268" on="0"/>
        <pt x="308" y="272" on="1"/>
        <pt x="294" y="289" on="0"/>
        <pt x="257" y="289" on="1"/>
        <pt x="214" y="289" on="1"/>
        <pt x="214" y="77" on="1"/>
        <pt x="214" y="62" on="0"/>
        <pt x="222" y="46" on="0"/>
        <pt x="236" y="42" on="1"/>
        <pt x="319" y="28" on="1"/>
        <pt x="312" y="-8" on="1"/>
        <pt x="242" y="0" on="0"/>
        <pt x="131" y="0" on="0"/>
        <pt x="57" y="-8" on="1"/>
        <pt x="50" y="25" on="1"/>
        <pt x="90" y="30" on="0"/>
        <pt x="125" y="45" on="0"/>
        <pt x="125" y="69" on="1"/>
        <pt x="125" y="579" on="1"/>
        <pt x="125" y="602" on="0"/>
        <pt x="109" y="609" on="1"/>
        <pt x="96" y="615" on="0"/>
        <pt x="60" y="620" on="1"/>
        <pt x="50" y="622" on="1"/>
        <pt x="57" y="653" on="1"/>
        <pt x="62" y="650" on="0"/>
      </contour>
    </TTGlyph>
    <TTGlyph name="Racute" xMin="50" yMin="-8" xMax="651" yMax="833">
      <contour>
        <pt x="214" y="331" on="1"/>
        <pt x="269" y="331" on="1"/>
        <pt x="343" y="331" on="0"/>
        <pt x="422" y="403" on="0"/>
        <pt x="422" y="549" on="0"/>
        <pt x="352" y="619" on="0"/>
        <pt x="279" y="619" on="1"/>
        <pt x="240" y="619" on="0"/>
        <pt x="214" y="612" on="1"/>
      </contour>
      <contour>
        <pt x="87" y="650" on="1"/>
        <pt x="279" y="658" on="1"/>
        <pt x="387" y="658" on="0"/>
        <pt x="521" y="579" on="0"/>
        <pt x="521" y="489" on="1"/>
        <pt x="521" y="423" on="0"/>
        <pt x="430" y="325" on="0"/>
        <pt x="368" y="320" on="1"/>
        <pt x="368" y="313" on="1"/>
        <pt x="393" y="306" on="0"/>
        <pt x="450" y="232" on="0"/>
        <pt x="471" y="190" on="1"/>
        <pt x="529" y="74" on="0"/>
        <pt x="603" y="26" on="0"/>
        <pt x="651" y="26" on="1"/>
        <pt x="646" y="-6" on="1"/>
        <pt x="504" y="-6" on="1"/>
        <pt x="473" y="-6" on="0"/>
        <pt x="412" y="102" on="1"/>
        <pt x="397" y="127" on="0"/>
        <pt x="357" y="198" on="0"/>
        <pt x="343" y="222" on="0"/>
        <pt x="331" y="241" on="0"/>
        <pt x="326" y="249" on="0"/>
        <pt x="317" y="262" on="0"/>
        <pt x="312" y="268" on="0"/>
        <pt x="308" y="272" on="1"/>
        <pt x="294" y="289" on="0"/>
        <pt x="257" y="289" on="1"/>
        <pt x="214" y="289" on="1"/>
        <pt x="214" y="77" on="1"/>
        <pt x="214" y="62" on="0"/>
        <pt x="222" y="46" on="0"/>
        <pt x="236" y="42" on="1"/>
        <pt x="319" y="28" on="1"/>
        <pt x="312" y="-8" on="1"/>
        <pt x="242" y="0" on="0"/>
        <pt x="131" y="0" on="0"/>
        <pt x="57" y="-8" on="1"/>
        <pt x="50" y="25" on="1"/>
        <pt x="90" y="30" on="0"/>
        <pt x="125" y="45" on="0"/>
        <pt x="125" y="69" on="1"/>
        <pt x="125" y="579" on="1"/>
        <pt x="125" y="602" on="0"/>
        <pt x="109" y="609" on="1"/>
        <pt x="96" y="615" on="0"/>
        <pt x="60" y="620" on="1"/>
        <pt x="50" y="622" on="1"/>
        <pt x="57" y="653" on="1"/>
        <pt x="62" y="650" on="0"/>
      </contour>
      <contour>
        <pt x="405" y="817" on="1"/>
        <pt x="411" y="799" on="1"/>
        <pt x="223" y="681" on="1"/>
        <pt x="197" y="708" on="1"/>
        <pt x="208" y="721" on="0"/>
        <pt x="310" y="826" on="0"/>
        <pt x="321" y="833" on="1"/>
        <pt x="334" y="833" on="0"/>
        <pt x="393" y="822" on="0"/>
      </contour>
    </TTGlyph>
    <TTGlyph name="Rcaron" xMin="50" yMin="-8" xMax="651" yMax="836">
      <contour>
        <pt x="214" y="331" on="1"/>
        <pt x="269" y="331" on="1"/>
        <pt x="343" y="331" on="0"/>
        <pt x="422" y="403" on="0"/>
        <pt x="422" y="549" on="0"/>
        <pt x="352" y="619" on="0"/>
        <pt x="279" y="619" on="1"/>
        <pt x="240" y="619" on="0"/>
        <pt x="214" y="612" on="1"/>
      </contour>
      <contour>
        <pt x="87" y="650" on="1"/>
        <pt x="279" y="658" on="1"/>
        <pt x="387" y="658" on="0"/>
        <pt x="521" y="579" on="0"/>
        <pt x="521" y="489" on="1"/>
        <pt x="521" y="423" on="0"/>
        <pt x="430" y="325" on="0"/>
        <pt x="368" y="320" on="1"/>
        <pt x="368" y="313" on="1"/>
        <pt x="393" y="306" on="0"/>
        <pt x="450" y="232" on="0"/>
        <pt x="471" y="190" on="1"/>
        <pt x="529" y="74" on="0"/>
        <pt x="603" y="26" on="0"/>
        <pt x="651" y="26" on="1"/>
        <pt x="646" y="-6" on="1"/>
        <pt x="504" y="-6" on="1"/>
        <pt x="473" y="-6" on="0"/>
        <pt x="412" y="102" on="1"/>
        <pt x="397" y="127" on="0"/>
        <pt x="357" y="198" on="0"/>
        <pt x="343" y="222" on="0"/>
        <pt x="331" y="241" on="0"/>
        <pt x="326" y="249" on="0"/>
        <pt x="317" y="262" on="0"/>
        <pt x="312" y="268" on="0"/>
        <pt x="308" y="272" on="1"/>
        <pt x="294" y="289" on="0"/>
        <pt x="257" y="289" on="1"/>
        <pt x="214" y="289" on="1"/>
        <pt x="214" y="77" on="1"/>
        <pt x="214" y="62" on="0"/>
        <pt x="222" y="46" on="0"/>
        <pt x="236" y="42" on="1"/>
        <pt x="319" y="28" on="1"/>
        <pt x="312" y="-8" on="1"/>
        <pt x="242" y="0" on="0"/>
        <pt x="131" y="0" on="0"/>
        <pt x="57" y="-8" on="1"/>
        <pt x="50" y="25" on="1"/>
        <pt x="90" y="30" on="0"/>
        <pt x="125" y="45" on="0"/>
        <pt x="125" y="69" on="1"/>
        <pt x="125" y="579" on="1"/>
        <pt x="125" y="602" on="0"/>
        <pt x="109" y="609" on="1"/>
        <pt x="96" y="615" on="0"/>
        <pt x="60" y="620" on="1"/>
        <pt x="50" y="622" on="1"/>
        <pt x="57" y="653" on="1"/>
        <pt x="62" y="650" on="0"/>
      </contour>
      <contour>
        <pt x="304" y="686" on="0"/>
        <pt x="254" y="686" on="0"/>
        <pt x="238" y="688" on="1"/>
        <pt x="226" y="697" on="0"/>
        <pt x="142" y="804" on="0"/>
        <pt x="136" y="815" on="1"/>
        <pt x="164" y="836" on="1"/>
        <pt x="279" y="746" on="1"/>
        <pt x="394" y="836" on="1"/>
        <pt x="422" y="815" on="1"/>
        <pt x="416" y="804" on="0"/>
        <pt x="332" y="697" on="0"/>
        <pt x="320" y="688" on="1"/>
      </contour>
    </TTGlyph>
    <TTGlyph name="Rcommaaccent" xMin="50" yMin="-260" xMax="651" yMax="658">
      <contour>
        <pt x="214" y="331" on="1"/>
        <pt x="269" y="331" on="1"/>
        <pt x="343" y="331" on="0"/>
        <pt x="422" y="403" on="0"/>
        <pt x="422" y="549" on="0"/>
        <pt x="352" y="619" on="0"/>
        <pt x="279" y="619" on="1"/>
        <pt x="240" y="619" on="0"/>
        <pt x="214" y="612" on="1"/>
      </contour>
      <contour>
        <pt x="87" y="650" on="1"/>
        <pt x="279" y="658" on="1"/>
        <pt x="387" y="658" on="0"/>
        <pt x="521" y="579" on="0"/>
        <pt x="521" y="489" on="1"/>
        <pt x="521" y="423" on="0"/>
        <pt x="430" y="325" on="0"/>
        <pt x="368" y="320" on="1"/>
        <pt x="368" y="313" on="1"/>
        <pt x="393" y="306" on="0"/>
        <pt x="450" y="232" on="0"/>
        <pt x="471" y="190" on="1"/>
        <pt x="529" y="74" on="0"/>
        <pt x="603" y="26" on="0"/>
        <pt x="651" y="26" on="1"/>
        <pt x="646" y="-6" on="1"/>
        <pt x="504" y="-6" on="1"/>
        <pt x="473" y="-6" on="0"/>
        <pt x="412" y="102" on="1"/>
        <pt x="397" y="127" on="0"/>
        <pt x="357" y="198" on="0"/>
        <pt x="343" y="222" on="0"/>
        <pt x="331" y="241" on="0"/>
        <pt x="326" y="249" on="0"/>
        <pt x="317" y="262" on="0"/>
        <pt x="312" y="268" on="0"/>
        <pt x="308" y="272" on="1"/>
        <pt x="294" y="289" on="0"/>
        <pt x="257" y="289" on="1"/>
        <pt x="214" y="289" on="1"/>
        <pt x="214" y="77" on="1"/>
        <pt x="214" y="62" on="0"/>
        <pt x="222" y="46" on="0"/>
        <pt x="236" y="42" on="1"/>
        <pt x="319" y="28" on="1"/>
        <pt x="312" y="-8" on="1"/>
        <pt x="242" y="0" on="0"/>
        <pt x="131" y="0" on="0"/>
        <pt x="57" y="-8" on="1"/>
        <pt x="50" y="25" on="1"/>
        <pt x="90" y="30" on="0"/>
        <pt x="125" y="45" on="0"/>
        <pt x="125" y="69" on="1"/>
        <pt x="125" y="579" on="1"/>
        <pt x="125" y="602" on="0"/>
        <pt x="109" y="609" on="1"/>
        <pt x="96" y="615" on="0"/>
        <pt x="60" y="620" on="1"/>
        <pt x="50" y="622" on="1"/>
        <pt x="57" y="653" on="1"/>
        <pt x="62" y="650" on="0"/>
      </contour>
      <contour>
        <pt x="335" y="-43" on="0"/>
        <pt x="385" y="-80" on="0"/>
        <pt x="385" y="-138" on="0"/>
        <pt x="315" y="-231" on="0"/>
        <pt x="281" y="-260" on="1"/>
        <pt x="259" y="-242" on="1"/>
        <pt x="280" y="-221" on="0"/>
        <pt x="319" y="-162" on="0"/>
        <pt x="319" y="-120" on="0"/>
        <pt x="261" y="-114" on="1"/>
        <pt x="254" y="-98" on="1"/>
        <pt x="262" y="-85" on="0"/>
        <pt x="296" y="-49" on="0"/>
        <pt x="308" y="-41" on="1"/>
      </contour>
    </TTGlyph>
    <TTGlyph name="S" xMin="53" yMin="-16" xMax="469" yMax="666">
      <contour>
        <pt x="100" y="120" on="0"/>
        <pt x="175" y="30" on="0"/>
        <pt x="304" y="30" on="0"/>
        <pt x="377" y="92" on="0"/>
        <pt x="377" y="145" on="1"/>
        <pt x="377" y="195" on="0"/>
        <pt x="335" y="231" on="1"/>
        <pt x="295" y="265" on="0"/>
        <pt x="206" y="312" on="1"/>
        <pt x="197" y="317" on="0"/>
        <pt x="149" y="348" on="0"/>
        <pt x="130" y="365" on="0"/>
        <pt x="96" y="398" on="0"/>
        <pt x="89" y="412" on="1"/>
        <pt x="70" y="450" on="0"/>
        <pt x="70" y="487" on="1"/>
        <pt x="70" y="571" on="0"/>
        <pt x="187" y="666" on="0"/>
        <pt x="277" y="666" on="1"/>
        <pt x="310" y="666" on="0"/>
        <pt x="454" y="640" on="1"/>
        <pt x="446" y="553" on="0"/>
        <pt x="428" y="486" on="1"/>
        <pt x="394" y="480" on="1"/>
        <pt x="387" y="565" on="0"/>
        <pt x="375" y="597" on="1"/>
        <pt x="338" y="622" on="0"/>
        <pt x="218" y="622" on="0"/>
        <pt x="154" y="568" on="0"/>
        <pt x="154" y="520" on="1"/>
        <pt x="154" y="457" on="0"/>
        <pt x="252" y="402" on="1"/>
        <pt x="266" y="395" on="0"/>
        <pt x="338" y="356" on="0"/>
        <pt x="383" y="328" on="0"/>
        <pt x="412" y="304" on="1"/>
        <pt x="469" y="257" on="0"/>
        <pt x="469" y="187" on="1"/>
        <pt x="469" y="88" on="0"/>
        <pt x="336" y="-16" on="0"/>
        <pt x="140" y="-16" on="0"/>
        <pt x="55" y="21" on="1"/>
        <pt x="53" y="32" on="0"/>
        <pt x="53" y="156" on="0"/>
        <pt x="57" y="183" on="1"/>
        <pt x="94" y="192" on="1"/>
      </contour>
    </TTGlyph>
    <TTGlyph name="Sacute" xMin="53" yMin="-16" xMax="469" yMax="833">
      <contour>
        <pt x="100" y="120" on="0"/>
        <pt x="175" y="30" on="0"/>
        <pt x="304" y="30" on="0"/>
        <pt x="377" y="92" on="0"/>
        <pt x="377" y="145" on="1"/>
        <pt x="377" y="195" on="0"/>
        <pt x="335" y="231" on="1"/>
        <pt x="295" y="265" on="0"/>
        <pt x="206" y="312" on="1"/>
        <pt x="197" y="317" on="0"/>
        <pt x="149" y="348" on="0"/>
        <pt x="130" y="365" on="0"/>
        <pt x="96" y="398" on="0"/>
        <pt x="89" y="412" on="1"/>
        <pt x="70" y="450" on="0"/>
        <pt x="70" y="487" on="1"/>
        <pt x="70" y="571" on="0"/>
        <pt x="187" y="666" on="0"/>
        <pt x="277" y="666" on="1"/>
        <pt x="310" y="666" on="0"/>
        <pt x="454" y="640" on="1"/>
        <pt x="446" y="553" on="0"/>
        <pt x="428" y="486" on="1"/>
        <pt x="394" y="480" on="1"/>
        <pt x="387" y="565" on="0"/>
        <pt x="375" y="597" on="1"/>
        <pt x="338" y="622" on="0"/>
        <pt x="218" y="622" on="0"/>
        <pt x="154" y="568" on="0"/>
        <pt x="154" y="520" on="1"/>
        <pt x="154" y="457" on="0"/>
        <pt x="252" y="402" on="1"/>
        <pt x="266" y="395" on="0"/>
        <pt x="338" y="356" on="0"/>
        <pt x="383" y="328" on="0"/>
        <pt x="412" y="304" on="1"/>
        <pt x="469" y="257" on="0"/>
        <pt x="469" y="187" on="1"/>
        <pt x="469" y="88" on="0"/>
        <pt x="336" y="-16" on="0"/>
        <pt x="140" y="-16" on="0"/>
        <pt x="55" y="21" on="1"/>
        <pt x="53" y="32" on="0"/>
        <pt x="53" y="156" on="0"/>
        <pt x="57" y="183" on="1"/>
        <pt x="94" y="192" on="1"/>
      </contour>
      <contour>
        <pt x="403" y="817" on="1"/>
        <pt x="409" y="799" on="1"/>
        <pt x="221" y="681" on="1"/>
        <pt x="195" y="708" on="1"/>
        <pt x="206" y="721" on="0"/>
        <pt x="308" y="826" on="0"/>
        <pt x="319" y="833" on="1"/>
        <pt x="332" y="833" on="0"/>
        <pt x="391" y="822" on="0"/>
      </contour>
    </TTGlyph>
    <TTGlyph name="Scaron" xMin="53" yMin="-16" xMax="469" yMax="836">
      <contour>
        <pt x="100" y="120" on="0"/>
        <pt x="175" y="30" on="0"/>
        <pt x="304" y="30" on="0"/>
        <pt x="377" y="92" on="0"/>
        <pt x="377" y="145" on="1"/>
        <pt x="377" y="195" on="0"/>
        <pt x="335" y="231" on="1"/>
        <pt x="295" y="265" on="0"/>
        <pt x="206" y="312" on="1"/>
        <pt x="197" y="317" on="0"/>
        <pt x="149" y="348" on="0"/>
        <pt x="130" y="365" on="0"/>
        <pt x="96" y="398" on="0"/>
        <pt x="89" y="412" on="1"/>
        <pt x="70" y="450" on="0"/>
        <pt x="70" y="487" on="1"/>
        <pt x="70" y="571" on="0"/>
        <pt x="187" y="666" on="0"/>
        <pt x="277" y="666" on="1"/>
        <pt x="310" y="666" on="0"/>
        <pt x="454" y="640" on="1"/>
        <pt x="446" y="553" on="0"/>
        <pt x="428" y="486" on="1"/>
        <pt x="394" y="480" on="1"/>
        <pt x="387" y="565" on="0"/>
        <pt x="375" y="597" on="1"/>
        <pt x="338" y="622" on="0"/>
        <pt x="218" y="622" on="0"/>
        <pt x="154" y="568" on="0"/>
        <pt x="154" y="520" on="1"/>
        <pt x="154" y="457" on="0"/>
        <pt x="252" y="402" on="1"/>
        <pt x="266" y="395" on="0"/>
        <pt x="338" y="356" on="0"/>
        <pt x="383" y="328" on="0"/>
        <pt x="412" y="304" on="1"/>
        <pt x="469" y="257" on="0"/>
        <pt x="469" y="187" on="1"/>
        <pt x="469" y="88" on="0"/>
        <pt x="336" y="-16" on="0"/>
        <pt x="140" y="-16" on="0"/>
        <pt x="55" y="21" on="1"/>
        <pt x="53" y="32" on="0"/>
        <pt x="53" y="156" on="0"/>
        <pt x="57" y="183" on="1"/>
        <pt x="94" y="192" on="1"/>
      </contour>
      <contour>
        <pt x="302" y="686" on="0"/>
        <pt x="252" y="686" on="0"/>
        <pt x="236" y="688" on="1"/>
        <pt x="224" y="697" on="0"/>
        <pt x="140" y="804" on="0"/>
        <pt x="134" y="815" on="1"/>
        <pt x="162" y="836" on="1"/>
        <pt x="277" y="746" on="1"/>
        <pt x="392" y="836" on="1"/>
        <pt x="420" y="815" on="1"/>
        <pt x="414" y="804" on="0"/>
        <pt x="330" y="697" on="0"/>
        <pt x="318" y="688" on="1"/>
      </contour>
    </TTGlyph>
    <TTGlyph name="Scedilla" xMin="53" yMin="-239" xMax="469" yMax="666">
      <contour>
        <pt x="55" y="21" on="1"/>
        <pt x="53" y="32" on="0"/>
        <pt x="53" y="156" on="0"/>
        <pt x="57" y="183" on="1"/>
        <pt x="94" y="192" on="1"/>
        <pt x="100" y="120" on="0"/>
        <pt x="175" y="30" on="0"/>
        <pt x="304" y="30" on="0"/>
        <pt x="377" y="92" on="0"/>
        <pt x="377" y="145" on="1"/>
        <pt x="377" y="195" on="0"/>
        <pt x="335" y="231" on="1"/>
        <pt x="295" y="265" on="0"/>
        <pt x="206" y="312" on="1"/>
        <pt x="197" y="317" on="0"/>
        <pt x="149" y="348" on="0"/>
        <pt x="130" y="365" on="0"/>
        <pt x="96" y="398" on="0"/>
        <pt x="89" y="412" on="1"/>
        <pt x="70" y="450" on="0"/>
        <pt x="70" y="487" on="1"/>
        <pt x="70" y="571" on="0"/>
        <pt x="187" y="666" on="0"/>
        <pt x="277" y="666" on="1"/>
        <pt x="310" y="666" on="0"/>
        <pt x="454" y="640" on="1"/>
        <pt x="446" y="553" on="0"/>
        <pt x="428" y="486" on="1"/>
        <pt x="394" y="480" on="1"/>
        <pt x="387" y="565" on="0"/>
        <pt x="375" y="597" on="1"/>
        <pt x="338" y="622" on="0"/>
        <pt x="218" y="622" on="0"/>
        <pt x="154" y="568" on="0"/>
        <pt x="154" y="520" on="1"/>
        <pt x="154" y="457" on="0"/>
        <pt x="252" y="402" on="1"/>
        <pt x="266" y="395" on="0"/>
        <pt x="338" y="356" on="0"/>
        <pt x="383" y="328" on="0"/>
        <pt x="412" y="304" on="1"/>
        <pt x="469" y="257" on="0"/>
        <pt x="469" y="187" on="1"/>
        <pt x="469" y="96" on="0"/>
        <pt x="355" y="-6" on="0"/>
        <pt x="261" y="-14" on="1"/>
        <pt x="244" y="-71" on="1"/>
        <pt x="276" y="-71" on="0"/>
        <pt x="321" y="-116" on="0"/>
        <pt x="321" y="-191" on="0"/>
        <pt x="266" y="-238" on="0"/>
        <pt x="183" y="-240" on="0"/>
        <pt x="132" y="-211" on="1"/>
        <pt x="147" y="-180" on="1"/>
        <pt x="187" y="-198" on="0"/>
        <pt x="215" y="-198" on="1"/>
        <pt x="268" y="-198" on="0"/>
        <pt x="268" y="-158" on="1"/>
        <pt x="268" y="-132" on="0"/>
        <pt x="244" y="-118" on="1"/>
        <pt x="230" y="-110" on="0"/>
        <pt x="200" y="-110" on="0"/>
        <pt x="187" y="-113" on="1"/>
        <pt x="174" y="-92" on="1"/>
        <pt x="217" y="-16" on="1"/>
        <pt x="132" y="-13" on="0"/>
      </contour>
    </TTGlyph>
    <TTGlyph name="Scircumflex" xMin="53" yMin="-16" xMax="469" yMax="831">
      <contour>
        <pt x="100" y="120" on="0"/>
        <pt x="175" y="30" on="0"/>
        <pt x="304" y="30" on="0"/>
        <pt x="377" y="92" on="0"/>
        <pt x="377" y="145" on="1"/>
        <pt x="377" y="195" on="0"/>
        <pt x="335" y="231" on="1"/>
        <pt x="295" y="265" on="0"/>
        <pt x="206" y="312" on="1"/>
        <pt x="197" y="317" on="0"/>
        <pt x="149" y="348" on="0"/>
        <pt x="130" y="365" on="0"/>
        <pt x="96" y="398" on="0"/>
        <pt x="89" y="412" on="1"/>
        <pt x="70" y="450" on="0"/>
        <pt x="70" y="487" on="1"/>
        <pt x="70" y="571" on="0"/>
        <pt x="187" y="666" on="0"/>
        <pt x="277" y="666" on="1"/>
        <pt x="310" y="666" on="0"/>
        <pt x="454" y="640" on="1"/>
        <pt x="446" y="553" on="0"/>
        <pt x="428" y="486" on="1"/>
        <pt x="394" y="480" on="1"/>
        <pt x="387" y="565" on="0"/>
        <pt x="375" y="597" on="1"/>
        <pt x="338" y="622" on="0"/>
        <pt x="218" y="622" on="0"/>
        <pt x="154" y="568" on="0"/>
        <pt x="154" y="520" on="1"/>
        <pt x="154" y="457" on="0"/>
        <pt x="252" y="402" on="1"/>
        <pt x="266" y="395" on="0"/>
        <pt x="338" y="356" on="0"/>
        <pt x="383" y="328" on="0"/>
        <pt x="412" y="304" on="1"/>
        <pt x="469" y="257" on="0"/>
        <pt x="469" y="187" on="1"/>
        <pt x="469" y="88" on="0"/>
        <pt x="336" y="-16" on="0"/>
        <pt x="140" y="-16" on="0"/>
        <pt x="55" y="21" on="1"/>
        <pt x="53" y="32" on="0"/>
        <pt x="53" y="156" on="0"/>
        <pt x="57" y="183" on="1"/>
        <pt x="94" y="192" on="1"/>
      </contour>
      <contour>
        <pt x="252" y="831" on="0"/>
        <pt x="302" y="831" on="0"/>
        <pt x="318" y="829" on="1"/>
        <pt x="330" y="820" on="0"/>
        <pt x="414" y="713" on="0"/>
        <pt x="420" y="702" on="1"/>
        <pt x="392" y="681" on="1"/>
        <pt x="277" y="771" on="1"/>
        <pt x="162" y="681" on="1"/>
        <pt x="134" y="702" on="1"/>
        <pt x="140" y="713" on="0"/>
        <pt x="224" y="820" on="0"/>
        <pt x="236" y="829" on="1"/>
      </contour>
    </TTGlyph>
    <TTGlyph name="Scommaaccent" xMin="53" yMin="-260" xMax="469" yMax="666">
      <contour>
        <pt x="100" y="120" on="0"/>
        <pt x="175" y="30" on="0"/>
        <pt x="304" y="30" on="0"/>
        <pt x="377" y="92" on="0"/>
        <pt x="377" y="145" on="1"/>
        <pt x="377" y="195" on="0"/>
        <pt x="335" y="231" on="1"/>
        <pt x="295" y="265" on="0"/>
        <pt x="206" y="312" on="1"/>
        <pt x="197" y="317" on="0"/>
        <pt x="149" y="348" on="0"/>
        <pt x="130" y="365" on="0"/>
        <pt x="96" y="398" on="0"/>
        <pt x="89" y="412" on="1"/>
        <pt x="70" y="450" on="0"/>
        <pt x="70" y="487" on="1"/>
        <pt x="70" y="571" on="0"/>
        <pt x="187" y="666" on="0"/>
        <pt x="277" y="666" on="1"/>
        <pt x="310" y="666" on="0"/>
        <pt x="454" y="640" on="1"/>
        <pt x="446" y="553" on="0"/>
        <pt x="428" y="486" on="1"/>
        <pt x="394" y="480" on="1"/>
        <pt x="387" y="565" on="0"/>
        <pt x="375" y="597" on="1"/>
        <pt x="338" y="622" on="0"/>
        <pt x="218" y="622" on="0"/>
        <pt x="154" y="568" on="0"/>
        <pt x="154" y="520" on="1"/>
        <pt x="154" y="457" on="0"/>
        <pt x="252" y="402" on="1"/>
        <pt x="266" y="395" on="0"/>
        <pt x="338" y="356" on="0"/>
        <pt x="383" y="328" on="0"/>
        <pt x="412" y="304" on="1"/>
        <pt x="469" y="257" on="0"/>
        <pt x="469" y="187" on="1"/>
        <pt x="469" y="88" on="0"/>
        <pt x="336" y="-16" on="0"/>
        <pt x="140" y="-16" on="0"/>
        <pt x="55" y="21" on="1"/>
        <pt x="53" y="32" on="0"/>
        <pt x="53" y="156" on="0"/>
        <pt x="57" y="183" on="1"/>
        <pt x="94" y="192" on="1"/>
      </contour>
      <contour>
        <pt x="244" y="-43" on="0"/>
        <pt x="294" y="-80" on="0"/>
        <pt x="294" y="-138" on="0"/>
        <pt x="224" y="-231" on="0"/>
        <pt x="190" y="-260" on="1"/>
        <pt x="168" y="-242" on="1"/>
        <pt x="189" y="-221" on="0"/>
        <pt x="228" y="-162" on="0"/>
        <pt x="228" y="-120" on="0"/>
        <pt x="170" y="-114" on="1"/>
        <pt x="163" y="-98" on="1"/>
        <pt x="171" y="-85" on="0"/>
        <pt x="205" y="-49" on="0"/>
        <pt x="217" y="-41" on="1"/>
      </contour>
    </TTGlyph>
    <TTGlyph name="T" xMin="8" yMin="-8" xMax="565" yMax="657">
      <contour>
        <pt x="422" y="-8" on="1"/>
        <pt x="356" y="0" on="0"/>
        <pt x="217" y="0" on="0"/>
        <pt x="151" y="-8" on="1"/>
        <pt x="143" y="26" on="1"/>
        <pt x="207" y="34" on="0"/>
        <pt x="236" y="47" on="0"/>
        <pt x="242" y="59" on="0"/>
        <pt x="242" y="72" on="1"/>
        <pt x="242" y="603" on="1"/>
        <pt x="75" y="603" on="1"/>
        <pt x="60" y="561" on="0"/>
        <pt x="54" y="478" on="1"/>
        <pt x="17" y="484" on="1"/>
        <pt x="8" y="553" on="0"/>
        <pt x="8" y="637" on="0"/>
        <pt x="9" y="657" on="1"/>
        <pt x="65" y="650" on="0"/>
        <pt x="110" y="650" on="1"/>
        <pt x="463" y="650" on="1"/>
        <pt x="508" y="650" on="0"/>
        <pt x="564" y="657" on="1"/>
        <pt x="565" y="639" on="0"/>
        <pt x="565" y="558" on="0"/>
        <pt x="555" y="484" on="1"/>
        <pt x="519" y="478" on="1"/>
        <pt x="513" y="561" on="0"/>
        <pt x="498" y="603" on="1"/>
        <pt x="331" y="603" on="1"/>
        <pt x="331" y="72" on="1"/>
        <pt x="331" y="59" on="0"/>
        <pt x="337" y="47" on="0"/>
        <pt x="346" y="43" on="1"/>
        <pt x="361" y="37" on="0"/>
        <pt x="414" y="28" on="1"/>
        <pt x="430" y="26" on="1"/>
      </contour>
    </TTGlyph>
    <TTGlyph name="Tbar" xMin="8" yMin="-8" xMax="565" yMax="657">
      <contour>
        <pt x="422" y="-8" on="1"/>
        <pt x="356" y="0" on="0"/>
        <pt x="217" y="0" on="0"/>
        <pt x="151" y="-8" on="1"/>
        <pt x="143" y="26" on="1"/>
        <pt x="207" y="34" on="0"/>
        <pt x="236" y="47" on="0"/>
        <pt x="242" y="59" on="0"/>
        <pt x="242" y="72" on="1"/>
        <pt x="242" y="315" on="1"/>
        <pt x="77" y="315" on="1"/>
        <pt x="86" y="361" on="1"/>
        <pt x="242" y="361" on="1"/>
        <pt x="242" y="603" on="1"/>
        <pt x="75" y="603" on="1"/>
        <pt x="60" y="561" on="0"/>
        <pt x="54" y="478" on="1"/>
        <pt x="17" y="484" on="1"/>
        <pt x="8" y="553" on="0"/>
        <pt x="8" y="637" on="0"/>
        <pt x="9" y="657" on="1"/>
        <pt x="65" y="650" on="0"/>
        <pt x="110" y="650" on="1"/>
        <pt x="463" y="650" on="1"/>
        <pt x="508" y="650" on="0"/>
        <pt x="564" y="657" on="1"/>
        <pt x="565" y="639" on="0"/>
        <pt x="565" y="558" on="0"/>
        <pt x="555" y="484" on="1"/>
        <pt x="519" y="478" on="1"/>
        <pt x="513" y="561" on="0"/>
        <pt x="498" y="603" on="1"/>
        <pt x="331" y="603" on="1"/>
        <pt x="331" y="361" on="1"/>
        <pt x="496" y="361" on="1"/>
        <pt x="487" y="315" on="1"/>
        <pt x="331" y="315" on="1"/>
        <pt x="331" y="72" on="1"/>
        <pt x="331" y="59" on="0"/>
        <pt x="337" y="47" on="0"/>
        <pt x="346" y="43" on="1"/>
        <pt x="361" y="37" on="0"/>
        <pt x="414" y="28" on="1"/>
        <pt x="430" y="26" on="1"/>
      </contour>
    </TTGlyph>
    <TTGlyph name="Tcaron" xMin="8" yMin="-8" xMax="565" yMax="836">
      <contour>
        <pt x="422" y="-8" on="1"/>
        <pt x="356" y="0" on="0"/>
        <pt x="217" y="0" on="0"/>
        <pt x="151" y="-8" on="1"/>
        <pt x="143" y="26" on="1"/>
        <pt x="207" y="34" on="0"/>
        <pt x="236" y="47" on="0"/>
        <pt x="242" y="59" on="0"/>
        <pt x="242" y="72" on="1"/>
        <pt x="242" y="603" on="1"/>
        <pt x="75" y="603" on="1"/>
        <pt x="60" y="561" on="0"/>
        <pt x="54" y="478" on="1"/>
        <pt x="17" y="484" on="1"/>
        <pt x="8" y="553" on="0"/>
        <pt x="8" y="637" on="0"/>
        <pt x="9" y="657" on="1"/>
        <pt x="65" y="650" on="0"/>
        <pt x="110" y="650" on="1"/>
        <pt x="463" y="650" on="1"/>
        <pt x="508" y="650" on="0"/>
        <pt x="564" y="657" on="1"/>
        <pt x="565" y="639" on="0"/>
        <pt x="565" y="558" on="0"/>
        <pt x="555" y="484" on="1"/>
        <pt x="519" y="478" on="1"/>
        <pt x="513" y="561" on="0"/>
        <pt x="498" y="603" on="1"/>
        <pt x="331" y="603" on="1"/>
        <pt x="331" y="72" on="1"/>
        <pt x="331" y="59" on="0"/>
        <pt x="337" y="47" on="0"/>
        <pt x="346" y="43" on="1"/>
        <pt x="361" y="37" on="0"/>
        <pt x="414" y="28" on="1"/>
        <pt x="430" y="26" on="1"/>
      </contour>
      <contour>
        <pt x="311" y="686" on="0"/>
        <pt x="261" y="686" on="0"/>
        <pt x="245" y="688" on="1"/>
        <pt x="233" y="697" on="0"/>
        <pt x="149" y="804" on="0"/>
        <pt x="143" y="815" on="1"/>
        <pt x="171" y="836" on="1"/>
        <pt x="286" y="746" on="1"/>
        <pt x="401" y="836" on="1"/>
        <pt x="429" y="815" on="1"/>
        <pt x="423" y="804" on="0"/>
        <pt x="339" y="697" on="0"/>
        <pt x="327" y="688" on="1"/>
      </contour>
    </TTGlyph>
</ttFont>
